<svg width="48" height="48" viewBox="0 0 48 48" fill="none" xmlns="http://www.w3.org/2000/svg">
<circle cx="24" cy="24" r="24" fill="url(#paint0_linear_600_10624)"/>
<path fill-rule="evenodd" clip-rule="evenodd" d="M19.5857 10.9091H22.6862V13.5532C22.6862 13.6425 22.6825 13.731 22.675 13.8185V16.2576C18.2913 16.6207 14.9216 18.8014 14.9216 21.4372C14.9216 24.3272 18.9722 26.67 23.9689 26.67C27.9864 26.67 31.3922 25.1555 32.5729 23.0598C33.0735 23.5806 33.5615 24.1488 34.0291 24.761C34.1512 24.9209 34.2704 25.0818 34.3866 25.2435C32.3366 27.6003 28.4349 29.1921 23.9588 29.1921C17.3541 29.1921 12 25.7264 12 21.4513C12 18.1753 15.1441 15.3746 19.5857 14.2445V10.9091ZM25.3776 16.2676C29.0789 16.6022 32.0365 18.2347 32.8151 20.3349C33.1625 20.5219 33.5086 20.7401 33.8484 20.9892C34.5948 21.5366 35.2279 22.1729 35.7248 22.843C35.8514 22.3915 35.9175 21.9264 35.9175 21.4513C35.9175 18.2649 32.943 15.5281 28.6933 14.3409V10.9091H25.3989V13.3594C25.3989 13.4978 25.4075 13.6342 25.424 13.7681C25.4086 13.7669 25.3931 13.7657 25.3776 13.7645V16.2676Z" fill="white"/>
<path fill-rule="evenodd" clip-rule="evenodd" d="M25.5351 34.7282C25.5275 34.7289 25.5199 34.7295 25.5124 34.7301V32.1807C29.7494 31.7569 32.9722 29.6189 32.9722 27.0451C32.9722 24.1667 28.9411 21.8333 23.9685 21.8333C19.8979 21.8333 16.4583 23.3969 15.3443 25.5432C14.7179 24.9598 14.1052 24.3061 13.5204 23.5877C13.477 23.5343 13.4339 23.4809 13.3912 23.4273C15.4001 20.98 19.3788 19.3134 23.9588 19.3134C30.5634 19.3134 35.9175 22.7791 35.9175 27.0541C35.9175 30.2406 32.9429 32.9775 28.693 34.1646V37.5939H25.4956V35.232C25.4956 35.0606 25.5091 34.8923 25.5351 34.7282ZM22.8098 32.2142V34.7596C22.7964 34.7588 22.7831 34.7579 22.7697 34.7571C22.7783 34.8496 22.7827 34.9434 22.7827 35.0382V37.5939H19.7791V34.3089C15.2356 33.2117 12 30.3775 12 27.0541C12 26.6389 12.0505 26.2312 12.1478 25.8337C12.2 25.9069 12.2536 25.9796 12.3086 26.0516C13.1659 27.1762 14.2132 27.9725 15.2675 28.39C16.1954 30.407 19.1607 31.9429 22.8098 32.2142Z" fill="white"/>
<defs>
<linearGradient id="paint0_linear_600_10624" x1="24" y1="0" x2="24" y2="66" gradientUnits="userSpaceOnUse">
<stop stop-color="#42DEE8"/>
<stop offset="1" stop-color="#3965FF"/>
</linearGradient>
</defs>
</svg>
