<svg xmlns="http://www.w3.org/2000/svg" xmlns:xlink="http://www.w3.org/1999/xlink" width="92.3" height="102.034" viewBox="0 0 92.3 102.034">
  <defs>
    <linearGradient id="linear-gradient" x1="0.5" y1="-1.46" x2="0.5" y2="4.661" gradientUnits="objectBoundingBox">
      <stop offset="0" stop-color="#1039ac"/>
      <stop offset="1" stop-color="#f8d14e"/>
    </linearGradient>
    <linearGradient id="linear-gradient-2" x1="0.5" y1="-2.811" x2="0.5" y2="3.31" xlink:href="#linear-gradient"/>
    <linearGradient id="linear-gradient-3" x1="0.5" y1="-4.161" x2="0.5" y2="1.96" xlink:href="#linear-gradient"/>
    <linearGradient id="linear-gradient-4" x1="0.5" y1="-0.914" x2="0.5" y2="1.111" xlink:href="#linear-gradient"/>
    <linearGradient id="linear-gradient-5" x1="0.5" y1="0.145" x2="0.5" y2="2.314" xlink:href="#linear-gradient"/>
    <linearGradient id="linear-gradient-6" x1="0.5" y1="-0.062" x2="0.5" y2="0.985" xlink:href="#linear-gradient"/>
  </defs>
  <g id="Group_11612" data-name="Group 11612" transform="translate(-810.573 -384.687)">
    <g id="Group_11199" data-name="Group 11199" transform="translate(811.723 386)">
      <g id="Group_11151" data-name="Group 11151" transform="translate(0)">
        <path id="Path_21289" data-name="Path 21289" d="M535.057,731.768l-30.412-17.55a14.6,14.6,0,0,0-14.6,0l-30.383,17.55a14.6,14.6,0,0,0-7.3,12.647v35.1a14.6,14.6,0,0,0,7.3,12.647l30.4,17.55a14.6,14.6,0,0,0,14.6,0l30.4-17.55a14.6,14.6,0,0,0,7.3-12.647v-35.1A14.6,14.6,0,0,0,535.057,731.768Z" transform="translate(-452.358 -712.261)" fill="#071691"/>
        <path id="Path_21290" data-name="Path 21290" d="M535.057,731.768l-30.412-17.55a14.6,14.6,0,0,0-14.6,0l-30.383,17.55a14.6,14.6,0,0,0-7.3,12.647v35.1a14.6,14.6,0,0,0,7.3,12.647l30.4,17.55a14.6,14.6,0,0,0,14.6,0l30.4-17.55a14.6,14.6,0,0,0,7.3-12.647v-35.1A14.6,14.6,0,0,0,535.057,731.768Z" transform="translate(-452.358 -712.261)" fill="none" stroke="#fff" stroke-width="2.3"/>
      </g>
      <g id="Group_11183" data-name="Group 11183" transform="translate(14.146 22.758)">
        <g id="Group_11182" data-name="Group 11182">
          <g id="Group_11176" data-name="Group 11176" transform="translate(5.799 14.991)">
            <rect id="Rectangle_11715" data-name="Rectangle 11715" width="8.019" height="8.019" rx="4.01" fill="url(#linear-gradient)"/>
            <g id="Group_11175" data-name="Group 11175" transform="translate(2.155 3.176)">
              <path id="Path_21340" data-name="Path 21340" d="M805.294,672.317a.21.21,0,0,1-.292.007l-1.017-.943a.328.328,0,1,1,.446-.481l.55.51a.21.21,0,0,0,.292-.007l1.753-1.785a.328.328,0,0,1,.468.46Z" transform="translate(-803.879 -669.519)" fill="#fff" stroke="#fff" stroke-miterlimit="10" stroke-width="0.3"/>
            </g>
          </g>
          <g id="Group_11178" data-name="Group 11178" transform="translate(5.799 25.821)">
            <rect id="Rectangle_11716" data-name="Rectangle 11716" width="8.019" height="8.019" rx="4.01" fill="url(#linear-gradient-2)"/>
            <g id="Group_11177" data-name="Group 11177" transform="translate(1.988 2.918)">
              <path id="Path_21341" data-name="Path 21341" d="M805.421,695.038a.229.229,0,0,1-.319.007l-1.109-1.029a.357.357,0,1,1,.486-.524l.6.556a.229.229,0,0,0,.319-.008l1.911-1.946a.358.358,0,0,1,.51.5Z" transform="translate(-803.879 -691.988)" fill="#fff" stroke="#fff" stroke-miterlimit="10" stroke-width="0.3"/>
            </g>
          </g>
          <g id="Group_11180" data-name="Group 11180" transform="translate(5.799 36.651)">
            <rect id="Rectangle_11717" data-name="Rectangle 11717" width="8.019" height="8.019" rx="4.01" fill="url(#linear-gradient-3)"/>
            <g id="Group_11179" data-name="Group 11179" transform="translate(1.886 2.76)">
              <path id="Path_21342" data-name="Path 21342" d="M805.5,717.662a.24.24,0,0,1-.335.008L804,716.589a.376.376,0,1,1,.511-.551l.63.584a.241.241,0,0,0,.335-.008l2.008-2.045a.376.376,0,0,1,.536.526Z" transform="translate(-803.879 -714.457)" fill="#fff" stroke="#fff" stroke-miterlimit="10" stroke-width="0.3"/>
            </g>
          </g>
          <g id="Group_11181" data-name="Group 11181" transform="translate(24.426)">
            <path id="Path_21343" data-name="Path 21343" d="M845.416,711.333h25.119a5.969,5.969,0,0,0,5.8-7.315l-1.932-8.695a11.259,11.259,0,0,0-7.729-8.143,2.309,2.309,0,0,0-1.656.139,16.4,16.4,0,0,1-6.9,1.656,14.558,14.558,0,0,1-6.9-1.656,2.309,2.309,0,0,0-1.656-.139,10.593,10.593,0,0,0-7.729,8.143l-1.932,8.695A5.733,5.733,0,0,0,845.416,711.333Z" transform="translate(-839.658 -661.647)" fill="url(#linear-gradient-4)"/>
            <circle id="Ellipse_11" data-name="Ellipse 11" cx="11.317" cy="11.317" r="11.317" transform="translate(7)" fill="url(#linear-gradient-5)"/>
          </g>
          <path id="Path_21344" data-name="Path 21344" d="M812.625,691.731a3.371,3.371,0,0,1-.384.023H794.562a3.352,3.352,0,0,1-3.349-3.348V652.691a3.352,3.352,0,0,1,3.349-3.348H810.05V650.8a4.252,4.252,0,0,0,4.247,4.247h1.292v11.807a14.361,14.361,0,0,1,2.232-1.914V653.35l-6.28-6.239H794.562a5.586,5.586,0,0,0-5.581,5.58v35.715a5.587,5.587,0,0,0,5.581,5.581h17.679a5.537,5.537,0,0,0,2.643-.668A9.59,9.59,0,0,1,812.625,691.731Z" transform="translate(-788.981 -640.938)" fill="url(#linear-gradient-6)"/>
        </g>
      </g>
    </g>
  </g>
</svg>
