<svg xmlns="http://www.w3.org/2000/svg" xmlns:xlink="http://www.w3.org/1999/xlink" width="92.3" height="102.034" viewBox="0 0 92.3 102.034">
  <defs>
    <linearGradient id="linear-gradient" x1="0.5" y1="-0.035" x2="0.5" y2="0.831" gradientUnits="objectBoundingBox">
      <stop offset="0" stop-color="#1039ac"/>
      <stop offset="1" stop-color="#f8d14e"/>
    </linearGradient>
    <linearGradient id="linear-gradient-2" x1="0.5" y1="-0.69" x2="0.5" y2="0.908" xlink:href="#linear-gradient"/>
    <linearGradient id="linear-gradient-3" x1="0.5" y1="-1.628" x2="0.5" y2="9.933" xlink:href="#linear-gradient"/>
    <linearGradient id="linear-gradient-4" x1="0.5" y1="-3.962" x2="0.5" y2="7.6" xlink:href="#linear-gradient"/>
    <linearGradient id="linear-gradient-5" x1="0.5" y1="-0.372" x2="0.5" y2="3.435" xlink:href="#linear-gradient"/>
    <linearGradient id="linear-gradient-6" x1="0.5" y1="-6.313" x2="0.5" y2="5.248" xlink:href="#linear-gradient"/>
    <linearGradient id="linear-gradient-7" x1="0.5" y1="-1.396" x2="0.5" y2="2.158" xlink:href="#linear-gradient"/>
  </defs>
  <g id="Group_11613" data-name="Group 11613" transform="translate(-415.85 -392.687)">
    <g id="Group_11197" data-name="Group 11197" transform="translate(417 394)">
      <g id="Group_11151" data-name="Group 11151" transform="translate(0)">
        <path id="Path_21289" data-name="Path 21289" d="M535.057,731.768l-30.412-17.55a14.6,14.6,0,0,0-14.6,0l-30.383,17.55a14.6,14.6,0,0,0-7.3,12.648v35.1a14.6,14.6,0,0,0,7.3,12.647l30.4,17.55a14.6,14.6,0,0,0,14.6,0l30.4-17.55a14.6,14.6,0,0,0,7.3-12.647v-35.1A14.6,14.6,0,0,0,535.057,731.768Z" transform="translate(-452.358 -712.261)" fill="#071691"/>
        <path id="Path_21290" data-name="Path 21290" d="M535.057,731.768l-30.412-17.55a14.6,14.6,0,0,0-14.6,0l-30.383,17.55a14.6,14.6,0,0,0-7.3,12.648v35.1a14.6,14.6,0,0,0,7.3,12.647l30.4,17.55a14.6,14.6,0,0,0,14.6,0l30.4-17.55a14.6,14.6,0,0,0,7.3-12.647v-35.1A14.6,14.6,0,0,0,535.057,731.768Z" transform="translate(-452.358 -712.261)" fill="none" stroke="#fff" stroke-width="2.3"/>
      </g>
      <g id="Group_11190" data-name="Group 11190" transform="translate(16.338 28.46)">
        <g id="Group_11188" data-name="Group 11188">
          <path id="Path_21348" data-name="Path 21348" d="M671.8,570.206H626.153a5.919,5.919,0,0,0-5.912,5.913v26.245a5.919,5.919,0,0,0,5.912,5.913h6.916c-.016-.3-.026-.593-.026-.892a16.084,16.084,0,0,1,.1-1.8h-6.995a3.22,3.22,0,0,1-3.216-3.217V576.119a3.22,3.22,0,0,1,3.216-3.217H671.8a3.22,3.22,0,0,1,3.217,3.217v26.245a3.22,3.22,0,0,1-3.217,3.217H664.8a16,16,0,0,1,.105,1.8c0,.3-.01.6-.027.892H671.8a5.92,5.92,0,0,0,5.913-5.913V576.119A5.92,5.92,0,0,0,671.8,570.206Z" transform="translate(-620.241 -570.206)" fill="url(#linear-gradient)"/>
        </g>
        <circle id="Ellipse_12" data-name="Ellipse 12" cx="13.237" cy="13.237" r="13.237" transform="translate(15.498 23.942)" fill="url(#linear-gradient-2)"/>
        <g id="Group_11189" data-name="Group 11189" transform="translate(21.802 31.831)">
          <path id="Path_21349" data-name="Path 21349" d="M673.169,650.22a.783.783,0,0,1-1.091.026l-3.8-3.526a1.227,1.227,0,0,1,1.668-1.8L672,646.826a.783.783,0,0,0,1.091-.026l6.555-6.674a1.227,1.227,0,0,1,1.751,1.719Z" transform="translate(-667.88 -639.76)" fill="#fff" stroke="#fff" stroke-miterlimit="10" stroke-width="1"/>
        </g>
        <path id="Path_21350" data-name="Path 21350" d="M684.61,594.923H700.8a1.613,1.613,0,0,0,0-3.225H684.61a1.613,1.613,0,1,0,0,3.225Z" transform="translate(-654.277 -581.862)" fill="url(#linear-gradient-3)"/>
        <path id="Path_21351" data-name="Path 21351" d="M684.61,611.369H700.8a1.613,1.613,0,1,0,0-3.225H684.61a1.613,1.613,0,1,0,0,3.225Z" transform="translate(-654.277 -590.782)" fill="url(#linear-gradient-4)"/>
        <circle id="Ellipse_13" data-name="Ellipse 13" cx="4.898" cy="4.898" r="4.898" transform="translate(11.936 8.223)" fill="url(#linear-gradient-5)"/>
        <path id="Path_21352" data-name="Path 21352" d="M714.51,626.332a1.606,1.606,0,0,0-1.613-1.613h-7.589a16.057,16.057,0,0,1,2.937,3.226H712.9A1.606,1.606,0,0,0,714.51,626.332Z" transform="translate(-666.378 -599.771)" fill="url(#linear-gradient-6)"/>
        <path id="Path_21353" data-name="Path 21353" d="M651.392,612.274a1,1,0,0,0-.717.06,7.1,7.1,0,0,1-2.987.717,6.3,6.3,0,0,1-2.987-.717,1,1,0,0,0-.717-.06,4.585,4.585,0,0,0-3.345,3.524l-.837,3.763a2.481,2.481,0,0,0,2.389,3.166h3.26a16.008,16.008,0,0,1,9.038-7.66A4.874,4.874,0,0,0,651.392,612.274Z" transform="translate(-630.795 -593)" fill="url(#linear-gradient-7)"/>
      </g>
    </g>
  </g>
</svg>
