<svg xmlns="http://www.w3.org/2000/svg" xmlns:xlink="http://www.w3.org/1999/xlink" width="75.815" height="83.771" viewBox="0 0 75.815 83.771">
  <defs>
    <linearGradient id="linear-gradient" x1="0.5" x2="0.5" y2="1" gradientUnits="objectBoundingBox">
      <stop offset="0" stop-color="#1039ac"/>
      <stop offset="1" stop-color="#f8d14e"/>
    </linearGradient>
  </defs>
  <g id="Component_53_1" data-name="Component 53 – 1" transform="translate(1.15 1.286)">
    <g id="Group_12642" data-name="Group 12642" transform="translate(0 0)">
      <path id="Path_21289" data-name="Path 21289" d="M519.91,728.2l-24.842-14.336a11.924,11.924,0,0,0-11.929,0L458.321,728.2a11.93,11.93,0,0,0-5.963,10.331V767.2a11.93,11.93,0,0,0,5.963,10.331l24.829,14.336a11.925,11.925,0,0,0,11.929,0l24.831-14.336a11.929,11.929,0,0,0,5.963-10.331V738.526A11.929,11.929,0,0,0,519.91,728.2Z" transform="translate(-452.358 -712.26)" fill="#071691"/>
      <path id="Path_21290" data-name="Path 21290" d="M519.91,728.2l-24.842-14.336a11.924,11.924,0,0,0-11.929,0L458.321,728.2a11.93,11.93,0,0,0-5.963,10.331V767.2a11.93,11.93,0,0,0,5.963,10.331l24.829,14.336a11.925,11.925,0,0,0,11.929,0l24.831-14.336a11.929,11.929,0,0,0,5.963-10.331V738.526A11.929,11.929,0,0,0,519.91,728.2Z" transform="translate(-452.358 -712.26)" fill="none" stroke="#fff" stroke-width="2.3"/>
    </g>
    <g id="Group_12643" data-name="Group 12643" transform="translate(-272.2 17.48)">
      <path id="Path_21368" data-name="Path 21368" d="M333.209,46.383c-1.477-2.475-2.937-5.02-4.348-7.481q-.834-1.456-1.672-2.91l-1.711-2.965q-2.876-4.984-5.746-9.971a1.723,1.723,0,0,0-1.739-1,1.827,1.827,0,0,0-1.4,1.05q-3.5,6.065-7,12.126l-2.863,4.955q-1.832,3.171-3.668,6.34a1.739,1.739,0,0,0-.035,1.949,1.832,1.832,0,0,0,1.653.743q5.771-.008,11.539,0h1.924q1.845,0,3.689,0c3.186-.008,6.478-.016,9.714.03h.042a1.939,1.939,0,0,0,1.76-.886A1.919,1.919,0,0,0,333.209,46.383Zm-4.2-.536H307.327l10.842-18.781Z" transform="translate(-4.275 -5.742)" fill="url(#linear-gradient)"/>
      <path id="Path_21369" data-name="Path 21369" d="M296.611,39.448c-.542-.009-1.085-.008-1.627,0h-3.412q0-.636-.01-1.262c-.013-1.449-.026-2.817.04-4.2a7.153,7.153,0,0,1,.594-2.429,7.508,7.508,0,0,1,4.922-4.391,8.506,8.506,0,0,1,7.046,1.015,2.788,2.788,0,0,0,.755.4,1.64,1.64,0,0,0,1.957-.881,1.67,1.67,0,0,0-.6-2.137,11.254,11.254,0,0,0-7.01-2.076,11.074,11.074,0,0,0-11.045,10.895c-.024,1.7-.017,3.4-.01,5.1l.006,1.512a1.659,1.659,0,0,0,1.775,1.816q1.6.008,3.208.008,1.7,0,3.4-.008a1.863,1.863,0,0,0,1.346-.535A1.624,1.624,0,0,0,298.4,41.1,1.71,1.71,0,0,0,296.611,39.448Z" transform="translate(0 -6.166)" fill="url(#linear-gradient)"/>
      <path id="Path_21370" data-name="Path 21370" d="M301.323,16.1c.185.017.368.025.551.025a5.626,5.626,0,0,0,5.575-4.451,9.817,9.817,0,0,0,.169-1.613c.012-.23.023-.46.042-.689l-.012-.527-.038,0c0-.236,0-.473,0-.709A5.7,5.7,0,0,0,302.6,2.552a5.6,5.6,0,0,0-6.187,4.485,16.432,16.432,0,0,0-.133,3.582A5.649,5.649,0,0,0,301.323,16.1Zm2.909-6.339c0,.276,0,.552-.006.828a2.3,2.3,0,0,1-4.589,0c-.024-.86-.023-1.71,0-2.529a2.292,2.292,0,0,1,2.3-2.188h.017a2.309,2.309,0,0,1,2.271,2.2c.01.283.007.567,0,.851l0,.408Z" transform="translate(-2.365)" fill="url(#linear-gradient)"/>
      <path id="Path_21371" data-name="Path 21371" d="M322.109,43.1a1.632,1.632,0,0,0,1.672,1.695h0a1.663,1.663,0,0,0,1.68-1.744c.008-.369.006-.738,0-1.107V40.393c0-.211,0-.421,0-.631a1.67,1.67,0,0,0-1.645-1.71,1.636,1.636,0,0,0-1.707,1.665C322.087,40.8,322.087,41.938,322.109,43.1Z" transform="translate(-9.967 -10.449)" fill="url(#linear-gradient)"/>
      <path id="Path_21372" data-name="Path 21372" d="M323.787,49.329h0a1.677,1.677,0,0,0-1.187,2.854,1.649,1.649,0,0,0,1.164.508h.02a1.717,1.717,0,0,0,1.19-.5,1.635,1.635,0,0,0,.5-1.144,1.716,1.716,0,0,0-.5-1.223A1.665,1.665,0,0,0,323.787,49.329Z" transform="translate(-9.974 -13.766)" fill="url(#linear-gradient)"/>
    </g>
  </g>
</svg>
