<?xml version="1.0" encoding="utf-8"?>
<!-- Generator: Adobe Illustrator 16.0.0, SVG Export Plug-In . SVG Version: 6.00 Build 0)  -->
<!DOCTYPE svg PUBLIC "-//W3C//DTD SVG 1.1//EN" "http://www.w3.org/Graphics/SVG/1.1/DTD/svg11.dtd">
<svg version="1.1" id="Capa_1" xmlns="http://www.w3.org/2000/svg" xmlns:xlink="http://www.w3.org/1999/xlink" x="0px" y="0px"
	 width="512px" height="512px" viewBox="0 0 512 512" enable-background="new 0 0 512 512" xml:space="preserve">
<g>
	<g>
		<path fill="#FFFFFF" d="M506.283,161.216l-245.333-128c-3.093-1.621-6.784-1.621-9.877,0l-245.333,128
			C2.219,163.051,0,166.677,0,170.667c0,3.989,2.219,7.616,5.739,9.451l245.333,128c1.536,0.812,3.243,1.216,4.928,1.216
			c1.686,0,3.393-0.404,4.928-1.216l245.333-128c3.521-1.835,5.739-5.461,5.739-9.451S509.781,163.051,506.283,161.216z
			 M256,286.656L33.728,170.667L256,54.677l222.272,115.989L256,286.656z"/>
	</g>
</g>
<g>
	<g>
		<path fill="#FFFFFF" d="M506.283,246.528l-35.669-18.603c-5.205-2.667-11.669-0.704-14.4,4.523
			c-2.73,5.227-0.704,11.669,4.523,14.4L478.272,256L256,371.989L33.728,256l17.557-9.131c5.227-2.731,7.253-9.173,4.523-14.4
			c-2.731-5.248-9.195-7.188-14.4-4.523L5.739,246.549C2.219,248.384,0,252.011,0,256s2.219,7.616,5.739,9.451l245.333,128
			c1.536,0.811,3.243,1.216,4.928,1.216c1.686,0,3.393-0.405,4.928-1.216l245.333-128C509.781,263.616,512,259.99,512,256
			S509.781,248.384,506.283,246.528z"/>
	</g>
</g>
<g>
	<g>
		<path fill="#FFFFFF" d="M506.283,331.861l-35.669-18.604c-5.205-2.667-11.669-0.703-14.4,4.523
			c-2.73,5.227-0.704,11.669,4.523,14.4l17.536,9.151L256,457.323L33.728,341.333l17.557-9.131c5.227-2.731,7.253-9.173,4.523-14.4
			c-2.731-5.227-9.195-7.211-14.4-4.522L5.739,331.883C2.219,333.717,0,337.344,0,341.333s2.219,7.616,5.739,9.451l245.333,128
			c1.536,0.811,3.243,1.216,4.928,1.216c1.686,0,3.393-0.405,4.928-1.216l245.333-128c3.521-1.835,5.739-5.461,5.739-9.451
			C512,337.344,509.781,333.717,506.283,331.861z"/>
	</g>
</g>
</svg>
