<?xml version="1.0" encoding="utf-8"?>
<!-- Generator: Adobe Illustrator 16.0.0, SVG Export Plug-In . SVG Version: 6.00 Build 0)  -->
<!DOCTYPE svg PUBLIC "-//W3C//DTD SVG 1.1//EN" "http://www.w3.org/Graphics/SVG/1.1/DTD/svg11.dtd">
<svg version="1.1" id="Capa_1" xmlns="http://www.w3.org/2000/svg" xmlns:xlink="http://www.w3.org/1999/xlink" x="0px" y="0px"
	 width="512px" height="512px" viewBox="0 0 512 512" enable-background="new 0 0 512 512" xml:space="preserve">
<g>
	<g>
		<path fill="#FFFFFF" d="M345.044,200.348c6.144,0,11.131-4.987,11.131-11.131V55.652C356.174,24.977,331.22,0,300.521,0H55.652
			C24.955,0,0,24.977,0,55.652v400.696c0,30.675,24.955,55.651,55.652,55.651h244.87c30.698,0,55.652-24.977,55.652-55.651V322.782
			c0-6.144-4.987-11.131-11.131-11.131c-6.145,0-11.13,4.987-11.13,11.131v133.565c0,18.409-14.981,33.391-33.392,33.391H55.652
			c-18.41,0-33.391-14.981-33.391-33.391V55.652c0-18.41,14.981-33.391,33.391-33.391h244.87c18.41,0,33.392,14.981,33.392,33.391
			v133.565C333.913,195.361,338.899,200.348,345.044,200.348z"/>
	</g>
</g>
<g>
	<g>
		<path fill="#FFFFFF" d="M500.869,244.87H144.696c-6.144,0-11.131,4.987-11.131,11.131s4.987,11.13,11.131,11.13h356.173
			c6.145,0,11.131-4.987,11.131-11.131S507.014,244.87,500.869,244.87z"/>
	</g>
</g>
<g>
	<g>
		<path fill="#FFFFFF" d="M508.728,248.164l-66.782-66.783c-4.341-4.341-11.398-4.341-15.739,0s-4.341,11.398,0,15.739
			l58.902,58.902l-58.902,58.902c-4.341,4.341-4.341,11.397,0,15.739c2.183,2.158,5.031,3.25,7.881,3.25s5.698-1.091,7.858-3.228
			l66.782-66.782C513.068,259.563,513.068,252.505,508.728,248.164z"/>
	</g>
</g>
</svg>
