<svg id="SvgjsSvg1043" width="288" height="288" xmlns="http://www.w3.org/2000/svg" version="1.1" xmlns:xlink="http://www.w3.org/1999/xlink" xmlns:svgjs="http://svgjs.com/svgjs"><defs id="SvgjsDefs1044"></defs><g id="SvgjsG1045"><svg xmlns="http://www.w3.org/2000/svg" width="288" height="288" enable-background="new 0 0 512 512" viewBox="0 0 512 512"><path fill="#1f1e1e" d="M256,127.996c-5.888,0-10.667,4.779-10.667,10.667v362.671c0,5.888,4.779,10.667,10.667,10.667
			s10.667-4.779,10.667-10.667V138.662C266.666,132.774,261.888,127.996,256,127.996z" class="colorFFF svgShape"></path><path fill="#1f1e1e" d="M262.314,2.064c-3.755-2.752-8.875-2.752-12.629,0C243.414,6.651,95.998,115.772,95.998,202.663
			c0,88.235,71.766,160.001,160.001,160.001s160.001-71.766,160.001-160.001C416.001,115.772,268.586,6.672,262.314,2.064z
			 M256,341.332c-76.46,0-138.668-62.209-138.668-138.669c0-66.881,110.764-156.973,138.668-178.605
			c27.905,21.632,138.668,111.66,138.668,178.605C394.668,279.123,332.459,341.332,256,341.332z" class="colorFFF svgShape"></path></svg></g></svg>