<?xml version="1.0" standalone="no"?>
<!DOCTYPE svg PUBLIC "-//W3C//DTD SVG 20010904//EN"
 "http://www.w3.org/TR/2001/REC-SVG-20010904/DTD/svg10.dtd">
<svg version="1.0" xmlns="http://www.w3.org/2000/svg"
 width="900.000000pt" height="900.000000pt" viewBox="0 0 900.000000 900.000000"
 preserveAspectRatio="xMidYMid meet">

<g transform="translate(0.000000,900.000000) scale(0.100000,-0.100000)"
fill="#000000" stroke="none">
<path d="M4283 7947 c-133 -227 -325 -556 -428 -732 -104 -176 -220 -376 -260
-445 -40 -69 -110 -188 -155 -265 -91 -155 -774 -1323 -880 -1505 -78 -134
-187 -321 -360 -615 -154 -263 -281 -479 -678 -1160 -173 -297 -343 -587 -377
-645 -34 -58 -93 -159 -132 -225 -39 -66 -110 -187 -158 -270 -92 -157 -523
-895 -726 -1243 -66 -111 -119 -205 -119 -208 0 -4 296 -4 657 -1 362 4 2383
7 4491 7 2107 0 3832 4 3832 8 0 5 -145 258 -321 563 -472 813 -1457 2513
-1724 2974 -127 220 -331 571 -452 780 -121 209 -245 423 -275 475 -52 90
-228 393 -1023 1765 -191 330 -415 717 -498 860 -82 143 -155 268 -162 277
-10 15 -47 -44 -252 -395z m797 -3751 c303 -506 567 -944 586 -973 19 -29 34
-55 34 -58 0 -2 50 -86 111 -187 62 -101 140 -230 174 -288 34 -58 112 -188
174 -290 61 -101 111 -188 111 -192 0 -4 -790 -8 -1755 -8 -965 0 -1755 2
-1755 5 0 4 424 715 925 1550 23 39 208 347 410 685 440 735 415 694 425 684
4 -5 256 -423 560 -928z"/>
</g>
</svg>
