<?xml version="1.0" encoding="utf-8"?>
<!-- Svg Vector Icons : http://www.onlinewebfonts.com/icon -->
<!DOCTYPE svg PUBLIC "-//W3C//DTD SVG 1.1//EN" "http://www.w3.org/Graphics/SVG/1.1/DTD/svg11.dtd">
<svg version="1.1" xmlns="http://www.w3.org/2000/svg" xmlns:xlink="http://www.w3.org/1999/xlink" x="0px" y="0px" viewBox="0 0 1000 1000" enable-background="new 0 0 1000 1000" xml:space="preserve">
<metadata> Svg Vector Icons : http://www.onlinewebfonts.com/icon </metadata>
<g><path d="M990,622.8c0,96.1-61.6,177.1-147,207.5v13.5H206v-2.5C95.9,829,10,736.5,10,622.8C10,509,96.1,416.4,206.3,404.2c0-0.8-0.3-1.6-0.3-2.4c0-135.7,131.6-245.6,294-245.6s294,110,294,245.6c0,0.8-0.3,1.6-0.3,2.4C903.9,416.4,990,509,990,622.8z M892,598.3c0-54.3-43.9-98.3-98-98.3h-98v-98.3c0-81.4-65.8-147.4-147-147.4h-98c-81.2,0-147,66-147,147.4V500h-98c-54.1,0-98,44-98,98.3v49.1c0,54.3,43.9,98.3,98,98.3h245h98h245c54.1,0,98-44,98-98.3V598.3z M696,696.5H549c-27.1,0-49-22-49-49.1c0-27.1,21.9-49.1,49-49.1h147c27.1,0,49,22,49,49.1C745,674.5,723.1,696.5,696,696.5z M402,696.5h-49c-27.1,0-49-22-49-49.1c0-27.1,21.9-49.1,49-49.1h49c27.1,0,49,22,49,49.1C451,674.5,429.1,696.5,402,696.5z"/></g>
</svg>