<?xml version="1.0" standalone="no"?>
<!DOCTYPE svg PUBLIC "-//W3C//DTD SVG 20010904//EN"
 "http://www.w3.org/TR/2001/REC-SVG-20010904/DTD/svg10.dtd">
<svg version="1.0" xmlns="http://www.w3.org/2000/svg"
 width="64.000000pt" height="64.000000pt" viewBox="0 0 64.000000 64.000000"
 preserveAspectRatio="xMidYMid meet">
<metadata>
Created by potrace 1.16, written by Peter Selinger 2001-2019
</metadata>
<g transform="translate(0.000000,64.000000) scale(0.100000,-0.100000)"
fill="#000000" stroke="none">
<path d="M214 630 c-86 -27 -181 -126 -205 -213 -17 -64 -7 -194 20 -245 28
-54 88 -115 143 -144 37 -20 58 -23 148 -23 120 0 160 15 230 85 70 70 85 110
85 230 0 120 -15 160 -85 230 -64 64 -111 83 -215 87 -49 1 -104 -2 -121 -7z
m184 -170 c25 -15 32 -27 32 -50 0 -60 -52 -51 -83 13 -19 40 -32 45 -62 23
-24 -17 -33 -135 -15 -190 24 -74 94 -85 132 -21 32 56 53 43 23 -15 -20 -38
-63 -60 -118 -60 -84 0 -147 69 -147 161 0 119 138 200 238 139z"/>
</g>
</svg>
