<?xml version="1.0" encoding="utf-8"?>
<!-- Generator: Adobe Illustrator 16.0.0, SVG Export Plug-In . SVG Version: 6.00 Build 0)  -->
<!DOCTYPE svg PUBLIC "-//W3C//DTD SVG 1.1//EN" "http://www.w3.org/Graphics/SVG/1.1/DTD/svg11.dtd">
<svg version="1.1" xmlns="http://www.w3.org/2000/svg" xmlns:xlink="http://www.w3.org/1999/xlink" x="0px" y="0px" width="512px"
	 height="512px" viewBox="0 0 512 512" enable-background="new 0 0 512 512" xml:space="preserve">
<g id="Bitcoin" display="none">
	<g display="inline">
		<path fill="#F7931A" d="M256,4c139.167,0,252,112.827,252,252c0,139.167-112.833,252-252,252C116.827,508,4,395.167,4,256
			C4,116.827,116.827,4,256,4z"/>
		<path fill="#FFFFFF" d="M369.235,224.815c4.92-33.015-20.212-50.765-54.572-62.6l11.136-44.728l-27.225-6.783l-10.859,43.543
			c-7.136-1.784-14.488-3.46-21.809-5.129l10.95-43.835L249.64,98.5l-11.159,44.712c-5.921-1.354-11.744-2.684-17.388-4.091
			l0.03-0.139l-37.537-9.374l-7.245,29.077c0,0,20.196,4.629,19.773,4.914c11.028,2.753,13.02,10.051,12.681,15.834l-12.697,50.949
			c0.762,0.193,1.746,0.477,2.83,0.908c-0.907-0.223-1.876-0.469-2.876-0.715l-17.803,71.382c-1.354,3.354-4.768,8.368-12.474,6.46
			c0.27,0.4-19.788-4.937-19.788-4.937l-13.52,31.161l35.43,8.828c6.591,1.646,13.051,3.384,19.411,5.015l-11.267,45.235
			l27.185,6.783l11.159-44.743c7.429,2,14.643,3.875,21.695,5.63l-11.112,44.543l27.224,6.768l11.26-45.144
			c46.427,8.782,81.326,5.245,96.03-36.745c11.842-33.807-0.585-53.31-25.01-66.015C352.255,260.691,365.65,248.987,369.235,224.815
			L369.235,224.815z M307.033,312.048c-8.428,33.807-65.345,15.535-83.794,10.951l14.95-59.938
			C256.638,267.659,315.816,276.795,307.033,312.048z M315.447,224.331c-7.675,30.746-55.056,15.127-70.421,11.297l13.55-54.356
			C273.95,185.102,323.431,192.254,315.447,224.331z"/>
	</g>
</g>
<g id="Bitcoin_Cash" display="none">
	<g display="inline">
		<path fill="#4CCA47" d="M130,37.762C250.523-31.822,404.652,9.473,474.239,130C543.822,250.522,502.523,404.655,382,474.238
			C261.473,543.825,107.346,502.522,37.762,382C-31.824,261.473,9.473,107.349,130,37.762z"/>
		<path fill="#FFFFFF" d="M338.473,172.376c-12.246-31.052-42.886-33.857-78.561-26.927l-12.72-44.303l-26.969,7.738l12.366,43.139
			c-7.071,2.023-14.276,4.248-21.451,6.462l-12.434-43.438l-26.963,7.734l12.693,44.301c-5.805,1.789-11.513,3.547-17.104,5.151
			l-0.043-0.135l-37.195,10.65l8.264,28.804c0,0,19.806-6.089,19.582-5.631c10.927-3.129,16.3,2.195,18.898,7.373l14.479,50.471
			c0.756-0.214,1.75-0.459,2.904-0.629c-0.896,0.261-1.858,0.532-2.848,0.819l20.273,70.72c0.504,3.581,0.055,9.631-7.573,11.832
			c0.434,0.212-19.604,5.618-19.604,5.618l3.872,33.746l35.097-10.069c6.531-1.87,12.994-3.595,19.318-5.363l12.86,44.809
			l26.935-7.718l-12.707-44.328c7.434-1.983,14.618-3.966,21.603-5.972l12.647,44.131l26.961-7.75l-12.82-44.727
			c44.598-15.607,73.053-36.12,64.792-79.837c-6.648-35.198-27.161-45.875-54.667-44.666
			C341.705,211.936,347.454,195.102,338.473,172.376L338.473,172.376z M328.221,279.022c9.604,33.491-48.822,46.126-67.092,51.381
			l-17.023-59.383C262.383,265.778,318.201,244.101,328.221,279.022z M291.648,198.851c8.727,30.464-40.115,40.628-55.338,44.994
			l-15.442-53.849C236.097,185.625,282.524,167.08,291.648,198.851z"/>
	</g>
</g>
<g id="Etherium" display="none">
	<g display="inline">
		<path fill="#627EEA" d="M256,4c139.166,0,252,112.826,252,252c0,139.166-112.834,252-252,252C116.826,508,4,395.166,4,256
			C4,116.826,116.826,4,256,4z"/>
		<g transform="translate(9 4)">
			<polygon fill="#FFFFFF" fill-opacity="0.602" points="254.844,63 254.844,202.704 372.923,255.461 			"/>
			<polygon fill="#FFFFFF" points="254.844,63 136.75,255.461 254.844,202.704 			"/>
			<polygon fill="#FFFFFF" fill-opacity="0.602" points="254.844,345.992 254.844,440.923 373,277.455 			"/>
			<polygon fill="#FFFFFF" points="254.844,440.923 254.844,345.977 136.75,277.455 			"/>
			<polygon fill="#FFFFFF" fill-opacity="0.2" points="254.844,324.028 372.923,255.461 254.844,202.735 			"/>
			<polygon fill="#FFFFFF" fill-opacity="0.602" points="136.75,255.461 254.844,324.028 254.844,202.735 			"/>
		</g>
	</g>
</g>
<g id="Ripple" display="none">
	<g display="inline">
		<path fill="#00AAE4" d="M256,4c139.166,0,252,112.826,252,252c0,139.166-112.834,252-252,252C116.826,508,4,395.166,4,256
			C4,116.826,116.826,4,256,4z"/>
		<path fill="#FFFFFF" d="M349.885,290.73c-10.874-6.43-23.117-8.291-35.253-8.736c-10.167-0.354-25.348-7.029-25.348-25.994
			c0-14.127,11.182-25.494,25.363-26.001c12.136-0.438,24.363-2.299,35.237-8.729c26.979-15.965,38.883-49.473,28.239-79.473
			c-10.675-30.008-40.821-47.834-71.506-42.29c-30.685,5.545-53.071,32.861-53.063,64.792c0,12.743,4.414,24.471,10.074,35.353
			c4.737,9.151,7.137,26.132-9.144,35.768c-12.112,7.167-27.239,2.63-34.792-9.751c-6.375-10.467-14.081-20.264-24.863-26.64
			c-26.993-15.965-61.27-9.774-81.303,14.681c-20.034,24.463-20.034,60.131,0,84.586c20.033,24.456,54.31,30.639,81.303,14.674
			c10.782-6.367,18.48-16.165,24.855-26.609c5.237-8.598,18.319-19.533,34.799-9.781c12.097,7.167,15.85,22.855,9.144,35.775
			c-5.66,10.89-10.074,22.609-10.074,35.346c0,31.93,22.379,59.246,53.063,64.783c30.685,5.553,60.831-12.273,71.506-42.281
			C388.768,340.21,376.863,306.695,349.885,290.73z"/>
	</g>
</g>
<g id="Layer_4" display="none">
	<g display="inline">
		<path fill="#1C75BC" d="M256,4c139.166,0,252,112.826,252,252c0,139.166-112.834,252-252,252C116.826,508,4,395.166,4,256
			C4,116.826,116.826,4,256,4z"/>
		<path fill="#FFFFFF" d="M104.499,235.297H226.3l-15.597,46.511H88.603L104.499,235.297z M161.2,158.201c0,0,176.411,0,225.906,0
			s35.392,50.103,35.392,50.103h-71.69H145.296L161.2,158.201z M96.4,358.898l16.196-50.096h205.204h72.598
			c0,0-19.796,50.096-66.907,50.096C276.395,358.898,96.4,358.898,96.4,358.898z M350.808,208.304h71.69l-32.1,100.499H318.4
			L350.808,208.304z"/>
	</g>
</g>
<g id="Litecoin" display="none">
	<g display="inline">
		<path fill="#CBC6C6" d="M256,4c139.166,0,252,112.834,252,252S395.166,508,256,508C116.826,508,4,395.166,4,256S116.826,4,256,4z"
			/>
		<polygon fill="#FFFFFF" points="168.222,306.618 145.75,315.34 156.586,271.889 179.326,262.768 212.103,130 292.883,130 
			268.966,227.576 291.16,218.594 280.455,261.906 257.984,270.889 244.626,325.768 366.25,325.768 352.5,382 149.718,382 		"/>
	</g>
</g>
<g id="Layer_7" display="none">
	<g id="Layer_8" display="inline">
		<path fill="#00BFA5" d="M256,4c139.166,0,252,112.826,252,252c0,139.166-112.834,252-252,252C116.826,508,4,395.166,4,256
			C4,116.826,116.826,4,256,4z"/>
	</g>
	<path display="inline" fill-rule="evenodd" clip-rule="evenodd" fill="#FFFFFF" d="M452.888,221.293
		c-3.817,3.297-13.657,0.506-19.825,1.431c-5.397-47.026-74.313-62.559-114.679-38.656
		c-61.912,36.662-42.769,163.833,50.969,154.625c34.29-3.365,55.976-21.671,65.13-58.699c7.075,0,14.154,0,21.237,0
		c-4.763,19.443-10.224,35.197-22.657,48.682c-37.174,40.298-124.896,37.347-152.906-8.593c0,10.023,0,20.045,0,30.065
		c-6.135,0-12.269,0-18.406,0c0.022-63.503-0.028-134.541,0-193.283c6.138,0,12.271,0,18.406,0c0,11.454,0,22.908,0,34.362
		C310.275,138.6,447.004,139.375,452.888,221.293z"/>
	<path display="inline" fill-rule="evenodd" clip-rule="evenodd" fill="#FFFFFF" d="M76.305,157.938
		c-0.007,0.122-0.022,0.236-0.024,0.363v190.418h22.654V157.938H76.305z"/>
	
		<rect x="119.698" y="156.864" display="inline" fill-rule="evenodd" clip-rule="evenodd" fill="#FFFFFF" width="125.063" height="80.176"/>
	
		<rect x="118.989" y="255.413" display="inline" fill-rule="evenodd" clip-rule="evenodd" fill="#FFFFFF" width="125.063" height="93.541"/>
</g>
<g id="Layer_9" display="none">
	<path display="inline" fill="#00A0D8" d="M256,4c139.166,0,252,112.826,252,252c0,139.166-112.834,252-252,252
		C116.826,508,4,395.166,4,256C4,116.826,116.826,4,256,4z"/>
	<g>
		<ellipse display="inline" fill="#00A0D8" cx="256" cy="260" rx="185.24" ry="169.491"/>
		<g display="inline">
			<ellipse cx="317.129" cy="207.907" rx="77.334" ry="72"/>
			<ellipse cx="223.697" cy="297.4" rx="45.284" ry="42.161"/>
			<ellipse cx="160.511" cy="351.401" rx="28.099" ry="26.16"/>
		</g>
	</g>
	<path display="inline" fill="#FFFFFF" d="M256,106.285c-92.882,0-168.178,68.894-168.178,153.878
		c0,84.985,75.296,153.879,168.178,153.879c92.882,0,168.176-68.894,168.176-153.879C424.177,175.178,348.883,106.285,256,106.285z
		 M169.307,366.896c-14.089,0-25.51-10.634-25.51-23.751c0-13.116,11.421-23.751,25.51-23.751c14.09,0,25.51,10.635,25.51,23.751
		C194.817,356.262,183.397,366.896,169.307,366.896z M226.672,332.396c-22.705,0-41.113-17.137-41.113-38.277
		c0-21.139,18.408-38.276,41.113-38.276c22.707,0,41.112,17.138,41.112,38.276C267.784,315.259,249.379,332.396,226.672,332.396z
		 M311.498,278.236c-38.776,0-70.21-29.266-70.21-65.368c0-36.101,31.434-65.368,70.21-65.368s70.211,29.267,70.211,65.368
		C381.709,248.971,350.274,278.236,311.498,278.236z"/>
</g>
<g id="Layer_10" display="none">
	<path display="inline" fill="#3CB054" d="M256,4c139.166,0,252,112.826,252,252c0,139.166-112.834,252-252,252
		C116.826,508,4,395.166,4,256C4,116.826,116.826,4,256,4z"/>
	<g display="inline">
		<path fill-rule="evenodd" clip-rule="evenodd" fill="#FFFFFF" d="M221.539,150.505c8.233,1.588,16.03,2.733,23.633,4.65
			c9.105,2.296,17.682,6.026,24.324,12.99c9.441,9.897,11.363,22.139,10.102,35.107c-1.182,12.142-7.293,21.284-17.854,27.43
			c-0.498,0.29-0.945,0.669-1.629,1.159c4.484,1.708,8.699,3.313,13.527,5.152c-13.771,9.438-22.512,21.824-27.499,37.718
			c-0.689-2.379-1.046-4.095-1.679-5.702c-2.545-6.473-7.262-10.74-13.672-13.274c-7.589-2.998-15.444-4.807-23.6-4.941
			c-9.282-0.154-18.569-0.035-28.1-0.035c0,17.294,0,34.647,0,52.283c7.64,0,15.298,0.269,22.929-0.067
			c9.722-0.429,19.394-1.524,28.484-5.416c4.747-2.032,9.174-4.525,12.27-9.073c-1.495,13.651-1.497,27.208,1.054,41.301
			c-7.433,0.792-14.69,1.562-22.243,2.365c0,13.052,0,26.115,0,39.345c-8.146,0-15.99,0-24.239,0c0-12.921,0-25.756,0-38.857
			c-6.399,0-12.401,0-18.739,0c0,12.737,0,25.588,0,38.731c-8.138,0-15.952,0-24.169,0c0-12.906,0-25.949,0-39.463
			c-16.305,0-32.216,0-48.471,0c1.402-8.36,2.669-16.211,4.049-24.041c0.854-4.837,0.93-4.822,5.816-4.823
			c3.994,0,7.989,0.039,11.982-0.01c6.046-0.074,9.423-3.321,9.429-9.294c0.037-34.924,0.034-69.849,0.004-104.772
			c-0.007-6.236-4.165-10.934-10.32-11.8c-1.714-0.241-3.466-0.272-5.202-0.285c-5.104-0.035-10.21-0.013-15.506-0.013
			c0-8.618,0-16.965,0-25.74c15.852,0,31.742,0,47.988,0c0-13.272,0-26.124,0-39.188c8.181,0,16.004,0,24.092,0
			c0,12.659,0,25.212,0,38.025c6.326,0,12.39,0,18.855,0c0-12.73,0-25.26,0-38.013c8.319,0,16.238,0,24.383,0
			C221.539,124.958,221.539,137.837,221.539,150.505z M179.052,226.434c3.344,0,6.594,0.01,9.845-0.002
			c10.158-0.038,20.312-0.47,29.986-3.867c6.72-2.359,12.623-6.1,14.939-13.433c3.521-11.146-1.844-22.069-12.826-26.457
			c-13.534-5.408-27.667-4.318-41.944-4.098C179.052,194.57,179.052,210.279,179.052,226.434z"/>
		<path fill-rule="evenodd" clip-rule="evenodd" fill="#FFFFFF" d="M410.551,281.01c-14.859,3.302-29.297,6.509-43.859,9.745
			c-0.465-1.126-0.881-2.039-1.227-2.979c-5.109-13.897-17.084-20.953-31.779-19.479c-16.553,1.661-26.016,11.137-30.523,26.394
			c-5.104,17.271-3.924,33.754,5.539,49.607c9.945,16.659,42.805,22.625,55.352-3.335c1.85-3.828,3.119-7.935,4.791-12.26
			c14.24,4.3,28.582,8.629,43.188,13.039c-1.771,8.274-4.688,15.94-8.746,23.174c-10.582,18.866-26.982,29.49-47.941,33.367
			c-18.314,3.387-36.381,2.04-53.68-4.926c-19.906-8.017-32.816-23.421-40.059-42.95c-9.126-24.612-8.646-49.85,0.16-74.563
			c6.838-19.191,20.65-32.387,39.268-39.991c24.434-9.981,49.105-9.87,73.289,1.195C393.258,245.712,404.076,261.324,410.551,281.01
			z"/>
	</g>
</g>
<g id="Layer_11">
	<path fill="#00243D" d="M256,4c139.166,0,252,112.826,252,252c0,139.166-112.834,252-252,252C116.826,508,4,395.166,4,256
		C4,116.826,116.826,4,256,4z"/>
	<path fill-rule="evenodd" clip-rule="evenodd" fill="#FEFEFE" d="M182.458,167.11c0.041-0.477,0.08-0.953,0.121-1.429
		c3.924-4.305,8.835-7.368,13.512-10.728c3.73-2.643,7.46-5.287,11.19-7.93c2.833-2.039,4.455-5.945,8.774-5.693
		c3.438-1.759,6.121-4.487,8.978-6.991c1.706,0.287,2.212-1.904,3.807-1.845c0.901-0.821,2.02-0.83,3.136-0.855
		c8.283,1.313,16.57,2.647,24.781,4.36c4.396,0.917,8.232,0.665,12.148-1.917c2.929-1.929,5.813-4.353,9.626-4.592
		c5.296-4.401,10.932-2.276,16.546-0.894c1.409,0.347,2.864,0.517,4.299,0.769c7.458,0.221,14.626,1.813,21.547,4.577
		c5.046,3.88,10.697,6.929,15.513,11.142c1.358,1.753,2.322,3.758,3.521,5.615c1.042,1.688,2.218,3.292,3.183,5.028
		c1.97,3.426,4.146,6.728,6.052,10.191c0.125,0.341,0.174,0.694,0.157,1.056c-0.35,1.586-1.467,2.769-2.194,4.159
		c-0.244,0.454-0.503,0.9-0.766,1.345c-0.833,1.3-1.686,2.591-2.363,3.987c-0.978,1.498-1.858,3.051-2.687,4.638
		c-1.993,2.789-3.239,6.106-5.951,8.386c-1.759,1.303-4,0.844-5.901,1.636c-8.369,1.986-16.764,3.86-25.141,5.815
		c-2.816,0.223-4.457-1.254-5.461-3.72c-0.905-2.215-1.773-4.443-2.69-6.651c-1.093-5.891-4.857-8.485-10.625-8.617
		c-0.265-0.006-0.549-0.009-0.79-0.095c-11.327-3.998-21.069,0.636-30.666,5.734c-5.756,3.057-11.328,6.456-17.002,9.664
		c-2.224,1.257-3.216,2.966-3.156,5.507c0.107,4.52-1.245,8.97-0.729,13.523c0.025,1.969,0.083,3.937-0.171,5.895
		c-0.883,2.712-0.503,5.538-0.72,8.308c-0.11,1.48-0.74,2.738-1.677,3.859c-0.452,0.595-0.89,1.206-1.314,1.824
		c-1.131,1.38-2.419,2.639-3.324,4.204c-2.669,2.944-5.096,6.095-7.696,9.096c-1.623,1.872-1.743,3.623-0.411,5.746
		c1.408,2.243,2.992,4.377,4.248,6.715c0.495,0.952,1.092,1.846,1.713,2.721c1.627,2.563,3.333,5.078,4.847,7.714
		c1.383,2.09,2.703,4.218,3.977,6.375c0.812,1.406,1.983,2.62,2.315,4.287c0.044,0.938-0.267,1.806-0.53,2.681
		c-0.288,0.871-0.59,1.737-0.849,2.618c-0.285,0.911-0.56,1.824-0.797,2.75c-2.413,4.99-0.061,8.429,2.922,12.508
		c5.087,6.961,11.47,9.999,19.854,10.681c7.013,0.567,14.016,1.806,20.924,3.259c5.111,1.075,9.993,0.881,14.96-0.652
		c3.816-1.178,7.695-2.414,11.64-2.854c7.009-0.782,11.692-4.635,15.347-10.23c0.754-0.999,1.396-2.108,2.557-2.725
		c1.497-0.601,2.914-0.211,4.321,0.342c4.778,1.975,9.611,3.816,14.449,5.641c1.933,0.731,3.608,1.709,4.144,3.91
		c0.361,1.138,0.508,2.33,0.889,3.467c0.498,2.086,0.974,4.179,1.571,6.24c0.294,1.134,0.466,2.298,0.845,3.411
		c0.398,1.731,0.894,3.44,1.253,5.181c0.962,3.461,1.72,6.974,2.672,10.436c0.181,0.564,0.312,1.143,0.417,1.726
		c0.519,2.475,1.47,4.831,1.98,7.311c0.158,0.787,0.146,1.562-0.198,2.305c-0.782,1.169-2.131,1.563-3.198,2.34
		c-1.383,0.914-2.893,1.61-4.32,2.449c-3.077,2.02-6.527,3.392-9.551,5.505c-3.033,1.454-5.966,3.093-8.803,4.902
		c-4.22,2.611-8.801,4.573-12.961,7.287c-2.256,1.387-4.838,1.791-7.334,2.46c-4.526,1.334-9.114,2.452-13.577,4.017
		c-4.069,1.374-8.178,2.554-12.512,2.699c-1.478-0.059-2.945-0.025-4.366,0.464c-5.906,0.218-11.573,1.633-17.18,3.365
		c-1.541,0.478-3.113,0.922-4.697,0.378c-5.91-2.024-12.096-3.209-17.803-5.846c-1.492-0.978-3.229-1.384-4.866-2.02
		c-3.8-1.851-6.973-4.461-9.487-7.865c-1.125-1.823-2.651-3.243-4.465-4.369c-0.881-0.656-1.563-1.492-2.187-2.382
		c-1.758-2.837-4.81-4.327-7-6.712c-2.792-3.022-7-3.149-10.339-5.053c-4.251-2.076-9.109-2.403-13.308-4.622
		c-2.175-0.952-4.709-0.982-6.638-2.571c-1.633-1.368-2.644-3.094-2.978-5.205c-0.514-3.144-2.859-5.635-3.19-8.847
		c-0.437-3.116-2.12-5.805-3.025-8.759c-1.224-2.67-2.405-5.354-3.153-8.204c-0.574-3.313-2.145-6.274-3.322-9.374
		c-0.75-3.468-3.487-6.111-4.035-9.665c-0.537-2.458-1.432-4.806-2.286-7.162c-1.199-2.638-2.39-5.278-3.112-8.096
		c-0.367-1.852-0.983-3.63-1.585-5.409c-0.495-1.764-1.123-3.474-2.086-5.045c-0.298-0.68-0.447-1.401-0.604-2.119
		c-0.22-0.896-0.511-1.771-0.807-2.645c-0.392-1.294-0.963-2.534-1.084-3.903c0.072-1.826,1.392-2.776,2.657-3.752
		c1.996-1.543,3.837-3.377,5.95-4.655c4.76-2.878,5.071-7.068,4.235-11.777c-0.326-1.839-0.565-3.673-0.542-5.54
		c-0.033-0.601-0.025-1.203-0.005-1.804c-0.004-1.762,0.187-3.537-0.348-5.266c-0.159-0.575-0.253-1.161-0.307-1.753
		c-0.063-0.591-0.076-1.184-0.075-1.777c-0.014-0.785-0.011-1.572-0.027-2.358c-0.029-0.395-0.026-0.79-0.018-1.185
		c0.042-1.789,0.042-3.574-0.372-5.334c-0.052-0.634,0.047-1.238,0.347-1.803c3.681-3.199,8.382-4.312,12.735-6.08
		c6.794-2.762,6.958-2.783,7.281-10.318c0.051-1.187,0.078-2.374,0.352-3.54c0.774-2.547,0.083-5.23,0.717-7.789
		c0.87-2.833,0.114-5.816,0.787-8.667C181.687,171.522,180.984,169.052,182.458,167.11z"/>
</g>
</svg>
