<?xml version="1.0" encoding="UTF-8" standalone="no"?>
<svg
   xmlns:dc="http://purl.org/dc/elements/1.1/"
   xmlns:cc="http://creativecommons.org/ns#"
   xmlns:rdf="http://www.w3.org/1999/02/22-rdf-syntax-ns#"
   xmlns:svg="http://www.w3.org/2000/svg"
   xmlns="http://www.w3.org/2000/svg"
   xmlns:sodipodi="http://sodipodi.sourceforge.net/DTD/sodipodi-0.dtd"
   xmlns:inkscape="http://www.inkscape.org/namespaces/inkscape"
   id="svg"
   version="1.1"
   width="400"
   height="439.17241379310343"
   viewBox="0 0 400 439.17241379310343"
   sodipodi:docname="DIAM.svg"
   inkscape:version="0.92.3 (2405546, 2018-03-11)">
  <metadata
     id="metadata34">
    <rdf:RDF>
      <cc:Work
         rdf:about="">
        <dc:format>image/svg+xml</dc:format>
        <dc:type
           rdf:resource="http://purl.org/dc/dcmitype/StillImage" />
      </cc:Work>
    </rdf:RDF>
  </metadata>
  <defs
     id="defs32" />
  <sodipodi:namedview
     pagecolor="#ffffff"
     bordercolor="#666666"
     borderopacity="1"
     objecttolerance="10"
     gridtolerance="10"
     guidetolerance="10"
     inkscape:pageopacity="0"
     inkscape:pageshadow="2"
     inkscape:window-width="1920"
     inkscape:window-height="1003"
     id="namedview30"
     showgrid="false"
     inkscape:zoom="1.8443781"
     inkscape:cx="164.33265"
     inkscape:cy="175.29733"
     inkscape:window-x="-9"
     inkscape:window-y="-9"
     inkscape:window-maximized="1"
     inkscape:current-layer="layer2" />
  <g
     inkscape:groupmode="layer"
     id="layer1"
     inkscape:label="Layer 1"
     style="display:inline">
    <ellipse
       id="path160"
       cx="200"
       cy="219.58621"
       rx="198.98306"
       ry="194.64555"
       style="stroke-width:1.06133902;fill:#ffffff" />
  </g>
  <g
     inkscape:groupmode="layer"
     id="layer2"
     inkscape:label="Layer 2">
    <g
       id="svgg"
       transform="matrix(0.71568361,0,0,0.71568361,51.998943,64.478368)"
       style="fill:#000000;stroke:none">
      <path
         id="path0"
         d="m 202.4,18.769 c 0,0.203 -0.63,0.577 -1.4,0.831 -0.77,0.254 -1.4,0.628 -1.4,0.831 0,0.203 -0.261,0.369 -0.58,0.369 -0.319,0 -0.724,0.245 -0.9,0.543 -0.176,0.299 -0.992,0.762 -1.814,1.03 -0.822,0.267 -1.6,0.655 -1.728,0.862 -0.128,0.208 -0.805,0.641 -1.505,0.963 -1.453,0.669 -2.595,1.378 -3.385,2.102 -0.3,0.275 -0.789,0.5 -1.088,0.5 -0.299,0 -0.781,0.236 -1.071,0.524 -0.477,0.472 -1.603,1.119 -4.226,2.428 -0.493,0.247 -0.898,0.583 -0.9,0.748 -0.002,0.165 -0.262,0.3 -0.579,0.3 -0.629,0 -1.233,0.724 -0.891,1.066 0.117,0.117 1.17,-0.398 2.34,-1.146 1.17,-0.747 2.937,-1.788 3.927,-2.313 0.99,-0.525 2.88,-1.646 4.2,-2.49 1.32,-0.844 3.075,-1.828 3.9,-2.186 0.825,-0.359 1.5,-0.805 1.5,-0.992 0,-0.186 0.257,-0.339 0.571,-0.339 0.315,0 0.81,-0.233 1.1,-0.517 0.291,-0.284 1.114,-0.756 1.829,-1.048 0.715,-0.293 1.3,-0.687 1.3,-0.876 0,-1.231 2.145,-0.721 5.676,1.351 2.048,1.201 4.129,2.31 4.624,2.464 0.495,0.154 0.9,0.412 0.9,0.574 0,0.161 1.215,0.914 2.7,1.673 1.485,0.758 2.79,1.469 2.9,1.579 0.599,0.599 13.541,8 13.989,8 0.226,0 0.411,0.162 0.411,0.361 0,0.198 0.495,0.565 1.1,0.816 0.605,0.25 1.82,0.89 2.7,1.422 0.88,0.533 2.14,1.245 2.8,1.584 0.66,0.338 1.74,0.971 2.4,1.406 1.722,1.135 3.828,2.305 5.1,2.833 0.605,0.251 1.1,0.619 1.1,0.817 0,0.199 0.173,0.361 0.384,0.361 0.211,0 1.516,0.718 2.9,1.596 1.384,0.878 2.728,1.598 2.987,1.6 0.26,0.002 0.711,0.243 1.004,0.536 0.597,0.597 2.371,1.607 4.025,2.291 0.605,0.25 1.1,0.6 1.1,0.777 0,0.177 0.495,0.521 1.1,0.766 0.605,0.244 1.82,0.879 2.7,1.411 0.88,0.533 2.14,1.25 2.8,1.595 0.66,0.344 1.74,0.981 2.4,1.414 0.66,0.434 1.74,1.067 2.4,1.408 1.853,0.958 3.579,1.98 3.8,2.252 0.11,0.135 0.604,0.372 1.098,0.526 0.493,0.154 1.13,0.494 1.413,0.754 0.562,0.516 4.465,2.674 4.835,2.674 0.684,0 -0.362,-1.168 -1.243,-1.389 -0.572,-0.143 -1.483,-0.609 -2.025,-1.036 -0.542,-0.426 -1.232,-0.775 -1.532,-0.775 -0.3,0 -0.546,-0.162 -0.546,-0.361 0,-0.198 -0.495,-0.562 -1.1,-0.809 -1.64,-0.668 -3.46,-1.768 -3.802,-2.299 -0.167,-0.258 -0.827,-0.584 -1.467,-0.724 -0.64,-0.141 -1.257,-0.498 -1.371,-0.794 -0.113,-0.296 -0.758,-0.659 -1.433,-0.807 -0.675,-0.148 -1.227,-0.418 -1.227,-0.599 0,-0.181 -0.495,-0.53 -1.1,-0.777 -1.389,-0.566 -3.308,-1.679 -4.014,-2.329 -0.298,-0.275 -0.966,-0.606 -1.485,-0.736 -0.519,-0.131 -1.04,-0.491 -1.16,-0.801 -0.119,-0.31 -0.546,-0.564 -0.948,-0.564 -0.403,0 -0.934,-0.201 -1.179,-0.446 -0.539,-0.539 -1.842,-1.31 -3.672,-2.173 -0.747,-0.352 -1.576,-0.858 -1.843,-1.125 -0.266,-0.266 -1.36,-0.928 -2.431,-1.47 -1.071,-0.542 -2.199,-1.22 -2.506,-1.506 -0.307,-0.285 -1.065,-0.621 -1.685,-0.745 -0.619,-0.123 -1.222,-0.475 -1.339,-0.78 -0.117,-0.305 -0.489,-0.555 -0.825,-0.555 -0.337,0 -0.613,-0.199 -0.613,-0.443 0,-0.243 -0.255,-0.345 -0.567,-0.225 -0.312,0.12 -0.666,-0.041 -0.787,-0.357 -0.122,-0.316 -0.497,-0.575 -0.833,-0.575 -0.337,0 -0.613,-0.141 -0.613,-0.314 0,-0.173 -1.035,-0.848 -2.3,-1.5 -1.265,-0.652 -2.39,-1.276 -2.5,-1.387 -0.11,-0.11 -0.74,-0.47 -1.4,-0.799 -0.66,-0.329 -1.29,-0.689 -1.4,-0.799 -0.233,-0.234 -1.075,-0.712 -4.706,-2.673 -1.462,-0.789 -2.864,-1.641 -3.115,-1.892 -0.251,-0.251 -2.059,-1.262 -4.018,-2.246 -1.959,-0.985 -3.705,-2.015 -3.881,-2.29 -0.176,-0.275 -0.581,-0.5 -0.9,-0.5 -0.319,0 -0.58,-0.144 -0.58,-0.32 0,-0.175 -0.63,-0.547 -1.4,-0.826 -0.77,-0.278 -1.4,-0.652 -1.4,-0.831 0,-0.179 -0.585,-0.565 -1.3,-0.858 -0.715,-0.292 -1.538,-0.764 -1.829,-1.048 -0.29,-0.284 -0.785,-0.517 -1.1,-0.517 -0.314,0 -0.571,-0.146 -0.571,-0.325 0,-0.179 -0.63,-0.573 -1.4,-0.875 -0.77,-0.302 -1.4,-0.696 -1.4,-0.875 0,-0.179 -0.45,-0.325 -1,-0.325 -0.55,0 -1,0.166 -1,0.369 M 179.533,31.9 c -0.162,0.364 -2.128,1.517 -3.633,2.13 -0.605,0.247 -1.1,0.597 -1.1,0.778 0,0.182 -0.63,0.538 -1.4,0.792 -0.77,0.254 -1.4,0.614 -1.4,0.799 0,0.186 -0.552,0.459 -1.227,0.607 -0.675,0.148 -1.324,0.522 -1.443,0.832 -0.118,0.309 -0.39,0.562 -0.603,0.562 -0.482,0 -5.948,3.17 -6.623,3.842 -0.273,0.271 -1.023,0.608 -1.666,0.75 -0.644,0.141 -1.264,0.499 -1.378,0.795 -0.113,0.296 -0.743,0.656 -1.4,0.8 -0.656,0.144 -1.293,0.521 -1.414,0.837 -0.122,0.317 -0.497,0.576 -0.833,0.576 -0.337,0 -0.613,0.16 -0.613,0.357 0,0.196 -0.405,0.46 -0.9,0.587 -0.495,0.127 -1.861,0.866 -3.035,1.643 -1.174,0.777 -2.38,1.413 -2.68,1.413 -0.3,0 -0.689,0.236 -0.865,0.523 -0.176,0.288 -0.905,0.76 -1.62,1.049 -0.715,0.289 -1.3,0.662 -1.3,0.83 0,0.168 -0.36,0.399 -0.8,0.514 -0.44,0.115 -0.8,0.403 -0.8,0.64 0,0.409 1.358,-0.239 4.711,-2.248 0.819,-0.491 1.939,-1.117 2.489,-1.392 0.55,-0.275 1.09,-0.613 1.2,-0.751 0.11,-0.139 1.37,-0.883 2.8,-1.655 1.43,-0.771 3.23,-1.785 4,-2.253 0.77,-0.468 1.85,-1.073 2.4,-1.346 0.55,-0.272 1.09,-0.606 1.2,-0.741 0.256,-0.316 2.278,-1.405 3.7,-1.993 0.605,-0.25 1.1,-0.604 1.1,-0.785 0,-0.182 0.63,-0.538 1.4,-0.792 0.77,-0.254 1.4,-0.589 1.4,-0.743 0,-0.155 0.495,-0.498 1.1,-0.762 0.605,-0.264 1.64,-0.836 2.3,-1.27 0.66,-0.434 2.1,-1.259 3.2,-1.833 3.59,-1.874 5.484,-3.392 4.233,-3.392 -0.201,0 -0.426,0.135 -0.5,0.3 m -38,22 c -0.073,0.165 -1.025,0.75 -2.114,1.3 -2.025,1.022 -4.45,2.48 -5.285,3.178 -0.256,0.214 -0.931,0.506 -1.5,0.649 -0.569,0.143 -1.034,0.407 -1.034,0.587 0,0.18 -0.99,0.796 -2.2,1.369 -1.21,0.572 -2.2,1.186 -2.2,1.365 0,0.178 -0.72,0.562 -1.6,0.852 -0.88,0.29 -1.6,0.657 -1.6,0.815 0,0.159 -0.585,0.527 -1.3,0.82 -0.715,0.292 -1.519,0.719 -1.786,0.948 -1.039,0.891 -1.633,1.258 -3.911,2.417 -1.297,0.66 -3.265,1.785 -4.372,2.5 -1.107,0.715 -2.233,1.3 -2.502,1.3 -0.269,0 -0.633,0.236 -0.809,0.523 -0.176,0.288 -0.905,0.76 -1.62,1.049 -0.715,0.289 -1.3,0.669 -1.3,0.845 0,0.176 -0.525,0.435 -1.167,0.576 -0.973,0.214 -2.133,1.407 -1.367,1.407 0.276,0 9.428,-5.248 9.734,-5.582 0.11,-0.12 0.74,-0.498 1.4,-0.84 3.083,-1.599 5.618,-2.998 5.8,-3.2 0.11,-0.122 1.73,-1.075 3.6,-2.118 1.87,-1.043 3.67,-2.061 4,-2.263 0.33,-0.202 3.615,-2.125 7.3,-4.274 3.685,-2.149 6.7,-4.045 6.7,-4.215 0,-0.396 -0.691,-0.402 -0.867,-0.008 m 142.07,11.173 c 0.002,0.352 1.311,1.185 4.797,3.054 1.21,0.649 2.974,1.696 3.92,2.326 0.946,0.631 1.803,1.147 1.903,1.147 0.101,0 3.627,1.995 7.835,4.433 8.639,5.006 8.849,5.111 8.513,4.236 -0.131,-0.341 -0.748,-0.732 -1.371,-0.869 -0.623,-0.137 -1.226,-0.491 -1.34,-0.787 -0.113,-0.296 -0.758,-0.659 -1.433,-0.807 -0.675,-0.148 -1.227,-0.412 -1.227,-0.586 0,-0.174 -1.17,-0.917 -2.6,-1.65 -1.43,-0.734 -2.6,-1.463 -2.6,-1.62 0,-0.158 -0.525,-0.402 -1.167,-0.543 -0.641,-0.141 -1.259,-0.498 -1.373,-0.794 -0.113,-0.296 -0.758,-0.659 -1.433,-0.807 -0.675,-0.148 -1.227,-0.422 -1.227,-0.607 0,-0.186 -1.035,-0.847 -2.3,-1.469 -1.265,-0.621 -2.526,-1.343 -2.802,-1.604 -0.277,-0.26 -0.862,-0.588 -1.3,-0.727 -0.439,-0.139 -0.798,-0.421 -0.798,-0.626 0,-0.205 -0.257,-0.373 -0.571,-0.373 -0.315,0 -0.818,-0.246 -1.119,-0.547 -0.674,-0.674 -2.311,-1.227 -2.307,-0.78 M 202.4,67.157 c 0,0.196 -0.417,0.461 -0.926,0.589 -0.834,0.209 -3.116,1.854 -2.572,1.854 0.123,0 1.126,-0.468 2.227,-1.039 2.108,-1.094 4.186,-1.082 4.611,0.026 0.113,0.296 0.743,0.656 1.4,0.8 0.656,0.144 1.286,0.504 1.4,0.8 0.113,0.296 0.758,0.659 1.433,0.807 0.675,0.148 1.227,0.416 1.227,0.596 0,0.18 0.72,0.683 1.6,1.118 0.88,0.435 1.6,0.637 1.6,0.447 0,-0.189 -0.585,-0.616 -1.3,-0.949 -0.715,-0.332 -1.84,-0.963 -2.5,-1.401 -0.66,-0.438 -1.65,-1.021 -2.2,-1.296 -0.55,-0.275 -1.238,-0.726 -1.528,-1.004 -0.29,-0.277 -0.965,-0.614 -1.5,-0.748 -0.535,-0.134 -0.972,-0.404 -0.972,-0.6 0,-0.197 -0.45,-0.357 -1,-0.357 -0.55,0 -1,0.16 -1,0.357 m -4.933,2.71 c -0.486,0.486 -0.277,0.912 0.333,0.678 0.33,-0.127 0.6,-0.391 0.6,-0.588 0,-0.419 -0.551,-0.473 -0.933,-0.09 m -2.667,1.702 c 0,0.203 -0.63,0.577 -1.4,0.831 -0.77,0.254 -1.4,0.609 -1.4,0.788 0,0.179 -0.45,0.438 -1,0.576 -0.803,0.202 -1.477,1.036 -0.838,1.036 0.258,0 3.617,-1.776 3.838,-2.029 0.11,-0.126 0.515,-0.346 0.9,-0.488 0.746,-0.275 0.97,-1.083 0.3,-1.083 -0.22,0 -0.4,0.166 -0.4,0.369 m 22.4,3.287 c 0,0.23 0.36,0.513 0.8,0.628 0.44,0.115 0.8,0.368 0.8,0.563 0,0.194 0.23,0.353 0.511,0.353 2.022,0 1.889,-8.628 1.889,122.805 0,115.169 0.035,121.193 0.7,121.163 0.418,-0.018 0.499,-0.112 0.2,-0.233 -0.398,-0.161 -0.5,-24.889 -0.5,-121.768 0,-74.544 -0.144,-121.567 -0.371,-121.567 -0.205,0 -0.618,-0.225 -0.919,-0.5 -0.968,-0.885 -3.11,-1.88 -3.11,-1.444 m -29.1,0.432 c -0.92,0.444 -1.22,1.112 -0.5,1.112 0.22,0 0.4,-0.152 0.4,-0.339 0,-0.186 0.405,-0.534 0.9,-0.773 0.495,-0.239 0.72,-0.434 0.5,-0.434 -0.22,0 -0.805,0.195 -1.3,0.434 m -86.571,1.636 c -0.291,0.288 -1.513,1.053 -2.715,1.7 -1.203,0.647 -2.419,1.389 -2.703,1.65 -0.283,0.26 -0.92,0.6 -1.413,0.754 -0.494,0.154 -0.988,0.391 -1.098,0.526 -0.332,0.408 -2.527,1.657 -3.7,2.104 -0.605,0.231 -1.1,0.569 -1.1,0.75 0,0.182 -0.63,0.538 -1.4,0.792 -0.77,0.254 -1.4,0.599 -1.4,0.766 0,0.167 -0.99,0.804 -2.2,1.416 -1.21,0.612 -2.2,1.243 -2.2,1.402 0,0.159 -0.699,0.499 -1.553,0.755 -0.853,0.255 -1.775,0.734 -2.049,1.063 -0.273,0.329 -0.744,0.598 -1.047,0.598 -0.303,0 -0.551,0.16 -0.551,0.357 0,0.196 -0.437,0.466 -0.972,0.6 -0.535,0.134 -1.21,0.471 -1.5,0.748 -0.29,0.278 -0.978,0.733 -1.528,1.012 -1.527,0.775 -3.377,1.857 -3.6,2.106 -0.11,0.122 -0.785,0.459 -1.5,0.748 C 66.585,97.06 66,97.455 66,97.649 66,97.842 65.724,98 65.387,98 c -0.336,0 -0.711,0.259 -0.833,0.575 -0.121,0.316 -0.475,0.477 -0.787,0.357 -0.312,-0.12 -0.567,-0.018 -0.567,0.225 0,0.244 -0.257,0.443 -0.571,0.443 -0.315,0 -0.81,0.233 -1.1,0.517 -0.291,0.284 -1.114,0.756 -1.829,1.048 -0.715,0.293 -1.3,0.69 -1.3,0.884 0,0.193 -0.257,0.351 -0.571,0.351 -0.315,0 -0.855,0.283 -1.2,0.629 -0.346,0.345 -0.632,0.48 -0.635,0.3 -0.003,-0.181 -0.138,-0.145 -0.3,0.079 -0.162,0.225 -0.744,0.633 -1.294,0.908 -0.55,0.275 -1.72,0.938 -2.6,1.473 -0.88,0.535 -1.87,1.103 -2.2,1.263 -0.33,0.159 -0.69,0.393 -0.8,0.519 -0.11,0.126 -0.83,0.546 -1.6,0.934 -0.77,0.387 -1.94,1.06 -2.6,1.495 -0.66,0.436 -1.65,1.015 -2.2,1.288 -0.55,0.272 -1.09,0.604 -1.2,0.736 -0.11,0.132 -0.785,0.495 -1.5,0.806 -0.715,0.311 -1.3,0.668 -1.3,0.793 0,0.125 -0.63,0.475 -1.4,0.777 -0.77,0.302 -1.4,0.676 -1.4,0.831 0,0.155 -0.45,0.395 -1,0.533 -0.589,0.148 -0.997,0.536 -0.994,0.944 0.009,0.948 0.682,1.938 1.061,1.559 0.17,-0.171 0.046,-0.474 -0.277,-0.673 -0.672,-0.415 0.051,-1.135 2.21,-2.199 0.66,-0.325 1.785,-0.952 2.5,-1.393 3.318,-2.047 3.963,-2.419 4.863,-2.811 0.529,-0.23 1.753,-0.953 2.72,-1.605 0.966,-0.652 1.915,-1.186 2.108,-1.186 0.194,0 0.59,-0.227 0.88,-0.505 0.291,-0.277 0.979,-0.737 1.529,-1.021 3.548,-1.831 4.178,-2.195 4.689,-2.705 0.312,-0.313 0.825,-0.569 1.14,-0.569 0.314,0 0.571,-0.166 0.571,-0.369 0,-0.203 0.63,-0.577 1.4,-0.831 0.77,-0.254 1.4,-0.628 1.4,-0.831 0,-0.203 0.225,-0.376 0.5,-0.385 0.275,-0.008 1.49,-0.637 2.7,-1.397 1.21,-0.76 2.695,-1.581 3.3,-1.824 0.605,-0.243 1.1,-0.586 1.1,-0.763 0,-0.177 0.495,-0.517 1.1,-0.755 0.605,-0.238 1.37,-0.606 1.7,-0.817 0.33,-0.211 2.58,-1.512 5,-2.89 2.42,-1.378 4.46,-2.648 4.533,-2.822 0.074,-0.174 0.327,-0.316 0.563,-0.316 0.535,0 8.814,-4.796 9.149,-5.3 0.134,-0.203 0.404,-0.365 0.6,-0.362 0.502,0.009 4.727,-2.424 4.888,-2.814 0.074,-0.178 0.32,-0.324 0.548,-0.324 0.602,0 7.095,-3.745 7.108,-4.1 0.018,-0.49 -1.09,-0.341 -1.66,0.224 M 184.6,77.39 c -0.88,0.542 -1.459,0.991 -1.287,0.998 0.601,0.024 2.992,-1.11 3.262,-1.547 0.434,-0.703 -0.252,-0.513 -1.975,0.549 m -3.411,1.923 c -1.428,0.891 -2.608,1.887 -2.236,1.887 0.532,0 2.247,-0.965 2.247,-1.264 0,-0.185 0.259,-0.336 0.576,-0.336 0.317,0 0.695,-0.192 0.84,-0.427 0.486,-0.785 -0.025,-0.735 -1.427,0.14 M 311.211,81.1 c 0.006,0.165 2.211,1.549 4.9,3.076 2.689,1.527 4.979,2.877 5.089,3 0.11,0.123 1.274,0.764 2.586,1.424 1.313,0.66 2.592,1.386 2.843,1.614 0.251,0.228 1.337,0.858 2.413,1.4 1.077,0.542 2.048,1.085 2.158,1.205 0.498,0.546 4.085,2.429 4.271,2.243 0.405,-0.405 -0.294,-1.004 -1.476,-1.263 -0.657,-0.144 -1.195,-0.426 -1.195,-0.625 0,-0.2 -0.585,-0.632 -1.3,-0.961 -1.477,-0.678 -2.617,-1.384 -3.412,-2.113 -0.3,-0.275 -0.778,-0.5 -1.063,-0.5 -0.284,0 -0.961,-0.349 -1.503,-0.775 -0.542,-0.427 -1.453,-0.893 -2.025,-1.036 -0.571,-0.144 -1.136,-0.515 -1.256,-0.825 -0.119,-0.31 -0.492,-0.564 -0.828,-0.564 -0.337,0 -0.613,-0.16 -0.613,-0.357 0,-0.196 -0.437,-0.466 -0.972,-0.6 -0.535,-0.134 -1.217,-0.469 -1.515,-0.744 -0.59,-0.542 -1.208,-0.911 -4.54,-2.714 -2.347,-1.269 -2.579,-1.35 -2.562,-0.885 m -133.999,0.484 c -0.324,0.205 -0.467,0.495 -0.318,0.644 0.366,0.366 1.506,-0.1 1.506,-0.615 0,-0.508 -0.414,-0.518 -1.188,-0.029 m -2.468,1.603 c -0.68,0.567 -0.773,0.79 -0.333,0.8 0.336,0.007 0.919,-0.347 1.296,-0.787 0.88,-1.027 0.265,-1.036 -0.963,-0.013 m -2.487,1.413 c -0.33,0.33 -0.806,0.6 -1.057,0.6 -0.252,0 -1.3,0.482 -2.329,1.071 -2.339,1.339 -2.26,1.273 -1.916,1.617 0.159,0.159 0.414,0.099 0.567,-0.133 0.153,-0.232 1.478,-0.984 2.944,-1.672 1.467,-0.688 2.782,-1.437 2.924,-1.667 0.391,-0.633 -0.452,-0.496 -1.133,0.184 m -8.057,4.421 c -1.143,0.727 -1.314,0.939 -0.6,0.743 1.033,-0.283 3.182,-1.766 2.554,-1.762 -0.195,0.001 -1.074,0.46 -1.954,1.019 m -3.344,1.792 c -1.062,0.885 -0.964,0.96 0.518,0.397 0.564,-0.215 1.026,-0.575 1.026,-0.8 0,-0.606 -0.484,-0.48 -1.544,0.403 m -2.555,1.551 c -1.106,0.64 -1.444,1.236 -0.701,1.236 0.22,0 0.4,-0.18 0.4,-0.4 0,-0.22 0.259,-0.4 0.576,-0.4 0.543,0 1.269,-0.725 0.964,-0.962 -0.077,-0.06 -0.635,0.177 -1.239,0.526 m -3.489,2.02 c -0.324,0.205 -0.468,0.494 -0.319,0.642 0.148,0.148 0.56,-0.022 0.917,-0.378 0.703,-0.704 0.347,-0.861 -0.598,-0.264 m 181.932,1.629 c 0.52,0.433 1.18,0.787 1.467,0.787 0.287,0 0.582,0.143 0.656,0.318 0.173,0.414 6.567,4.082 7.114,4.082 0.231,0 0.419,0.168 0.419,0.374 0,0.206 0.63,0.602 1.4,0.88 0.77,0.279 1.4,0.612 1.4,0.74 0,0.129 1.035,0.768 2.3,1.42 1.265,0.652 2.39,1.285 2.5,1.405 0.447,0.49 6.704,3.981 7.135,3.981 0.256,0 0.465,0.168 0.465,0.373 0,0.205 0.377,0.493 0.838,0.639 0.46,0.146 1.602,0.782 2.537,1.413 0.935,0.631 2.133,1.336 2.662,1.568 0.53,0.231 1.728,0.852 2.663,1.38 0.935,0.528 1.7,0.815 1.7,0.637 0,-0.179 -0.225,-0.437 -0.5,-0.575 -0.275,-0.138 -1.22,-0.689 -2.1,-1.224 -0.88,-0.535 -2.05,-1.202 -2.6,-1.484 -0.55,-0.281 -1.09,-0.631 -1.2,-0.778 -0.11,-0.147 -1.01,-0.7 -2,-1.228 -0.99,-0.528 -2.25,-1.255 -2.8,-1.614 -0.55,-0.359 -1.482,-0.771 -2.071,-0.916 -0.589,-0.145 -1.168,-0.517 -1.288,-0.827 -0.119,-0.31 -0.492,-0.564 -0.828,-0.564 -0.337,0 -0.613,-0.166 -0.613,-0.369 0,-0.203 -0.63,-0.577 -1.4,-0.831 -0.77,-0.254 -1.4,-0.625 -1.4,-0.823 0,-0.199 -0.45,-0.475 -1,-0.613 -0.55,-0.138 -1,-0.4 -1,-0.581 0,-0.182 -0.63,-0.559 -1.4,-0.837 -0.77,-0.279 -1.4,-0.631 -1.4,-0.783 0,-0.152 -0.437,-0.386 -0.972,-0.52 -0.535,-0.134 -1.21,-0.471 -1.5,-0.748 -0.29,-0.278 -0.978,-0.731 -1.528,-1.008 -0.55,-0.276 -1.72,-0.941 -2.6,-1.476 -0.88,-0.535 -2.05,-1.204 -2.6,-1.487 -0.55,-0.283 -1.238,-0.742 -1.529,-1.019 -0.29,-0.278 -0.83,-0.499 -1.2,-0.492 -0.54,0.011 -0.486,0.168 0.273,0.8 M 152.007,95.896 c -0.326,0.128 -0.815,0.429 -1.086,0.668 -1.141,1.008 -1.587,1.293 -2.821,1.799 -1.232,0.506 -1.764,1.237 -0.9,1.237 0.22,0 0.4,-0.144 0.4,-0.32 0,-0.175 0.63,-0.547 1.4,-0.826 0.77,-0.278 1.4,-0.674 1.4,-0.88 0,-0.206 0.242,-0.374 0.539,-0.374 0.296,0 0.954,-0.36 1.461,-0.8 0.908,-0.788 0.772,-0.962 -0.393,-0.504 m -7.107,4.192 c -0.495,0.239 -0.9,0.587 -0.9,0.773 0,0.562 0.657,0.385 1.656,-0.448 1.029,-0.857 0.669,-1.012 -0.756,-0.325 m 117.9,98.885 c 0,74.268 -0.112,97.827 -0.467,97.827 -0.256,0 -0.372,0.094 -0.257,0.209 1.579,1.579 1.524,5.084 1.524,-97.495 0,-92.414 0.034,-97.185 0.7,-96.911 0.385,0.158 1.06,0.384 1.5,0.501 1.133,0.301 -0.856,-1.286 -2.1,-1.676 l -0.9,-0.282 v 97.827 M 140.621,102.518 c -0.868,0.485 -1.815,1.095 -2.102,1.356 -0.288,0.26 -0.883,0.588 -1.321,0.727 -0.82,0.26 -1.114,0.999 -0.398,0.999 0.22,0 0.4,-0.191 0.4,-0.424 0,-0.233 0.16,-0.325 0.355,-0.204 0.195,0.121 0.577,-0.049 0.849,-0.376 0.272,-0.328 0.742,-0.596 1.045,-0.596 0.303,0 0.551,-0.177 0.551,-0.392 0,-0.216 0.443,-0.504 0.984,-0.64 0.541,-0.135 1.193,-0.499 1.449,-0.807 0.658,-0.793 0.022,-0.668 -1.812,0.357 m 126.179,1.018 c 0,0.325 2.032,1.412 2.364,1.265 0.09,-0.04 0.324,0.213 0.52,0.563 0.196,0.35 0.617,0.636 0.936,0.636 0.319,0 0.58,0.136 0.58,0.302 0,0.167 0.585,0.557 1.3,0.868 0.715,0.311 1.391,0.67 1.501,0.798 0.257,0.296 3.485,2.032 3.778,2.032 0.771,0 -0.011,-0.832 -1.179,-1.254 -0.77,-0.279 -1.4,-0.63 -1.4,-0.78 0,-0.15 -0.315,-0.388 -0.7,-0.529 -0.385,-0.141 -1.42,-0.701 -2.3,-1.244 -0.88,-0.543 -2.185,-1.261 -2.9,-1.596 -0.715,-0.334 -1.3,-0.785 -1.3,-1.002 0,-0.217 -0.27,-0.395 -0.6,-0.395 -0.33,0 -0.6,0.151 -0.6,0.336 m -132.325,2.486 c -0.909,0.364 -2.363,1.578 -1.891,1.578 0.574,0 2.942,-1.157 3.191,-1.559 0.322,-0.521 -0.036,-0.526 -1.3,-0.019 m -3.275,1.929 c 0,0.194 -0.54,0.576 -1.2,0.849 -0.66,0.273 -1.2,0.655 -1.2,0.849 0,0.517 0.666,0.427 1.271,-0.171 0.291,-0.288 0.844,-0.642 1.229,-0.788 0.747,-0.283 0.969,-1.09 0.3,-1.09 -0.22,0 -0.4,0.158 -0.4,0.351 m -4.157,2.663 c -0.338,0.338 -0.666,0.574 -0.729,0.524 -0.063,-0.049 -0.474,0.138 -0.914,0.416 -0.674,0.427 -0.685,0.47 -0.067,0.276 0.403,-0.126 0.87,-0.23 1.039,-0.23 0.168,0 0.721,-0.36 1.228,-0.8 0.507,-0.44 0.728,-0.8 0.49,-0.8 -0.238,0 -0.709,0.276 -1.047,0.614 m 153.159,0.583 c -0.137,0.222 -0.071,0.403 0.146,0.403 0.217,0 0.641,0.246 0.942,0.547 0.301,0.301 0.981,0.685 1.51,0.853 0.89,0.283 0.914,0.256 0.31,-0.347 -0.359,-0.359 -0.833,-0.653 -1.053,-0.653 -0.22,0 -0.671,-0.271 -1.003,-0.603 -0.374,-0.374 -0.698,-0.45 -0.852,-0.2 m -156.759,1.436 c -0.15,0.39 -0.061,0.573 0.232,0.475 0.598,-0.199 0.927,-1.108 0.401,-1.108 -0.215,0 -0.5,0.285 -0.633,0.633 m 59.757,1.023 -1,0.851 1,-0.303 c 0.55,-0.166 1.197,-0.458 1.437,-0.649 0.929,-0.74 0.963,3.609 0.963,122.085 v 121.906 l 0.9,0.281 c 0.495,0.154 0.99,0.392 1.1,0.527 0.677,0.833 5.6,3.271 5.6,2.772 0,-0.22 -0.36,-0.495 -0.8,-0.61 -0.44,-0.115 -0.8,-0.349 -0.8,-0.519 0,-0.171 -0.437,-0.42 -0.972,-0.554 -0.535,-0.134 -1.21,-0.471 -1.5,-0.748 -0.29,-0.278 -1.023,-0.723 -1.627,-0.991 l -1.1,-0.486 -0.1,-122.109 L 186.2,113 l -1,-0.097 c -0.558,-0.054 -1.442,0.278 -2,0.753 m -62.4,0.435 c -0.77,0.483 -1.51,1.036 -1.645,1.228 -0.134,0.192 -0.314,0.317 -0.4,0.278 -0.272,-0.125 -2.535,0.975 -3.084,1.498 -0.29,0.278 -0.695,0.505 -0.9,0.505 -0.204,0 -0.371,0.172 -0.371,0.381 0,0.341 2.3,-0.648 2.8,-1.204 0.11,-0.122 0.785,-0.459 1.5,-0.748 0.715,-0.289 1.3,-0.684 1.3,-0.878 0,-0.193 0.25,-0.351 0.556,-0.351 0.305,0 0.98,-0.354 1.5,-0.787 1.272,-1.06 0.48,-1.01 -1.256,0.078 m 59.656,1.122 c -0.52,0.433 -0.843,0.787 -0.719,0.787 0.545,0 2.263,-0.96 2.263,-1.264 0,-0.534 -0.526,-0.371 -1.544,0.477 M 286,114.69 c 0.33,0.125 0.744,0.471 0.92,0.769 0.176,0.297 0.519,0.541 0.762,0.541 0.243,0 0.116,-0.36 -0.282,-0.8 -0.398,-0.44 -1.011,-0.786 -1.362,-0.768 -0.543,0.026 -0.548,0.065 -0.038,0.258 m -107.6,1.679 c 0,0.203 -0.63,0.577 -1.4,0.831 -0.77,0.254 -1.4,0.61 -1.4,0.792 0,0.181 -0.54,0.518 -1.2,0.748 -0.66,0.23 -1.2,0.611 -1.2,0.847 0,0.236 0.945,-0.125 2.1,-0.803 1.155,-0.678 2.505,-1.43 3,-1.672 0.921,-0.451 1.218,-1.112 0.5,-1.112 -0.22,0 -0.4,0.166 -0.4,0.369 m 110.4,-0.079 c 0.33,0.125 0.744,0.471 0.92,0.769 0.176,0.297 0.581,0.541 0.9,0.541 0.319,0 0.58,0.159 0.58,0.353 0,0.195 0.36,0.448 0.8,0.563 1.319,0.345 0.903,-0.462 -0.551,-1.07 -0.743,-0.31 -1.474,-0.763 -1.624,-1.005 -0.15,-0.243 -0.577,-0.427 -0.949,-0.409 -0.551,0.025 -0.565,0.073 -0.076,0.258 m 83.601,0.01 c 10e-4,0.165 0.54,0.66 1.199,1.1 l 1.198,0.8 10e-4,98.871 0.001,98.871 -2.5,1.457 c -1.375,0.801 -2.77,1.628 -3.1,1.837 -0.33,0.209 -1.14,0.659 -1.8,1 -0.66,0.34 -1.92,1.054 -2.8,1.587 -0.88,0.532 -2.095,1.167 -2.7,1.411 -0.605,0.245 -1.1,0.589 -1.1,0.766 0,0.177 -0.495,0.526 -1.1,0.777 -0.605,0.25 -1.82,0.893 -2.7,1.429 -0.88,0.536 -1.96,1.169 -2.4,1.405 -0.44,0.237 -1.52,0.867 -2.4,1.402 -0.88,0.534 -2.05,1.196 -2.6,1.471 -0.55,0.275 -1.09,0.617 -1.2,0.761 -0.11,0.144 -1.331,0.868 -2.713,1.609 -1.383,0.74 -3.183,1.742 -4,2.225 -0.818,0.484 -1.847,1.073 -2.287,1.31 -0.44,0.236 -1.52,0.866 -2.4,1.4 -0.88,0.533 -1.996,1.151 -2.481,1.373 -0.484,0.222 -1.654,0.895 -2.6,1.497 -0.945,0.601 -2.709,1.623 -3.919,2.269 -1.21,0.647 -2.29,1.292 -2.4,1.433 -0.11,0.14 -0.65,0.478 -1.2,0.749 -2.373,1.173 -6.407,3.539 -6.883,4.038 -0.699,0.732 1.064,0.244 2.483,-0.688 0.55,-0.362 1.45,-0.879 2,-1.151 1.248,-0.616 2.537,-1.428 2.8,-1.764 0.11,-0.14 0.83,-0.547 1.6,-0.903 0.77,-0.356 2.12,-1.092 3,-1.635 0.88,-0.543 1.915,-1.103 2.3,-1.244 0.385,-0.141 0.7,-0.379 0.7,-0.529 0,-0.15 0.63,-0.501 1.4,-0.78 0.77,-0.278 1.4,-0.674 1.4,-0.88 0,-0.206 0.257,-0.374 0.571,-0.374 0.315,0 0.81,-0.233 1.1,-0.517 0.291,-0.284 1.114,-0.756 1.829,-1.048 0.715,-0.293 1.3,-0.671 1.3,-0.84 0,-0.17 0.437,-0.418 0.972,-0.552 0.535,-0.134 1.217,-0.469 1.517,-0.744 0.774,-0.71 1.87,-1.389 3.711,-2.303 2.692,-1.336 5.869,-3.208 6.479,-3.818 0.318,-0.318 0.822,-0.578 1.121,-0.578 0.299,0 0.781,-0.236 1.071,-0.525 0.291,-0.288 1.429,-0.963 2.529,-1.5 1.765,-0.86 3.963,-2.153 5.219,-3.069 0.231,-0.168 1.446,-0.84 2.7,-1.492 1.255,-0.652 2.281,-1.291 2.281,-1.42 0,-0.128 0.63,-0.461 1.4,-0.74 0.77,-0.278 1.4,-0.66 1.4,-0.848 0,-0.188 0.54,-0.461 1.2,-0.606 0.66,-0.145 1.2,-0.417 1.2,-0.605 0,-0.188 0.359,-0.455 0.798,-0.594 2.15,-0.683 2.002,6.748 2.002,-100.368 0,-107.809 0.146,-100.233 -1.931,-100.233 -0.258,0 -0.469,-0.18 -0.469,-0.4 0,-0.22 -0.18,-0.4 -0.4,-0.4 -0.22,0 -0.399,0.135 -0.399,0.3 M 35.2,118.423 c 0,0.178 0.36,0.437 0.8,0.577 0.44,0.14 0.8,0.401 0.8,0.58 0,0.18 0.36,0.421 0.8,0.536 1.369,0.358 0.878,-0.394 -0.8,-1.224 -0.88,-0.435 -1.6,-0.646 -1.6,-0.469 m 258.523,0.957 c 0.341,0.341 0.82,0.62 1.065,0.62 0.244,0 0.932,0.322 1.528,0.716 1.87,1.235 2.644,1.682 3.984,2.297 0.715,0.329 1.3,0.736 1.3,0.905 0,0.324 2.389,1.423 2.9,1.334 0.165,-0.029 0.3,0.128 0.3,0.348 0,0.22 0.18,0.4 0.4,0.4 0.923,0 0.296,-0.786 -1,-1.254 -0.77,-0.279 -1.4,-0.651 -1.4,-0.826 0,-0.176 -0.276,-0.32 -0.613,-0.32 -0.336,0 -0.711,-0.259 -0.833,-0.576 -0.121,-0.316 -0.758,-0.693 -1.414,-0.837 -0.657,-0.144 -1.285,-0.499 -1.396,-0.789 -0.111,-0.289 -0.673,-0.644 -1.248,-0.788 -0.576,-0.145 -1.238,-0.5 -1.471,-0.789 -0.234,-0.289 -0.942,-0.646 -1.573,-0.793 -1.037,-0.242 -1.089,-0.207 -0.529,0.352 m -182.648,0.369 c -0.116,0.301 -0.718,0.675 -1.339,0.831 -0.62,0.156 -1.22,0.416 -1.332,0.578 -0.112,0.162 -1.235,0.879 -2.496,1.593 -2.507,1.42 -3.424,2.327 -1.858,1.838 0.522,-0.163 1.046,-0.445 1.164,-0.627 0.117,-0.181 1.287,-0.898 2.6,-1.591 1.312,-0.694 2.67,-1.511 3.017,-1.816 0.348,-0.305 0.843,-0.555 1.1,-0.555 0.258,0 0.469,-0.18 0.469,-0.4 0,-0.602 -1.083,-0.481 -1.325,0.149 m -72.09,1.026 c 0.127,0.207 1.263,0.96 2.523,1.674 1.261,0.714 2.382,1.413 2.492,1.554 0.11,0.14 0.506,0.368 0.88,0.506 1.133,0.417 0.42,-0.688 -0.791,-1.226 -1.45,-0.645 -3.333,-1.765 -4.003,-2.383 -0.633,-0.583 -1.441,-0.674 -1.101,-0.125 M 170.8,120.753 c 0,0.195 -0.36,0.448 -0.8,0.563 -0.44,0.115 -0.8,0.398 -0.8,0.628 0,0.233 0.53,0.117 1.197,-0.263 1.19,-0.677 1.569,-1.281 0.803,-1.281 -0.22,0 -0.4,0.159 -0.4,0.353 M 168,122.4 c 0,0.22 -0.25,0.4 -0.556,0.4 -0.305,0 -0.98,0.37 -1.5,0.821 l -0.944,0.821 0.981,-0.274 c 0.54,-0.15 1.228,-0.52 1.529,-0.821 0.301,-0.301 0.714,-0.547 0.919,-0.547 0.204,0 0.371,-0.18 0.371,-0.4 0,-0.22 -0.18,-0.4 -0.4,-0.4 -0.22,0 -0.4,0.18 -0.4,0.4 m -4.813,2.811 c -0.514,0.446 -1.351,0.915 -1.861,1.043 -0.509,0.128 -0.926,0.372 -0.926,0.543 0,0.17 -0.36,0.404 -0.8,0.519 -0.44,0.115 -0.797,0.451 -0.794,0.747 0.004,0.367 0.099,0.396 0.3,0.091 0.162,-0.245 0.744,-0.585 1.294,-0.755 0.55,-0.17 1.429,-0.644 1.954,-1.054 0.525,-0.41 1.18,-0.745 1.457,-0.745 0.277,0 0.607,-0.27 0.734,-0.6 0.321,-0.837 -0.252,-0.748 -1.358,0.211 m -116.443,0.402 c 1.243,1.036 2.051,1.023 0.856,-0.013 -0.507,-0.44 -1.12,-0.794 -1.361,-0.787 -0.242,0.008 -0.014,0.368 0.505,0.8 m 53.97,0.187 c -0.809,0.55 -1.661,1 -1.893,1 -0.231,0 -0.421,0.18 -0.421,0.4 0,0.22 -0.257,0.4 -0.571,0.4 -0.315,0 -0.818,0.246 -1.119,0.547 -0.301,0.301 -0.944,0.673 -1.429,0.827 -0.883,0.28 -1.233,1.026 -0.481,1.026 0.22,0 0.4,-0.16 0.4,-0.357 0,-0.196 0.45,-0.469 1,-0.607 0.55,-0.138 1,-0.414 1,-0.612 0,-0.198 0.539,-0.479 1.198,-0.623 0.658,-0.145 1.333,-0.493 1.5,-0.774 0.166,-0.28 0.831,-0.682 1.477,-0.893 0.646,-0.211 1.246,-0.598 1.333,-0.859 0.245,-0.734 -0.385,-0.568 -1.994,0.525 m 205.848,0.942 c 0.768,0.865 1.838,1.159 1.838,0.505 0,-0.195 -0.315,-0.465 -0.7,-0.601 -0.385,-0.135 -0.97,-0.363 -1.3,-0.505 -0.417,-0.179 -0.367,0.004 0.162,0.601 m -257.018,0.471 c 0.52,0.433 1.18,0.787 1.467,0.787 0.287,0 0.582,0.135 0.656,0.3 0.213,0.479 3.328,2.5 3.855,2.5 0.263,0 0.478,0.18 0.478,0.4 0,0.22 0.18,0.4 0.4,0.4 0.915,0 0.272,-0.671 -1.7,-1.776 -1.155,-0.647 -2.338,-1.412 -2.629,-1.7 -0.29,-0.288 -0.763,-0.524 -1.051,-0.524 -0.287,0 -0.746,-0.27 -1.02,-0.6 -0.274,-0.33 -0.701,-0.594 -0.949,-0.587 -0.248,0.008 -0.026,0.368 0.493,0.8 m 259.502,0.963 c 0.121,0.316 0.731,0.687 1.354,0.824 0.623,0.137 1.226,0.491 1.34,0.787 0.113,0.296 0.743,0.656 1.4,0.8 0.656,0.144 1.286,0.504 1.4,0.8 0.113,0.296 0.758,0.659 1.433,0.807 0.675,0.148 1.227,0.432 1.227,0.63 0,0.198 0.45,0.474 1,0.612 0.55,0.138 1,0.378 1,0.533 0,0.155 0.63,0.529 1.4,0.831 0.77,0.302 1.4,0.662 1.4,0.8 0,0.138 0.63,0.498 1.4,0.8 0.77,0.302 1.4,0.696 1.4,0.875 0,0.179 0.235,0.325 0.522,0.325 0.288,0 1.133,0.45 1.878,1 1.529,1.128 2.076,1.264 1.759,0.436 -0.12,-0.31 -0.641,-0.67 -1.16,-0.801 -0.519,-0.13 -1.181,-0.463 -1.471,-0.74 -0.29,-0.278 -0.978,-0.731 -1.528,-1.008 -0.55,-0.276 -1.72,-0.94 -2.6,-1.474 -0.88,-0.535 -1.988,-1.15 -2.461,-1.368 -0.474,-0.217 -0.971,-0.573 -1.105,-0.79 -0.134,-0.216 -0.781,-0.512 -1.439,-0.656 -0.657,-0.144 -1.195,-0.417 -1.195,-0.605 0,-0.188 -0.63,-0.57 -1.4,-0.848 -0.77,-0.279 -1.4,-0.651 -1.4,-0.826 0,-0.176 -0.19,-0.32 -0.421,-0.32 -0.232,0 -1.084,-0.45 -1.893,-1 -1.677,-1.139 -2.157,-1.25 -1.84,-0.424 M 156.9,128.812 c -0.495,0.199 -0.9,0.548 -0.9,0.775 0,0.602 0.348,0.512 1.491,-0.387 1.08,-0.85 0.882,-0.98 -0.591,-0.388 m -2.5,1.479 c -0.83,0.316 -2.589,1.709 -2.154,1.707 0.195,-10e-4 1.074,-0.446 1.954,-0.988 1.494,-0.92 1.584,-1.245 0.2,-0.719 m -63.179,1.083 c -0.262,0.316 -1.004,0.69 -1.649,0.832 -0.644,0.142 -1.172,0.396 -1.172,0.565 0,0.169 -0.675,0.599 -1.5,0.955 -1.59,0.686 -2.734,1.371 -3.585,2.148 -0.286,0.26 -0.879,0.588 -1.317,0.727 -0.82,0.26 -1.114,0.999 -0.398,0.999 0.22,0 0.4,-0.146 0.4,-0.325 0,-0.179 0.63,-0.573 1.4,-0.875 0.77,-0.302 1.4,-0.678 1.4,-0.836 0,-0.157 0.495,-0.475 1.1,-0.706 1.158,-0.442 3.361,-1.691 3.7,-2.098 0.11,-0.132 0.729,-0.413 1.375,-0.625 0.646,-0.212 1.246,-0.599 1.333,-0.86 0.221,-0.662 -0.511,-0.595 -1.087,0.099 m 59.293,1.072 c -0.531,0.531 -1.829,1.303 -3.614,2.149 -0.715,0.339 -1.3,0.804 -1.3,1.034 0,0.436 0.075,0.403 2.456,-1.078 0.801,-0.498 1.566,-0.796 1.7,-0.662 0.134,0.135 0.244,0.046 0.244,-0.195 0,-0.242 0.36,-0.554 0.8,-0.694 0.44,-0.14 0.8,-0.422 0.8,-0.627 0,-0.507 -0.543,-0.47 -1.086,0.073 M 58.803,132.7 c 0.001,0.165 0.541,0.607 1.2,0.981 1.415,0.806 1.564,0.554 0.297,-0.504 -0.955,-0.796 -1.502,-0.97 -1.497,-0.477 m 2.797,1.756 c 0,0.23 0.36,0.513 0.8,0.628 0.44,0.115 0.8,0.368 0.8,0.563 0,0.194 0.18,0.353 0.4,0.353 0.766,0 0.387,-0.604 -0.803,-1.281 -0.667,-0.38 -1.197,-0.496 -1.197,-0.263 m 3,1.944 c 0.136,0.22 0.507,0.4 0.824,0.4 0.317,0 0.576,0.162 0.576,0.36 0,0.327 2.905,2.04 3.461,2.04 0.13,0 0.013,-0.27 -0.261,-0.6 -0.274,-0.33 -0.733,-0.6 -1.02,-0.6 -0.288,0 -0.764,-0.242 -1.06,-0.537 -1.04,-1.04 -3.023,-1.877 -2.52,-1.063 m 79.43,0.164 c -0.258,0.311 -0.316,0.659 -0.129,0.775 0.186,0.115 0.556,-0.139 0.822,-0.565 0.556,-0.89 0.008,-1.055 -0.693,-0.21 m -65.43,1.955 c -0.88,0.485 -2.28,1.305 -3.11,1.821 -0.845,0.525 -1.795,0.829 -2.157,0.69 -0.525,-0.202 -0.556,-0.14 -0.167,0.329 0.499,0.602 2.395,-0.071 3.424,-1.215 0.225,-0.251 1.071,-0.665 1.878,-0.92 0.807,-0.256 1.684,-0.726 1.949,-1.044 0.672,-0.81 0.056,-0.695 -1.817,0.339 m -8.6,0.865 c 0,0.315 1.266,1.416 1.629,1.416 0.204,0 0.371,-0.191 0.371,-0.424 0,-0.233 -0.18,-0.312 -0.4,-0.176 -0.22,0.136 -0.4,0.076 -0.4,-0.134 0,-0.209 -0.27,-0.484 -0.6,-0.611 -0.33,-0.126 -0.6,-0.158 -0.6,-0.071 m 262.4,2.183 c 0,0.238 0.18,0.433 0.4,0.433 0.265,0 0.399,25.232 0.397,74.9 l -0.002,74.9 -1.298,0.754 c -0.713,0.415 -1.083,0.831 -0.821,0.925 0.261,0.094 0.937,-0.131 1.501,-0.5 l 1.025,-0.672 -0.101,-75.42 c -0.08,-59.909 -0.204,-75.455 -0.601,-75.587 -0.275,-0.092 -0.5,0.028 -0.5,0.267 m 46.4,73.766 c 0,1.955 0.276,2.451 0.97,1.748 0.925,-0.937 1.068,-1.976 0.378,-2.739 -1.029,-1.136 -1.348,-0.902 -1.348,0.991 M 71.614,292.788 c -0.5,0.434 -1.284,0.907 -1.743,1.053 -0.833,0.264 -2.169,1.359 -1.659,1.359 0.505,0 4.187,-2.199 4.188,-2.5 0,-0.42 1.504,-0.377 1.667,0.047 0.073,0.191 0.583,0.483 1.133,0.649 l 1,0.302 -0.961,-0.849 c -1.201,-1.061 -2.449,-1.081 -3.625,-0.061 m 4.878,1.287 c 0.199,0.598 1.108,0.927 1.108,0.401 0,-0.215 -0.285,-0.5 -0.633,-0.633 -0.39,-0.15 -0.573,-0.061 -0.475,0.232 m 252.199,0.325 c -0.56,0.44 -1.195,0.8 -1.411,0.8 -0.217,0 -0.498,0.27 -0.625,0.6 -0.307,0.801 0.232,0.759 1.265,-0.1 0.463,-0.385 1.247,-1.015 1.742,-1.4 0.495,-0.385 0.708,-0.7 0.473,-0.7 -0.235,0 -0.885,0.36 -1.444,0.8 M 67.2,295.533 c 0,0.257 -0.259,0.467 -0.576,0.467 -0.317,0 -0.678,0.163 -0.801,0.363 -0.123,0.199 0.139,0.267 0.583,0.151 0.891,-0.233 1.407,-0.835 1.034,-1.207 -0.132,-0.132 -0.24,-0.03 -0.24,0.226 m 12.006,-0.012 c -0.003,0.286 0.534,0.709 1.194,0.939 0.66,0.23 1.2,0.581 1.2,0.779 0,0.199 0.257,0.361 0.571,0.361 0.315,0 0.831,0.259 1.147,0.575 0.316,0.316 1.724,1.168 3.128,1.894 1.405,0.725 2.644,1.432 2.754,1.571 0.11,0.139 0.65,0.378 1.2,0.532 0.806,0.225 0.729,0.102 -0.4,-0.636 -0.77,-0.504 -1.638,-1.145 -1.929,-1.426 -0.29,-0.28 -0.772,-0.51 -1.071,-0.51 -0.299,0 -0.782,-0.239 -1.075,-0.532 -0.8,-0.8 -5.218,-3.123 -5.778,-3.038 -0.142,0.021 -0.41,-0.202 -0.596,-0.496 -0.272,-0.428 -0.34,-0.431 -0.345,-0.013 m 245.094,1.155 c -0.385,0.1 -0.7,0.347 -0.7,0.548 0,0.201 -0.585,0.639 -1.3,0.973 -0.715,0.335 -2.02,1.053 -2.9,1.596 -0.88,0.543 -1.915,1.103 -2.3,1.244 -0.385,0.141 -0.7,0.394 -0.7,0.563 0,0.169 -0.397,0.411 -0.883,0.537 -0.485,0.127 -0.783,0.331 -0.661,0.452 0.258,0.258 2.265,-0.616 4.544,-1.978 1.527,-0.912 2.925,-1.691 4.9,-2.728 0.495,-0.26 0.9,-0.621 0.9,-0.801 0,-0.181 0.18,-0.218 0.4,-0.082 0.22,0.136 0.4,0.057 0.4,-0.176 0,-0.433 -0.458,-0.473 -1.7,-0.148 M 64.4,297.12 c 0,0.175 -0.63,0.547 -1.4,0.826 -0.77,0.278 -1.4,0.653 -1.4,0.833 0,0.18 -0.36,0.422 -0.8,0.537 -0.44,0.115 -0.8,0.4 -0.8,0.633 0,0.387 2.732,-0.96 3.2,-1.577 0.11,-0.145 0.605,-0.391 1.1,-0.545 0.897,-0.28 1.261,-1.027 0.5,-1.027 -0.22,0 -0.4,0.144 -0.4,0.32 m 194.2,1.913 c -0.88,0.565 -1.27,0.924 -0.867,0.798 0.403,-0.127 0.87,-0.231 1.039,-0.231 0.168,0 0.721,-0.36 1.228,-0.8 1.295,-1.123 0.505,-0.992 -1.4,0.233 m -200.3,1.66 c -1.008,0.504 -1.515,1.325 -0.8,1.294 0.401,-0.018 2.256,-1.575 2.057,-1.726 -0.087,-0.065 -0.652,0.129 -1.257,0.432 M 255.999,300.3 c -0.001,0.165 -0.991,0.834 -2.2,1.486 -2.044,1.102 -2.75,1.814 -1.799,1.814 0.22,0 0.4,-0.144 0.4,-0.32 0,-0.175 0.63,-0.547 1.4,-0.826 0.77,-0.278 1.4,-0.653 1.4,-0.833 0,-0.18 0.36,-0.422 0.8,-0.537 0.812,-0.212 1.133,-1.084 0.4,-1.084 -0.22,0 -0.401,0.135 -0.401,0.3 M 55.4,302.478 c -0.44,0.249 -0.89,0.563 -1,0.696 -0.11,0.133 -0.65,0.472 -1.2,0.754 -2.497,1.277 -3.2,1.744 -3.2,2.126 0,0.377 2.736,-1.06 3.2,-1.679 0.11,-0.147 0.605,-0.394 1.1,-0.548 0.495,-0.155 0.9,-0.459 0.9,-0.678 0,-0.218 0.135,-0.314 0.3,-0.215 0.165,0.1 0.532,-0.069 0.816,-0.376 0.618,-0.668 0.188,-0.706 -0.916,-0.08 m 36.2,0.273 c 0,0.194 0.54,0.576 1.2,0.849 0.66,0.273 1.2,0.655 1.2,0.849 0,0.193 0.246,0.351 0.546,0.351 0.3,0 0.99,0.349 1.532,0.775 0.542,0.427 1.421,0.85 1.954,0.942 0.532,0.091 0.743,0.089 0.468,-0.005 -0.275,-0.094 -0.5,-0.304 -0.5,-0.467 0,-0.162 -0.63,-0.543 -1.4,-0.845 -0.77,-0.302 -1.4,-0.696 -1.4,-0.875 0,-0.179 -0.197,-0.325 -0.437,-0.325 -0.24,0 -0.894,-0.36 -1.454,-0.8 -1.087,-0.855 -1.709,-1.018 -1.709,-0.449 m 219.893,1.649 c -0.377,0.44 -0.516,0.8 -0.309,0.8 0.207,0 0.52,-0.244 0.696,-0.541 0.176,-0.298 0.59,-0.644 0.92,-0.769 0.526,-0.199 0.525,-0.231 -0.011,-0.258 -0.336,-0.018 -0.919,0.328 -1.296,0.768 m -64.479,1.164 c -0.652,0.35 -1.43,0.861 -1.728,1.136 -0.299,0.275 -0.718,0.5 -0.931,0.5 -0.367,0 -2.726,1.526 -3.155,2.04 -0.11,0.132 -0.47,0.343 -0.8,0.468 -0.51,0.195 -0.504,0.234 0.039,0.26 0.351,0.018 1.059,-0.333 1.574,-0.779 0.514,-0.446 1.351,-0.915 1.861,-1.043 0.509,-0.128 0.926,-0.376 0.926,-0.55 0,-0.175 0.495,-0.507 1.1,-0.738 1.212,-0.464 2.739,-1.57 2.471,-1.79 -0.094,-0.076 -0.705,0.147 -1.357,0.496 M 48.1,306.812 c -0.495,0.199 -0.9,0.548 -0.9,0.775 0,0.602 0.348,0.512 1.491,-0.387 1.08,-0.85 0.882,-0.98 -0.591,-0.388 m 51.5,0.374 c 0,0.212 0.348,0.572 0.774,0.8 1.231,0.659 1.427,0.482 0.426,-0.386 -1.044,-0.905 -1.2,-0.959 -1.2,-0.414 m 206.4,0.326 c 0,0.172 -0.495,0.536 -1.1,0.808 -1.788,0.806 -3.456,1.779 -4.025,2.348 -0.293,0.293 -0.789,0.532 -1.104,0.532 -0.314,0 -0.571,0.158 -0.571,0.351 0,0.194 -0.585,0.589 -1.3,0.878 -0.715,0.289 -1.39,0.651 -1.5,0.803 -0.11,0.153 -0.92,0.588 -1.8,0.968 -0.88,0.379 -1.381,0.772 -1.114,0.873 0.267,0.101 0.987,-0.094 1.6,-0.434 0.613,-0.341 1.429,-0.735 1.814,-0.876 0.385,-0.141 0.7,-0.393 0.7,-0.561 0,-0.168 0.585,-0.545 1.3,-0.839 1.231,-0.505 1.676,-0.788 2.814,-1.792 0.267,-0.235 0.666,-0.485 0.886,-0.554 1.055,-0.331 2.2,-0.975 2.2,-1.238 0,-0.161 0.45,-0.405 1,-0.543 0.962,-0.242 1.422,-1.036 0.6,-1.036 -0.22,0 -0.4,0.141 -0.4,0.312 M 45.2,308.8 c -0.507,0.44 -0.742,0.8 -0.522,0.8 0.22,0 0.815,-0.36 1.322,-0.8 0.507,-0.44 0.742,-0.8 0.522,-0.8 -0.22,0 -0.815,0.36 -1.322,0.8 m 56.803,-0.1 c 0.001,0.165 0.541,0.607 1.2,0.981 0.658,0.375 1.197,0.522 1.197,0.327 0,-0.195 -0.36,-0.468 -0.8,-0.608 -0.44,-0.14 -0.8,-0.422 -0.8,-0.627 0,-0.205 -0.18,-0.373 -0.4,-0.373 -0.22,0 -0.399,0.135 -0.397,0.3 M 42.4,310.4 c -1.034,0.896 -0.92,0.978 0.574,0.41 0.564,-0.215 1.026,-0.575 1.026,-0.8 0,-0.632 -0.586,-0.489 -1.6,0.39 m 62.4,0.037 c 0,0.241 0.36,0.532 0.8,0.647 0.44,0.115 0.8,0.349 0.8,0.519 0,0.171 0.437,0.42 0.972,0.554 0.535,0.134 1.21,0.469 1.5,0.744 0.615,0.582 4.492,2.699 4.943,2.699 0.169,0 -0.108,-0.36 -0.615,-0.8 -0.507,-0.44 -1.137,-0.8 -1.4,-0.8 -0.263,0 -0.893,-0.36 -1.4,-0.8 -0.507,-0.44 -1.146,-0.8 -1.418,-0.8 -0.273,0 -0.594,-0.253 -0.712,-0.562 -0.119,-0.31 -0.768,-0.684 -1.443,-0.832 -0.675,-0.148 -1.227,-0.435 -1.227,-0.638 0,-0.202 -0.18,-0.368 -0.4,-0.368 -0.22,0 -0.4,0.197 -0.4,0.437 m 134,-0.037 c -0.317,0.196 -0.444,0.489 -0.282,0.652 0.163,0.162 0.505,0.085 0.762,-0.172 0.604,-0.604 0.267,-0.942 -0.48,-0.48 m -198.4,1.2 c -0.317,0.196 -0.444,0.489 -0.282,0.652 0.163,0.162 0.505,0.085 0.762,-0.172 0.604,-0.604 0.267,-0.942 -0.48,-0.48 m 194.701,0.943 c -1.998,1.142 -1.923,1.566 0.099,0.565 1.138,-0.563 2.51,-1.903 1.5,-1.465 -0.055,0.024 -0.775,0.429 -1.599,0.9 M 38,313.2 c -0.507,0.44 -0.742,0.8 -0.522,0.8 0.22,0 0.815,-0.36 1.322,-0.8 0.507,-0.44 0.742,-0.8 0.522,-0.8 -0.22,0 -0.815,0.36 -1.322,0.8 m -2.543,1.4 c -0.33,0.33 -0.765,0.6 -0.966,0.6 -0.202,0 -0.68,0.345 -1.062,0.767 -1.03,1.139 -0.519,1.569 5.871,4.941 1.265,0.668 2.3,1.352 2.3,1.521 0,0.169 0.525,0.423 1.167,0.564 0.641,0.141 1.257,0.492 1.367,0.78 0.111,0.288 0.709,0.651 1.33,0.807 0.62,0.156 1.22,0.422 1.332,0.591 0.3,0.454 6.61,4.029 7.11,4.029 0.235,0 0.487,0.15 0.561,0.333 0.169,0.423 5.435,3.474 6.633,3.843 0.495,0.153 0.9,0.446 0.9,0.651 0,0.205 0.234,0.373 0.52,0.373 0.286,0 0.744,0.224 1.017,0.497 0.557,0.557 5.264,3.261 6.963,4 0.605,0.263 1.1,0.597 1.1,0.742 0,0.145 0.585,0.503 1.3,0.796 0.715,0.292 1.538,0.764 1.829,1.048 0.29,0.284 0.785,0.517 1.1,0.517 0.314,0 0.571,0.168 0.571,0.374 0,0.206 0.63,0.602 1.4,0.88 0.77,0.279 1.4,0.629 1.4,0.778 0,0.149 0.585,0.508 1.3,0.797 0.715,0.289 1.39,0.626 1.5,0.748 0.393,0.438 1.824,1.261 3.3,1.897 0.825,0.356 1.5,0.778 1.5,0.938 0,0.16 0.585,0.528 1.3,0.817 0.715,0.289 1.39,0.641 1.5,0.781 0.268,0.343 4.968,3.068 6.543,3.794 1.438,0.663 2.582,1.375 3.368,2.095 0.3,0.275 0.982,0.61 1.517,0.744 0.535,0.134 0.972,0.39 0.972,0.569 0,0.179 0.675,0.545 1.5,0.814 0.825,0.268 1.644,0.732 1.82,1.031 0.176,0.298 0.581,0.543 0.9,0.543 0.319,0 0.58,0.136 0.58,0.302 0,0.167 0.585,0.557 1.3,0.868 0.715,0.311 1.39,0.67 1.5,0.798 0.306,0.355 2.469,1.561 3.7,2.062 0.605,0.247 1.1,0.589 1.1,0.761 0,0.171 0.585,0.549 1.3,0.838 0.715,0.289 1.39,0.626 1.5,0.748 0.269,0.3 1.875,1.215 3.675,2.096 0.811,0.397 1.578,0.889 1.704,1.093 0.127,0.205 0.768,0.491 1.426,0.635 0.657,0.144 1.195,0.418 1.195,0.609 0,0.352 1.308,1.172 3.3,2.07 0.605,0.272 1.1,0.622 1.1,0.777 0,0.154 0.67,0.502 1.489,0.772 0.819,0.271 1.713,0.69 1.986,0.931 1.423,1.259 1.797,1.502 1.999,1.299 0.122,-0.121 0.464,-0.004 0.76,0.26 1.276,1.14 1.752,1.481 2.068,1.481 0.184,0 1.649,0.81 3.254,1.8 1.606,0.99 3.083,1.8 3.282,1.8 0.199,0 0.362,0.166 0.362,0.368 0,0.203 0.552,0.49 1.227,0.638 0.675,0.148 1.32,0.511 1.433,0.807 0.114,0.296 0.732,0.653 1.373,0.794 0.642,0.141 1.167,0.395 1.167,0.564 0,0.169 1.035,0.853 2.3,1.521 4.259,2.247 5.061,2.706 5.61,3.207 0.3,0.275 0.983,0.61 1.518,0.744 0.535,0.134 0.972,0.385 0.972,0.558 0,0.293 0.971,0.859 5.6,3.264 0.99,0.514 1.89,1.027 2,1.139 0.519,0.529 3.63,2.396 3.991,2.396 0.225,0 0.409,0.16 0.409,0.357 0,0.196 0.481,0.477 1.068,0.624 0.588,0.148 1.512,0.617 2.054,1.044 0.542,0.426 1.232,0.775 1.532,0.775 0.3,0 0.546,0.165 0.546,0.367 0,0.201 1.125,0.936 2.5,1.633 3.353,1.699 4.769,2.506 5.388,3.074 0.284,0.26 0.921,0.6 1.414,0.754 0.494,0.154 0.988,0.391 1.098,0.526 0.288,0.354 1.585,1.144 3.2,1.948 0.77,0.384 1.626,0.911 1.902,1.172 0.277,0.26 0.907,0.6 1.4,0.754 0.494,0.154 0.988,0.407 1.098,0.561 0.249,0.351 4.129,2.589 5.965,3.442 1.534,0.713 3.646,0.501 4.61,-0.463 0.331,-0.331 1.147,-0.791 1.813,-1.024 0.667,-0.232 1.212,-0.585 1.212,-0.783 0,-0.199 0.257,-0.361 0.571,-0.361 0.315,0 0.81,-0.236 1.1,-0.524 0.501,-0.496 1.394,-1.003 4.804,-2.725 0.811,-0.41 1.594,-0.938 1.74,-1.175 0.349,-0.565 -0.176,-1.08 -0.537,-0.526 -0.259,0.397 -0.705,0.664 -3.878,2.322 -0.66,0.344 -1.74,0.99 -2.4,1.434 -0.66,0.445 -1.695,1.025 -2.3,1.289 -0.605,0.264 -1.1,0.621 -1.1,0.793 0,0.171 -0.246,0.312 -0.546,0.312 -0.3,0 -1.004,0.36 -1.563,0.8 -1.012,0.796 -2.691,1.093 -2.691,0.477 0,-0.178 -1.125,-0.905 -2.5,-1.616 -1.375,-0.711 -3.04,-1.64 -3.7,-2.064 -0.66,-0.425 -1.74,-1.054 -2.4,-1.4 -1.86,-0.974 -3.883,-2.141 -5.2,-2.998 -0.66,-0.43 -1.875,-1.075 -2.7,-1.434 -0.825,-0.358 -1.5,-0.793 -1.5,-0.965 0,-0.172 -0.45,-0.426 -1,-0.564 -0.55,-0.138 -1,-0.428 -1,-0.644 0,-0.215 -0.209,-0.392 -0.465,-0.392 -0.431,0 -6.688,-3.491 -7.135,-3.981 -0.11,-0.12 -1.415,-0.849 -2.899,-1.619 -1.485,-0.77 -2.7,-1.535 -2.7,-1.7 -0.001,-0.165 -0.23,-0.3 -0.51,-0.3 -0.28,0 -1.405,-0.585 -2.5,-1.3 -1.095,-0.715 -2.441,-1.524 -2.991,-1.797 -0.55,-0.273 -1.27,-0.673 -1.6,-0.888 -0.33,-0.215 -6.63,-3.851 -14,-8.081 -7.37,-4.23 -13.49,-7.791 -13.6,-7.913 -0.182,-0.201 -2.723,-1.602 -5.8,-3.199 -0.66,-0.342 -1.29,-0.722 -1.4,-0.844 -0.385,-0.427 -6.766,-3.978 -7.148,-3.978 -0.212,0 -0.445,-0.143 -0.519,-0.318 -0.13,-0.311 -6.5,-4.082 -6.894,-4.082 -0.11,0 -0.973,-0.517 -1.919,-1.148 -1.687,-1.127 -5.944,-3.568 -7.92,-4.543 -0.55,-0.271 -1.09,-0.604 -1.2,-0.739 -0.236,-0.291 -2.149,-1.351 -3.7,-2.05 -0.605,-0.272 -1.1,-0.622 -1.1,-0.777 0,-0.154 -0.63,-0.489 -1.4,-0.743 -0.77,-0.254 -1.4,-0.61 -1.4,-0.792 0,-0.181 -0.495,-0.533 -1.1,-0.781 -1.264,-0.519 -2.574,-1.261 -3.357,-1.902 -0.299,-0.245 -1.623,-1.013 -2.943,-1.709 -1.32,-0.695 -3.12,-1.694 -4,-2.219 -0.88,-0.526 -1.96,-1.154 -2.4,-1.397 -0.44,-0.243 -1.52,-0.875 -2.4,-1.404 -0.88,-0.53 -2.14,-1.24 -2.8,-1.579 -0.66,-0.338 -1.74,-0.976 -2.4,-1.417 -0.66,-0.441 -1.74,-1.076 -2.4,-1.411 -0.66,-0.335 -2.1,-1.148 -3.2,-1.806 -1.1,-0.659 -2.315,-1.305 -2.7,-1.437 -0.385,-0.132 -0.7,-0.379 -0.7,-0.549 0,-0.171 -0.45,-0.423 -1,-0.561 -0.55,-0.138 -1,-0.428 -1,-0.644 0,-0.215 -0.203,-0.392 -0.451,-0.392 -0.407,0 -1.892,-0.821 -6.293,-3.479 -0.801,-0.484 -1.816,-1.066 -2.256,-1.294 -0.44,-0.227 -1.52,-0.861 -2.4,-1.409 -0.88,-0.548 -2.14,-1.27 -2.8,-1.604 -0.66,-0.335 -1.92,-1.063 -2.8,-1.618 -0.88,-0.556 -1.96,-1.188 -2.4,-1.407 -0.44,-0.218 -2.06,-1.12 -3.6,-2.004 -1.54,-0.884 -3.21,-1.814 -3.71,-2.065 -1.197,-0.602 -0.971,-1.159 0.832,-2.053 0.813,-0.403 1.478,-0.898 1.478,-1.1 0,-0.556 -0.67,-0.44 -1.343,0.233 M 231.7,314.488 c -0.495,0.239 -0.9,0.587 -0.9,0.773 0,0.564 0.626,0.384 1.6,-0.461 1.003,-0.87 0.719,-0.996 -0.7,-0.312 M 292,315.6 c -0.317,0.196 -0.444,0.489 -0.282,0.652 0.163,0.162 0.505,0.085 0.762,-0.172 0.604,-0.604 0.267,-0.942 -0.48,-0.48 m -177.6,0.316 c 0,0.174 0.945,0.822 2.1,1.439 4.621,2.47 5.308,2.854 5.5,3.077 0.11,0.127 1.19,0.757 2.4,1.4 1.21,0.642 2.29,1.276 2.4,1.408 0.271,0.326 1.878,1.16 2.235,1.16 0.52,0 -1.511,-1.57 -2.383,-1.842 -0.468,-0.146 -0.942,-0.386 -1.052,-0.533 -0.293,-0.393 -6.446,-4.025 -6.817,-4.025 -0.174,0 -0.376,-0.135 -0.45,-0.3 -0.329,-0.742 -3.933,-2.376 -3.933,-1.784 m 113.2,0.975 c -0.77,0.483 -1.49,0.996 -1.6,1.14 -0.11,0.144 -0.605,0.388 -1.1,0.542 -0.897,0.28 -1.261,1.027 -0.5,1.027 0.22,0 0.4,-0.18 0.4,-0.4 0,-0.22 0.257,-0.4 0.571,-0.4 0.315,0 0.841,-0.269 1.17,-0.598 0.329,-0.33 1.062,-0.775 1.629,-0.991 0.566,-0.215 1.03,-0.576 1.03,-0.801 0,-0.532 0.031,-0.542 -1.6,0.481 m 62.214,-0.154 c -1.852,1.036 -2.63,1.849 -1.395,1.458 1.144,-0.362 2.75,-1.462 2.768,-1.895 0.015,-0.359 0.095,-0.385 -1.373,0.437 m -3.625,2.211 c -0.434,0.301 -1.734,1.04 -2.889,1.642 -1.155,0.602 -2.1,1.241 -2.1,1.42 0,0.18 -0.552,0.448 -1.227,0.596 -0.675,0.148 -1.324,0.522 -1.443,0.832 -0.118,0.309 -0.446,0.562 -0.728,0.562 -0.614,0 -2.582,1.568 -1.993,1.587 0.225,0.007 1.345,-0.603 2.489,-1.356 1.143,-0.754 2.444,-1.486 2.89,-1.627 0.447,-0.142 0.812,-0.406 0.812,-0.588 0,-0.181 0.417,-0.434 0.926,-0.562 0.51,-0.128 1.347,-0.597 1.861,-1.043 0.515,-0.446 1.159,-0.811 1.431,-0.811 0.273,0 0.6,-0.27 0.727,-0.6 0.282,-0.736 0.233,-0.739 -0.756,-0.052 M 129.6,324.736 c 0,0.329 2.144,1.47 2.258,1.201 0.032,-0.075 0.463,0.223 0.958,0.663 l 0.9,0.8 -0.472,-0.9 c -0.26,-0.495 -0.813,-0.9 -1.23,-0.9 -0.416,0 -1.027,-0.27 -1.357,-0.6 -0.671,-0.671 -1.057,-0.767 -1.057,-0.264 m 144,1.664 c -0.507,0.44 -0.813,0.8 -0.68,0.8 0.558,0 2.28,-0.955 2.28,-1.264 0,-0.561 -0.628,-0.379 -1.6,0.464 m -139.2,1.174 c 0,0.206 0.63,0.602 1.4,0.88 0.77,0.279 1.4,0.651 1.4,0.826 0,0.176 0.18,0.32 0.4,0.32 0.752,0 0.402,-0.746 -0.481,-1.026 -0.485,-0.154 -1.128,-0.526 -1.429,-0.827 -0.63,-0.63 -1.29,-0.719 -1.29,-0.173 m 136.812,0.01 c -0.324,0.205 -0.434,0.517 -0.246,0.694 0.189,0.177 0.424,0.096 0.523,-0.18 0.099,-0.277 0.344,-0.401 0.545,-0.277 0.201,0.124 0.366,0.036 0.366,-0.197 0,-0.519 -0.409,-0.532 -1.188,-0.04 m -132.411,2.617 c 0.269,0.325 0.649,0.492 0.844,0.371 0.195,-0.121 0.355,-0.029 0.355,0.204 0,0.233 0.18,0.424 0.4,0.424 0.874,0 0.328,-0.747 -0.845,-1.156 -1.08,-0.376 -1.18,-0.356 -0.754,0.157 M 266.9,330.099 c -0.715,0.229 -1.3,0.571 -1.3,0.759 0,0.188 -0.261,0.342 -0.58,0.342 -0.319,0 -0.757,0.315 -0.972,0.7 -0.215,0.385 -0.449,0.638 -0.52,0.563 -0.192,-0.205 -2.45,0.853 -3.057,1.432 -0.29,0.278 -0.668,0.505 -0.838,0.505 -0.171,0 -0.726,0.36 -1.233,0.8 -1.316,1.141 -0.414,0.991 1.2,-0.2 0.745,-0.55 1.59,-1 1.878,-1 0.287,0 0.522,-0.153 0.522,-0.339 0,-0.187 0.675,-0.634 1.5,-0.993 1.623,-0.707 4.069,-2.12 4.68,-2.705 0.437,-0.417 0.447,-0.418 -1.28,0.136 m -125.22,1.638 c 0.558,0.558 2.1,1.463 2.494,1.463 0.705,0 0.036,-0.799 -1.134,-1.354 -1.657,-0.787 -2.071,-0.82 -1.36,-0.109 m 113.552,5.072 c -0.752,0.42 -1.472,0.923 -1.6,1.119 -0.128,0.196 -0.907,0.576 -1.732,0.845 -0.825,0.269 -1.5,0.633 -1.5,0.809 0,0.177 -0.54,0.545 -1.2,0.818 -0.66,0.273 -1.2,0.655 -1.2,0.849 0,0.507 0.656,0.431 1.284,-0.149 0.778,-0.719 2.738,-1.871 4.016,-2.358 0.605,-0.231 1.1,-0.569 1.1,-0.75 0,-0.182 0.63,-0.538 1.4,-0.792 0.77,-0.254 1.4,-0.628 1.4,-0.831 0,-0.522 -0.406,-0.431 -1.968,0.44 m -8.922,5.338 c -0.301,0.301 -0.989,0.686 -1.529,0.855 -0.539,0.17 -1.41,0.643 -1.935,1.053 -0.525,0.41 -1.155,0.749 -1.4,0.754 -0.742,0.015 -2.457,1.514 -2.118,1.852 0.173,0.174 0.441,0.141 0.594,-0.073 0.336,-0.469 2.267,-1.603 3.778,-2.218 0.605,-0.247 1.1,-0.611 1.1,-0.809 0,-0.199 0.242,-0.361 0.539,-0.361 0.296,0 0.954,-0.36 1.461,-0.8 0.507,-0.44 0.728,-0.8 0.49,-0.8 -0.238,0 -0.679,0.246 -0.98,0.547 m -8.588,4.827 c -0.262,0.3 -0.712,0.628 -1,0.73 -0.287,0.103 -0.396,0.323 -0.241,0.489 0.154,0.166 0.572,0.011 0.929,-0.345 0.356,-0.357 0.814,-0.648 1.019,-0.648 0.204,0 0.371,-0.18 0.371,-0.4 0,-0.556 -0.509,-0.474 -1.078,0.174 m -5.642,3.165 c -0.726,0.263 -1.446,0.668 -1.6,0.899 -0.154,0.231 -0.595,0.537 -0.98,0.679 -0.385,0.142 -0.7,0.466 -0.7,0.719 0,0.317 0.157,0.336 0.5,0.06 0.275,-0.221 1.56,-0.963 2.856,-1.649 2.382,-1.26 2.347,-1.586 -0.076,-0.708 m 82.111,0.772 c -1.095,0.72 -2.576,1.552 -3.291,1.848 -0.715,0.296 -1.3,0.696 -1.3,0.89 0,0.193 -0.176,0.351 -0.39,0.351 -0.286,0 -21.961,12.465 -29.21,16.797 -3.817,2.282 -9.172,5.203 -9.537,5.203 -0.255,0 -0.464,0.135 -0.464,0.3 -0.001,0.165 -1.036,0.84 -2.3,1.5 -1.265,0.66 -2.389,1.31 -2.499,1.444 -0.207,0.253 -4.645,2.781 -6.4,3.647 -0.55,0.271 -1.09,0.596 -1.2,0.723 -0.11,0.126 -1.73,1.083 -3.6,2.126 -1.87,1.043 -3.67,2.069 -4,2.281 -0.33,0.212 -1.05,0.605 -1.6,0.874 -0.55,0.269 -1.09,0.597 -1.2,0.729 -0.11,0.131 -1.19,0.765 -2.4,1.408 -1.21,0.642 -2.29,1.278 -2.4,1.412 -0.204,0.248 -4.429,2.645 -6.6,3.744 -0.66,0.334 -1.92,1.061 -2.8,1.616 -0.88,0.556 -1.96,1.19 -2.4,1.41 -3.565,1.782 -5.896,3.586 -4.633,3.586 0.238,0 0.433,-0.144 0.433,-0.32 0,-0.175 0.63,-0.547 1.4,-0.826 0.77,-0.278 1.4,-0.674 1.4,-0.88 0,-0.206 0.188,-0.374 0.419,-0.374 0.476,0 6.873,-3.603 7.185,-4.046 0.112,-0.16 0.697,-0.414 1.3,-0.566 0.603,-0.151 1.096,-0.402 1.096,-0.557 0,-0.156 0.585,-0.587 1.3,-0.958 2.358,-1.226 5.696,-3.16 5.9,-3.419 0.25,-0.318 1.863,-1.211 5.179,-2.866 1.418,-0.709 2.814,-1.524 3.102,-1.812 0.288,-0.288 0.883,-0.638 1.321,-0.777 0.439,-0.139 0.798,-0.406 0.798,-0.594 0,-0.188 0.54,-0.46 1.2,-0.605 0.66,-0.145 1.2,-0.407 1.2,-0.583 0,-0.176 0.54,-0.544 1.2,-0.817 0.66,-0.273 1.2,-0.641 1.2,-0.817 0,-0.176 0.552,-0.441 1.227,-0.589 0.675,-0.148 1.32,-0.511 1.433,-0.807 0.114,-0.296 0.732,-0.653 1.373,-0.794 0.642,-0.141 1.167,-0.378 1.167,-0.527 0,-0.149 0.585,-0.525 1.3,-0.836 0.715,-0.311 1.39,-0.679 1.5,-0.817 0.11,-0.138 1.1,-0.767 2.2,-1.398 1.1,-0.63 2.09,-1.262 2.2,-1.403 0.11,-0.142 0.83,-0.507 1.6,-0.812 0.77,-0.305 1.49,-0.655 1.6,-0.777 0.233,-0.259 1.726,-1.131 3.3,-1.926 0.605,-0.306 1.1,-0.708 1.1,-0.895 0,-0.186 0.539,-0.457 1.198,-0.601 0.658,-0.145 1.333,-0.474 1.5,-0.732 0.166,-0.258 1.337,-0.978 2.602,-1.599 1.265,-0.622 2.3,-1.283 2.3,-1.469 0,-0.185 0.552,-0.459 1.227,-0.607 0.675,-0.148 1.318,-0.506 1.429,-0.796 0.111,-0.289 0.673,-0.644 1.249,-0.788 0.575,-0.145 1.535,-0.611 2.132,-1.037 0.598,-0.425 1.284,-0.773 1.525,-0.773 0.241,0 0.439,-0.135 0.439,-0.3 10e-4,-0.165 1.036,-0.84 2.3,-1.5 1.265,-0.66 2.389,-1.304 2.499,-1.432 0.11,-0.128 0.785,-0.487 1.5,-0.798 0.715,-0.311 1.3,-0.668 1.3,-0.793 0,-0.125 0.63,-0.475 1.4,-0.777 0.77,-0.302 1.4,-0.696 1.4,-0.875 0,-0.179 0.242,-0.325 0.539,-0.325 0.296,0 0.954,-0.36 1.461,-0.8 0.507,-0.44 1.152,-0.8 1.433,-0.8 0.28,0 0.748,-0.233 1.038,-0.517 0.291,-0.284 1.114,-0.756 1.829,-1.048 0.715,-0.293 1.3,-0.669 1.3,-0.837 0,-0.168 0.36,-0.399 0.8,-0.514 0.44,-0.115 0.8,-0.406 0.8,-0.647 0,-0.689 -0.477,-0.53 -2.609,0.874 M 227.6,352.8 c 0,0.22 -0.242,0.4 -0.539,0.4 -0.296,0 -0.954,0.36 -1.461,0.8 -0.507,0.44 -1.152,0.8 -1.433,0.8 -0.28,0 -0.786,0.276 -1.123,0.613 -0.338,0.338 -1.614,1.14 -2.836,1.783 -2.986,1.57 -3.943,2.273 -3.483,2.558 0.212,0.13 0.607,-0.031 0.879,-0.358 0.272,-0.328 0.742,-0.596 1.045,-0.596 0.303,0 0.551,-0.162 0.551,-0.361 0,-0.198 0.536,-0.548 1.191,-0.776 1.094,-0.381 1.53,-0.664 2.923,-1.892 0.267,-0.235 0.576,-0.425 0.686,-0.42 0.11,0.004 1.145,-0.523 2.3,-1.172 1.973,-1.108 2.614,-1.779 1.7,-1.779 -0.22,0 -0.4,0.18 -0.4,0.4 m -12.8,7.117 c 0,0.174 -1.07,0.849 -2.377,1.5 -1.308,0.651 -2.469,1.399 -2.58,1.663 -0.241,0.571 0.857,0.253 1.757,-0.51 0.33,-0.279 1.082,-0.628 1.671,-0.775 0.589,-0.147 1.168,-0.521 1.288,-0.831 0.119,-0.31 0.492,-0.564 0.828,-0.564 0.337,0 0.613,-0.18 0.613,-0.4 0,-0.22 -0.27,-0.4 -0.6,-0.4 -0.33,0 -0.6,0.143 -0.6,0.317 m -21.2,1.675 c 0,0.216 0.45,0.506 1,0.644 0.55,0.138 1,0.39 1,0.561 0,0.17 0.36,0.404 0.8,0.519 1.196,0.313 0.977,0.006 -0.792,-1.111 -1.761,-1.112 -2.008,-1.187 -2.008,-0.613 m 4.8,2.808 c 0.507,0.44 1.12,0.794 1.361,0.787 0.55,-0.017 -1.297,-1.587 -1.867,-1.587 -0.229,0 -0.001,0.36 0.506,0.8 m 8.826,0.169 c -0.387,0.466 -0.324,0.529 0.351,0.353 0.453,-0.118 0.823,-0.374 0.823,-0.569 0,-0.539 -0.646,-0.421 -1.174,0.216 m -6.826,0.982 c 0,0.344 1.603,1.102 2.8,1.325 0.769,0.143 3.2,-0.863 3.2,-1.325 0,-0.518 -0.545,-0.428 -1.424,0.236 -1.009,0.764 -2.348,0.769 -2.976,0.013 -0.541,-0.652 -1.6,-0.816 -1.6,-0.249 m 22.988,37.862 c -0.873,0.534 -2.128,1.241 -2.788,1.572 -1.748,0.877 -2.784,1.764 -2.449,2.099 0.161,0.161 0.418,0.118 0.571,-0.096 0.336,-0.469 2.267,-1.603 3.778,-2.218 0.605,-0.247 1.1,-0.611 1.1,-0.809 0,-0.199 0.259,-0.361 0.576,-0.361 0.571,0 1.245,-0.712 0.952,-1.005 -0.083,-0.083 -0.866,0.285 -1.74,0.818"
         inkscape:connector-curvature="0"
         style="fill:#000000;fill-rule:evenodd;stroke:none" />
      <path
         id="path1"
         d="m 202.581,19.949 c -0.209,0.194 -1.191,0.797 -2.181,1.34 -2.925,1.604 -9.227,5.24 -10.77,6.213 -0.786,0.496 -1.88,1.126 -2.43,1.4 -0.902,0.449 -10.942,6.209 -12.4,7.114 -0.33,0.205 -3.3,1.927 -6.6,3.828 -3.3,1.9 -8.97,5.171 -12.6,7.269 -3.63,2.098 -9.39,5.425 -12.8,7.394 C 124.169,65.264 120.45,67.415 114.6,70.815 102.569,77.808 98.726,80 98.494,80 c -0.127,0 -0.515,0.251 -0.863,0.558 -0.347,0.306 -2.071,1.357 -3.831,2.334 -1.76,0.977 -3.875,2.166 -4.7,2.642 -0.825,0.476 -2.175,1.252 -3,1.723 -0.825,0.471 -2.04,1.186 -2.7,1.588 -0.66,0.402 -1.74,1.003 -2.4,1.335 -0.66,0.332 -1.47,0.784 -1.8,1.004 -0.33,0.221 -1.59,0.973 -2.8,1.672 -1.21,0.699 -3.19,1.846 -4.4,2.55 -1.21,0.703 -5.17,2.981 -8.8,5.063 -27.499,15.768 -28.569,16.429 -27.688,17.101 0.801,0.609 7.875,5 10.683,6.63 2.642,1.534 10.425,6.268 13.205,8.033 1.54,0.977 3.115,1.886 3.5,2.019 0.385,0.133 0.7,0.4 0.7,0.595 0,0.194 0.184,0.353 0.409,0.353 0.457,0 3.655,2.005 4.036,2.53 0.134,0.186 0.373,0.302 0.53,0.257 0.158,-0.045 1.128,0.452 2.156,1.104 2.976,1.89 2.859,1.906 7.959,-1.102 2.59,-1.527 4.935,-2.78 5.21,-2.783 0.275,-0.003 0.5,-0.167 0.5,-0.364 0,-0.197 0.874,-0.815 1.943,-1.374 4.458,-2.331 6.708,-3.607 7.609,-4.316 0.526,-0.414 1.128,-0.752 1.339,-0.752 0.21,0 0.84,-0.36 1.4,-0.8 0.559,-0.44 1.353,-0.8 1.763,-0.8 0.41,0 0.746,-0.189 0.746,-0.419 0,-0.231 0.495,-0.638 1.1,-0.905 0.605,-0.267 1.832,-0.96 2.728,-1.54 0.895,-0.58 2.605,-1.568 3.8,-2.195 1.194,-0.628 2.262,-1.244 2.372,-1.37 0.11,-0.126 0.47,-0.357 0.8,-0.512 0.33,-0.156 1.5,-0.812 2.6,-1.459 1.1,-0.646 2.45,-1.402 3,-1.68 0.55,-0.277 1.09,-0.608 1.2,-0.735 0.11,-0.127 0.785,-0.467 1.5,-0.756 0.715,-0.289 1.3,-0.651 1.3,-0.803 0,-0.152 0.63,-0.524 1.4,-0.826 0.77,-0.302 1.4,-0.675 1.4,-0.828 0,-0.153 0.315,-0.393 0.7,-0.532 0.385,-0.139 1.6,-0.791 2.7,-1.449 1.1,-0.657 2.27,-1.316 2.6,-1.464 0.33,-0.148 0.69,-0.382 0.8,-0.52 0.11,-0.138 1.73,-1.104 3.6,-2.147 1.87,-1.043 3.67,-2.069 4,-2.281 0.33,-0.212 1.05,-0.605 1.6,-0.874 0.55,-0.269 1.09,-0.582 1.2,-0.697 0.239,-0.248 1.717,-1.079 5.1,-2.868 1.375,-0.726 2.5,-1.46 2.5,-1.631 0,-0.17 0.246,-0.309 0.546,-0.309 0.3,0 0.975,-0.331 1.5,-0.735 1.399,-1.079 6.354,-3.726 6.354,-3.396 0,0.156 0.243,-0.048 0.54,-0.454 0.296,-0.406 1.082,-1.025 1.746,-1.376 1.963,-1.039 4.974,-2.748 7.114,-4.036 1.1,-0.663 2.54,-1.471 3.2,-1.796 0.66,-0.325 1.515,-0.775 1.9,-0.999 0.385,-0.224 1.015,-0.592 1.4,-0.816 0.385,-0.224 1.24,-0.682 1.9,-1.016 0.66,-0.335 1.869,-1.006 2.686,-1.492 8.368,-4.975 10.671,-6.284 11.06,-6.284 0.25,0 0.455,-0.135 0.457,-0.3 0.002,-0.165 0.407,-0.496 0.9,-0.736 1.307,-0.636 5.087,-2.756 10.049,-5.637 4.67,-2.712 5.091,-2.825 6.696,-1.798 1.992,1.275 6.456,3.876 9.099,5.302 4.131,2.229 6.625,3.642 6.959,3.945 0.169,0.152 0.302,54.651 0.297,121.109 -0.005,66.458 0.103,121.126 0.241,121.485 0.221,0.576 0.44,0.54 1.903,-0.316 0.909,-0.531 2.463,-1.38 3.453,-1.886 0.99,-0.506 2.34,-1.311 3,-1.788 0.66,-0.476 1.785,-1.116 2.5,-1.421 0.715,-0.305 1.3,-0.69 1.3,-0.857 0,-0.166 0.177,-0.302 0.392,-0.302 0.216,0 1.341,-0.6 2.5,-1.334 1.16,-0.734 2.693,-1.588 3.408,-1.898 0.715,-0.31 1.3,-0.699 1.3,-0.866 0,-0.166 0.151,-0.302 0.336,-0.302 0.184,0 2.119,-1.076 4.3,-2.392 2.18,-1.316 4.176,-2.396 4.435,-2.4 0.26,-0.004 0.732,-0.268 1.05,-0.586 0.318,-0.318 1.474,-1.083 2.568,-1.7 1.094,-0.617 3.231,-1.84 4.75,-2.718 1.519,-0.878 2.941,-1.598 3.161,-1.6 0.266,-0.003 0.4,-32.907 0.4,-97.904 0,-106.241 -0.153,-98.843 2.011,-97.359 0.434,0.298 1.599,0.995 2.589,1.55 5.308,2.972 17.334,10.005 17.6,10.293 0.11,0.119 0.83,0.555 1.6,0.97 3.871,2.084 5.846,3.197 6.291,3.545 0.27,0.211 1.489,0.902 2.71,1.535 1.22,0.633 3.969,2.186 6.109,3.45 2.139,1.264 4.382,2.573 4.984,2.907 0.602,0.335 3.122,1.808 5.6,3.273 2.478,1.464 5.316,3.074 6.306,3.576 0.99,0.502 2.356,1.327 3.035,1.834 0.68,0.507 1.329,0.829 1.443,0.714 0.115,-0.114 0.436,0.067 0.714,0.402 0.278,0.336 0.739,0.61 1.024,0.61 0.284,0 0.577,0.135 0.651,0.3 0.073,0.165 0.763,0.611 1.533,0.99 0.77,0.38 2.66,1.481 4.2,2.446 l 2.8,1.755 0.101,75.448 0.101,75.448 -1.501,0.919 c -0.826,0.505 -1.861,1.13 -2.301,1.389 -0.44,0.259 -2.42,1.434 -4.4,2.611 -1.98,1.177 -3.87,2.274 -4.2,2.436 -0.33,0.163 -1.32,0.731 -2.2,1.263 -0.88,0.532 -2.68,1.534 -4,2.226 -1.32,0.692 -2.716,1.538 -3.102,1.878 -0.387,0.341 -0.811,0.511 -0.943,0.379 -0.132,-0.132 -0.626,0.127 -1.098,0.574 -0.471,0.448 -1.217,0.987 -1.657,1.197 -0.44,0.21 -1.52,0.816 -2.4,1.347 -0.88,0.53 -2.32,1.351 -3.2,1.825 -0.88,0.473 -2.14,1.251 -2.8,1.728 -0.66,0.478 -1.65,1.086 -2.2,1.352 -0.55,0.266 -1.27,0.637 -1.6,0.824 -0.33,0.187 -1.036,0.569 -1.568,0.849 -1.993,1.046 -4.707,2.6 -8.168,4.676 -1.961,1.177 -3.664,2.14 -3.784,2.14 -0.119,0 -0.501,0.253 -0.849,0.562 -0.347,0.309 -1.711,1.127 -3.031,1.818 -1.32,0.692 -3.12,1.695 -4,2.229 -0.88,0.535 -2.59,1.472 -3.8,2.082 -1.21,0.61 -2.262,1.249 -2.337,1.421 -0.076,0.172 -1.066,0.783 -2.2,1.357 -1.135,0.575 -3.233,1.761 -4.663,2.636 -1.43,0.875 -3.59,2.143 -4.8,2.817 -1.21,0.675 -3.028,1.688 -4.041,2.252 -1.741,0.97 -6.031,3.486 -7.744,4.542 -1.94,1.196 -3.81,2.268 -6.291,3.605 -3.764,2.029 -4.443,2.418 -5.124,2.934 -0.33,0.251 -1.549,0.971 -2.709,1.6 -1.161,0.63 -2.781,1.548 -3.6,2.042 -0.82,0.493 -1.941,1.125 -2.491,1.404 -0.55,0.28 -1.72,0.973 -2.6,1.541 -1.412,0.911 -3.586,2.144 -7.6,4.31 -0.66,0.357 -1.29,0.738 -1.4,0.848 -0.11,0.11 -0.83,0.538 -1.6,0.951 -3.327,1.786 -5.039,2.787 -5.601,3.273 -1.72,1.49 -4.142,1.487 -5.885,-0.007 -1.083,-0.929 -1.72,-1.299 -5.536,-3.217 -2.188,-1.1 -4.216,-2.225 -4.507,-2.5 -0.29,-0.275 -0.766,-0.5 -1.057,-0.5 -0.291,0 -0.623,-0.247 -0.739,-0.549 -0.116,-0.301 -0.719,-0.676 -1.34,-0.832 -0.622,-0.156 -1.357,-0.471 -1.633,-0.7 -0.401,-0.333 -0.502,-25.004 -0.502,-122.363 V 113.61 l -2.3,1.238 c -1.265,0.68 -2.48,1.379 -2.7,1.552 -0.353,0.278 -1.843,1.148 -4.4,2.57 -0.44,0.245 -2.993,1.747 -5.674,3.338 -2.681,1.59 -4.96,2.892 -5.065,2.892 -0.105,0 -1.148,0.63 -2.317,1.4 -1.169,0.77 -2.319,1.4 -2.555,1.4 -0.236,0 -0.653,0.224 -0.926,0.497 -0.467,0.467 -4.639,2.894 -6.863,3.993 -0.55,0.271 -1.09,0.613 -1.2,0.759 -0.168,0.222 -2.839,1.704 -6.035,3.347 -0.757,0.389 -0.768,2.023 -0.667,98.7 0.066,64.02 -0.035,98.304 -0.29,98.304 -0.325,0 -2.472,-1.189 -5.808,-3.217 -0.33,-0.2 -1.77,-0.954 -3.2,-1.674 -1.43,-0.72 -2.711,-1.46 -2.846,-1.645 -0.246,-0.336 -0.925,-0.751 -3.554,-2.172 -0.77,-0.416 -2.12,-1.177 -3,-1.69 -0.88,-0.513 -2.052,-1.165 -2.605,-1.449 -0.553,-0.285 -1.408,-0.892 -1.9,-1.351 -0.492,-0.458 -0.895,-0.746 -0.895,-0.639 0,0.106 -1.125,-0.454 -2.5,-1.245 -1.375,-0.792 -3.13,-1.777 -3.9,-2.19 -0.77,-0.413 -2.03,-1.119 -2.8,-1.567 -0.77,-0.449 -3.74,-2.163 -6.6,-3.809 -7.003,-4.029 -6.661,-3.828 -7.878,-4.631 -0.592,-0.392 -1.935,-1.191 -2.984,-1.777 -1.049,-0.585 -2.634,-1.475 -3.523,-1.978 -0.888,-0.503 -2.234,-1.2 -2.99,-1.551 -0.756,-0.35 -2.286,-1.236 -3.4,-1.968 -1.114,-0.732 -2.51,-1.582 -3.102,-1.889 -2.235,-1.159 -5.749,-3.274 -6.425,-3.868 -0.747,-0.657 -1.211,-0.524 -3.56,1.014 -0.584,0.383 -2.547,1.596 -4.362,2.696 -1.814,1.1 -3.946,2.401 -4.738,2.891 -0.791,0.49 -2.608,1.554 -4.038,2.365 -1.43,0.811 -2.69,1.581 -2.8,1.71 -0.11,0.129 -0.65,0.494 -1.2,0.812 -2.559,1.48 -7.19,4.266 -9,5.413 -1.1,0.698 -2.72,1.686 -3.6,2.197 -4.728,2.743 -6.61,4.174 -6.106,4.642 0.375,0.348 38.456,22.459 51.106,29.673 0.77,0.439 5.776,3.341 11.125,6.448 5.348,3.107 9.812,5.649 9.919,5.649 0.172,0 3.033,1.713 5.179,3.103 0.428,0.276 1.047,0.624 1.377,0.774 0.33,0.149 1.92,1.048 3.533,1.997 1.613,0.949 3.021,1.726 3.128,1.726 0.107,0 0.98,0.54 1.939,1.2 0.959,0.66 1.844,1.2 1.965,1.2 0.122,0 1.397,0.72 2.835,1.6 1.438,0.88 2.691,1.6 2.784,1.6 0.093,0 2.205,1.195 4.693,2.654 2.488,1.46 5.333,3.108 6.323,3.662 0.99,0.554 7.29,4.194 14,8.089 6.71,3.895 15.62,9.057 19.8,11.47 4.18,2.414 11.688,6.76 16.683,9.657 4.996,2.897 9.188,5.268 9.317,5.268 0.128,0 0.731,0.369 1.34,0.819 1.122,0.829 1.843,0.751 3.66,-0.396 0.33,-0.209 2.85,-1.676 5.6,-3.261 7.303,-4.21 13.713,-7.928 14.4,-8.354 0.33,-0.204 2.94,-1.712 5.8,-3.35 8.805,-5.043 38.764,-22.275 39.4,-22.661 1.377,-0.837 6.704,-3.959 8,-4.688 0.77,-0.434 2.32,-1.355 3.444,-2.049 1.125,-0.693 2.19,-1.26 2.369,-1.26 0.178,0 0.608,-0.249 0.956,-0.553 0.347,-0.304 1.711,-1.125 3.031,-1.826 1.32,-0.7 3.84,-2.154 5.6,-3.229 1.76,-1.076 3.352,-1.964 3.538,-1.974 0.186,-0.01 0.816,-0.357 1.4,-0.771 1.068,-0.757 1.841,-1.206 6.262,-3.635 1.32,-0.725 2.58,-1.457 2.8,-1.627 0.22,-0.17 2.83,-1.696 5.8,-3.392 2.97,-1.695 5.94,-3.397 6.6,-3.783 0.66,-0.385 4.17,-2.408 7.8,-4.494 3.63,-2.087 10.11,-5.83 14.4,-8.318 4.29,-2.488 9.87,-5.721 12.4,-7.184 17.951,-10.38 18.809,-10.91 19.011,-11.752 0.114,-0.474 0.158,-44.949 0.098,-98.834 l -0.109,-97.972 -2,-1.185 C 365.938,113.361 353.154,106 352.974,106 c -0.19,0 -3.155,-1.773 -5.197,-3.108 -0.428,-0.279 -1.227,-0.73 -1.777,-1.002 -0.971,-0.481 -8.691,-4.98 -13.26,-7.73 -1.243,-0.748 -2.373,-1.36 -2.51,-1.36 -0.137,0 -1.37,-0.694 -2.74,-1.542 -1.369,-0.848 -4.11,-2.474 -6.09,-3.613 -1.98,-1.14 -3.87,-2.232 -4.2,-2.426 -0.63,-0.373 -7.602,-4.362 -10,-5.722 -0.77,-0.437 -4.64,-2.672 -8.6,-4.968 -8.88,-5.147 -7.8,-4.518 -11.6,-6.758 -3.302,-1.947 -4.723,-2.766 -7.3,-4.213 -8.064,-4.526 -30.73,-17.784 -30.833,-18.035 -0.074,-0.177 -0.326,-0.323 -0.56,-0.323 -0.235,0 -1.705,-0.743 -3.267,-1.65 -5.295,-3.077 -13.233,-7.661 -14.64,-8.453 -1.841,-1.036 -6.307,-3.611 -9.8,-5.65 -1.54,-0.899 -3.16,-1.834 -3.6,-2.078 -1.932,-1.071 -3.858,-2.195 -5.274,-3.077 -0.839,-0.523 -1.841,-1.066 -2.225,-1.208 -0.384,-0.142 -1.659,-0.872 -2.832,-1.622 -2.507,-1.604 -3.565,-1.995 -4.088,-1.513"
         inkscape:connector-curvature="0"
         style="fill:#000000;fill-rule:evenodd;stroke:none" />
      <path
         id="path2"
         d="m 312.734,303.869 c -0.366,0.097 -0.766,0.437 -0.888,0.755 -0.18,0.471 -0.037,0.458 0.766,-0.069 0.776,-0.508 1.399,-1.146 0.888,-0.909 -0.055,0.026 -0.4,0.126 -0.766,0.223"
         inkscape:connector-curvature="0"
         style="fill:#000000;fill-rule:evenodd;stroke:none" />
      <path
         id="path3"
         d="m 374.597,217.2 c 0,53.35 0.046,75.175 0.103,48.5 0.057,-26.675 0.057,-70.325 0,-97 -0.057,-26.675 -0.103,-4.85 -0.103,48.5"
         inkscape:connector-curvature="0"
         style="fill:#000000;fill-rule:evenodd;stroke:none" />
      <path
         id="path4"
         d="m 202.349,19.9 c -0.488,0.623 -0.477,0.644 0.1,0.193 0.357,-0.279 0.987,-0.397 1.4,-0.262 0.62,0.202 0.646,0.169 0.151,-0.187 -0.816,-0.587 -1.014,-0.556 -1.651,0.256 m -6.449,3.529 c -1.495,0.811 -1.404,1.149 0.1,0.371 0.66,-0.341 1.2,-0.706 1.2,-0.81 0,-0.258 -0.043,-0.243 -1.3,0.439 m 24.9,6.191 c 1.387,0.941 2.178,1.215 1.2,0.416 -0.55,-0.45 -1.18,-0.819 -1.4,-0.821 -0.22,-0.002 -0.13,0.181 0.2,0.405 m -59.304,13.73 c -1.921,1.181 -2.458,1.739 -0.896,0.931 1.254,-0.648 2.945,-1.855 2.6,-1.856 -0.11,0 -0.877,0.416 -1.704,0.925 m 40.766,23.35 c -0.102,0.165 0.41,0.3 1.138,0.3 0.728,0 1.24,-0.135 1.138,-0.3 -0.102,-0.165 -0.614,-0.3 -1.138,-0.3 -0.524,0 -1.036,0.135 -1.138,0.3 M 197,69.839 c -1.32,0.778 -1.976,1.294 -1.459,1.148 1.041,-0.295 4.679,-2.622 4.026,-2.575 -0.092,0.007 -1.247,0.649 -2.567,1.427 m -93.1,6.79 c -1.495,0.811 -1.404,1.149 0.1,0.371 0.66,-0.341 1.2,-0.706 1.2,-0.81 0,-0.258 -0.043,-0.243 -1.3,0.439 m -9.6,5.6 c -1.495,0.811 -1.404,1.149 0.1,0.371 0.66,-0.341 1.2,-0.706 1.2,-0.81 0,-0.258 -0.043,-0.243 -1.3,0.439 m 78.276,1.551 c -0.749,0.56 -0.744,0.572 0.13,0.352 0.499,-0.126 1.004,-0.387 1.124,-0.58 0.338,-0.548 -0.394,-0.414 -1.254,0.228 m -15.687,8.843 c -0.489,0.342 -0.884,0.837 -0.877,1.1 0.007,0.262 0.196,0.162 0.42,-0.223 0.224,-0.385 0.669,-0.7 0.988,-0.7 0.319,0 0.58,-0.18 0.58,-0.4 0,-0.524 -0.063,-0.511 -1.111,0.223 M 361.2,110.579 c 0,0.11 0.54,0.48 1.2,0.821 0.66,0.341 1.2,0.531 1.2,0.421 0,-0.11 -0.54,-0.48 -1.2,-0.821 -0.66,-0.341 -1.2,-0.531 -1.2,-0.421 M 185.299,235.451 c -0.094,115.831 -0.063,122.079 0.601,122.6 0.62,0.486 0.643,0.476 0.201,-0.091 -0.396,-0.508 -0.521,-25.85 -0.601,-122.6 l -0.101,-121.96 -0.1,122.051 M 287.857,115.404 c 0.108,0.282 0.635,0.597 1.17,0.699 1.279,0.244 1.228,0.083 -0.197,-0.628 -0.888,-0.443 -1.123,-0.46 -0.973,-0.071 m 82.943,0.775 c 0,0.11 0.54,0.48 1.2,0.821 0.66,0.341 1.2,0.531 1.2,0.421 0,-0.11 -0.54,-0.48 -1.2,-0.821 -0.66,-0.341 -1.2,-0.531 -1.2,-0.421 m -256.056,0.987 c -0.519,0.421 -0.854,0.847 -0.744,0.948 0.11,0.1 0.646,-0.245 1.192,-0.766 1.188,-1.136 0.882,-1.261 -0.448,-0.182 m 177.377,0.578 c 0.616,0.581 1.223,1.056 1.349,1.056 0.416,0 -0.79,-1.236 -1.637,-1.678 -0.597,-0.31 -0.515,-0.134 0.288,0.622 M 36,118.302 c 0,0.177 0.54,0.526 1.2,0.776 0.66,0.249 1.2,0.383 1.2,0.298 0,-0.086 -0.54,-0.435 -1.2,-0.776 -0.66,-0.341 -1.2,-0.475 -1.2,-0.298 m 9.77,6.05 c 0.12,0.193 0.625,0.454 1.124,0.58 0.874,0.22 0.879,0.208 0.13,-0.352 -0.86,-0.642 -1.592,-0.776 -1.254,-0.228 m 119.93,0.06 c -0.495,0.199 -0.9,0.458 -0.9,0.575 0,0.388 0.637,0.221 1.424,-0.374 0.884,-0.67 0.761,-0.717 -0.524,-0.201 M 326,136.979 c 0,0.11 0.54,0.48 1.2,0.821 0.66,0.341 1.2,0.531 1.2,0.421 0,-0.11 -0.54,-0.48 -1.2,-0.821 -0.66,-0.341 -1.2,-0.531 -1.2,-0.421 m 2.8,1.54 c 0,0.075 0.45,0.528 1,1.006 0.55,0.478 1,0.712 1,0.518 0,-0.193 -0.45,-0.646 -1,-1.006 -0.55,-0.361 -1,-0.594 -1,-0.518 m -254.201,1.882 c -0.136,0.221 -0.732,0.307 -1.324,0.191 -1.071,-0.21 -1.072,-0.209 -0.103,0.213 0.758,0.329 1.107,0.287 1.586,-0.191 0.337,-0.338 0.495,-0.614 0.351,-0.614 -0.144,0 -0.373,0.181 -0.51,0.401 M 333.6,217.08 c -0.11,41.624 -0.065,75.545 0.101,75.379 0.166,-0.166 0.256,-34.222 0.2,-75.68 L 333.8,141.4 333.6,217.08 M 63.554,298.345 c -0.525,0.41 -1.359,0.872 -1.854,1.027 -0.495,0.155 -0.9,0.436 -0.9,0.624 0,0.189 0.495,0.087 1.1,-0.225 1.239,-0.64 3.23,-2.148 2.854,-2.162 -0.135,-0.005 -0.675,0.326 -1.2,0.736 m 255.846,2.269 c -0.66,0.303 -0.919,0.558 -0.576,0.568 0.342,0.01 0.972,-0.246 1.4,-0.569 0.948,-0.717 0.745,-0.717 -0.824,10e-4 m -2.7,1.615 c -1.495,0.811 -1.404,1.149 0.1,0.371 0.66,-0.341 1.2,-0.706 1.2,-0.81 0,-0.258 -0.043,-0.243 -1.3,0.439 m -7.238,3.954 c -0.13,0.339 -0.468,0.623 -0.749,0.631 -0.282,0.008 -1.053,0.485 -1.713,1.059 -0.853,0.742 -0.911,0.853 -0.2,0.382 0.55,-0.365 1.388,-0.83 1.861,-1.034 0.914,-0.394 1.546,-1.148 1.228,-1.465 -0.104,-0.105 -0.297,0.087 -0.427,0.427 M 49.9,306.629 c -1.495,0.811 -1.404,1.149 0.1,0.371 0.66,-0.341 1.2,-0.706 1.2,-0.81 0,-0.258 -0.043,-0.243 -1.3,0.439 m 48.976,0.537 c 0.092,0.311 0.608,0.84 1.146,1.175 0.758,0.473 0.843,0.48 0.378,0.034 -0.33,-0.316 -0.846,-0.845 -1.146,-1.175 -0.439,-0.483 -0.513,-0.49 -0.378,-0.034 M 37.6,313.89 c -0.33,0.125 -0.744,0.471 -0.92,0.769 -0.176,0.297 -0.581,0.541 -0.9,0.541 -0.319,0 -0.58,0.186 -0.58,0.414 0,0.477 0.837,0.06 2.4,-1.194 1.031,-0.827 1.031,-0.92 0,-0.53 m 255.384,1.737 c -0.424,0.686 -0.045,0.753 0.793,0.14 0.649,-0.474 0.669,-0.567 0.123,-0.567 -0.359,0 -0.771,0.192 -0.916,0.427 m -4.484,2.769 c -0.715,0.436 -1.3,0.879 -1.3,0.985 0,0.105 0.63,-0.18 1.4,-0.634 0.77,-0.454 1.4,-0.898 1.4,-0.987 0,-0.255 -0.126,-0.202 -1.5,0.636 m -27.766,15.873 c -0.366,0.097 -0.766,0.437 -0.888,0.755 -0.18,0.471 -0.037,0.458 0.766,-0.069 0.776,-0.508 1.399,-1.146 0.888,-0.909 -0.055,0.026 -0.4,0.126 -0.766,0.223 M 230.4,351.833 c -0.558,0.31 -0.735,0.552 -0.4,0.548 0.33,-0.003 0.949,-0.271 1.376,-0.594 0.963,-0.728 0.369,-0.7 -0.976,0.046 m -11.859,6.964 c -0.473,0.191 -0.971,0.527 -1.107,0.748 -0.136,0.22 0.296,0.13 0.959,-0.202 0.664,-0.331 1.207,-0.678 1.207,-0.772 0,-0.205 0.02,-0.209 -1.059,0.226 m -22.908,4.552 c 0.412,0.368 2.767,1.451 2.767,1.272 0,-0.231 -2.218,-1.421 -2.647,-1.421 -0.157,0 -0.211,0.067 -0.12,0.149 m -78.833,1.415 c 0.55,0.45 1.18,0.819 1.4,0.821 0.428,0.003 -0.295,-0.551 -1.6,-1.225 -0.531,-0.275 -0.464,-0.139 0.2,0.404 m 91,0.112 -0.8,0.828 0.878,-0.454 c 0.924,-0.478 1.596,-1.267 1.046,-1.226 -0.178,0.013 -0.684,0.396 -1.124,0.852 m 27.7,30.953 c -1.495,0.811 -1.404,1.149 0.1,0.371 0.66,-0.341 1.2,-0.706 1.2,-0.81 0,-0.258 -0.043,-0.243 -1.3,0.439 m -4.8,2.8 c -1.495,0.811 -1.404,1.149 0.1,0.371 0.66,-0.341 1.2,-0.706 1.2,-0.81 0,-0.258 -0.043,-0.243 -1.3,0.439 m -13.8,7.997 c -0.935,0.561 -1.7,1.114 -1.7,1.229 0,0.216 2.699,-1.317 3.38,-1.919 0.687,-0.608 0.047,-0.345 -1.68,0.69"
         inkscape:connector-curvature="0"
         style="fill:#000000;fill-rule:evenodd;stroke:none" />
    </g>
  </g>
</svg>
