<?xml version="1.0" encoding="utf-8"?>
<!-- Generator: Adobe Illustrator 16.0.0, SVG Export Plug-In . SVG Version: 6.00 Build 0)  -->
<!DOCTYPE svg PUBLIC "-//W3C//DTD SVG 1.1//EN" "http://www.w3.org/Graphics/SVG/1.1/DTD/svg11.dtd">
<svg version="1.1" id="Capa_1" xmlns="http://www.w3.org/2000/svg" xmlns:xlink="http://www.w3.org/1999/xlink" x="0px" y="0px"
	 width="512px" height="512px" viewBox="0 0 512 512" enable-background="new 0 0 512 512" xml:space="preserve">
<g>
	<g>
		<path fill="#FFFFFF" d="M502.641,171.183L383.481,52.023c-12.479-12.479-32.766-12.479-45.245,0L195.122,195.138
			c-4.16,4.16-4.16,10.922,0,15.082s10.922,4.16,15.082,0L353.298,67.126c4.159-4.16,10.922-4.16,15.081,0l119.16,119.16
			c4.159,4.16,4.159,10.922,0,15.082L365.755,323.149c-4.16,4.16-4.16,10.923,0,15.082c2.091,2.069,4.82,3.114,7.551,3.114
			c2.731,0,5.461-1.045,7.552-3.135l121.783-121.784C515.12,203.948,515.12,183.662,502.641,171.183z"/>
	</g>
</g>
<g>
	<g>
		<path fill="#FFFFFF" d="M402.168,88.5c-4.16-4.16-10.922-4.16-15.082,0L280.428,195.159c-4.16,4.16-4.16,10.922,0,15.082
			c2.091,2.069,4.82,3.115,7.551,3.115c2.731,0,5.461-1.045,7.531-3.115l106.659-106.659C406.328,99.422,406.328,92.66,402.168,88.5
			z"/>
	</g>
</g>
<g>
	<g>
		<path fill="#FFFFFF" d="M330.644,192.023H31.998c-5.887,0-10.666-4.778-10.666-10.666s4.779-10.666,10.666-10.666h213.318
			c5.887,0,10.666-4.778,10.666-10.666s-4.779-10.666-10.666-10.666H31.998C14.356,149.359,0,163.715,0,181.357v255.982
			c0,17.642,14.356,31.997,31.998,31.997h298.646c29.395,0,53.329-23.935,53.329-53.329V245.354
			C383.973,215.958,360.038,192.023,330.644,192.023z M362.641,416.007c0,17.642-14.355,31.998-31.997,31.998H31.998
			c-5.887,0-10.666-4.779-10.666-10.666V211.542c3.328,1.173,6.933,1.813,10.666,1.813h298.646
			c17.642,0,31.997,14.356,31.997,31.998V416.007z"/>
	</g>
</g>
</svg>
