<svg id="SvgjsSvg1024" width="288" height="288" xmlns="http://www.w3.org/2000/svg" version="1.1" xmlns:xlink="http://www.w3.org/1999/xlink" xmlns:svgjs="http://svgjs.com/svgjs"><defs id="SvgjsDefs1025"></defs><g id="SvgjsG1026"><svg xmlns="http://www.w3.org/2000/svg" width="288" height="288" enable-background="new 0 0 512 512" viewBox="0 0 512 512"><path fill="#1f1e1e" d="M502.641,171.183L383.481,52.023c-12.479-12.479-32.766-12.479-45.245,0L195.122,195.138
			c-4.16,4.16-4.16,10.922,0,15.082s10.922,4.16,15.082,0L353.298,67.126c4.159-4.16,10.922-4.16,15.081,0l119.16,119.16
			c4.159,4.16,4.159,10.922,0,15.082L365.755,323.149c-4.16,4.16-4.16,10.923,0,15.082c2.091,2.069,4.82,3.114,7.551,3.114
			c2.731,0,5.461-1.045,7.552-3.135l121.783-121.784C515.12,203.948,515.12,183.662,502.641,171.183z" class="colorFFF svgShape"></path><path fill="#1f1e1e" d="M402.168,88.5c-4.16-4.16-10.922-4.16-15.082,0L280.428,195.159c-4.16,4.16-4.16,10.922,0,15.082
			c2.091,2.069,4.82,3.115,7.551,3.115c2.731,0,5.461-1.045,7.531-3.115l106.659-106.659C406.328,99.422,406.328,92.66,402.168,88.5
			z" class="colorFFF svgShape"></path><path fill="#1f1e1e" d="M330.644,192.023H31.998c-5.887,0-10.666-4.778-10.666-10.666s4.779-10.666,10.666-10.666h213.318
			c5.887,0,10.666-4.778,10.666-10.666s-4.779-10.666-10.666-10.666H31.998C14.356,149.359,0,163.715,0,181.357v255.982
			c0,17.642,14.356,31.997,31.998,31.997h298.646c29.395,0,53.329-23.935,53.329-53.329V245.354
			C383.973,215.958,360.038,192.023,330.644,192.023z M362.641,416.007c0,17.642-14.355,31.998-31.997,31.998H31.998
			c-5.887,0-10.666-4.779-10.666-10.666V211.542c3.328,1.173,6.933,1.813,10.666,1.813h298.646
			c17.642,0,31.997,14.356,31.997,31.998V416.007z" class="colorFFF svgShape"></path></svg></g></svg>