<?xml version="1.0" encoding="UTF-8"?>
<svg xmlns="http://www.w3.org/2000/svg" xmlns:xlink="http://www.w3.org/1999/xlink" width="14px" height="14px" viewBox="0 0 14 14" version="1.1">
<g id="surface1">
<path style=" stroke:none;fill-rule:nonzero;fill:rgb(100%,89.411765%,46.666667%);fill-opacity:1;" d="M 7.4375 14 L 0.601562 14 L 0.601562 10.554688 C 0.601562 9.511719 1.160156 8.597656 1.996094 8.09375 C 1.160156 7.589844 0.601562 6.675781 0.601562 5.632812 L 0.601562 2.1875 L 7.4375 2.1875 L 7.4375 5.632812 C 7.4375 6.675781 6.878906 7.589844 6.042969 8.09375 C 6.878906 8.597656 7.4375 9.511719 7.4375 10.554688 Z M 7.4375 14 "/>
<path style=" stroke:none;fill-rule:nonzero;fill:rgb(100%,65.490196%,20%);fill-opacity:1;" d="M 7.4375 5.632812 L 7.4375 2.1875 L 4.019531 2.1875 L 4.019531 14 L 7.4375 14 L 7.4375 10.554688 C 7.4375 9.511719 6.878906 8.597656 6.042969 8.09375 C 6.878906 7.589844 7.4375 6.675781 7.4375 5.632812 Z M 7.4375 5.632812 "/>
<path style=" stroke:none;fill-rule:nonzero;fill:rgb(54.509804%,53.72549%,57.254902%);fill-opacity:1;" d="M 0 2.1875 L 8.039062 2.1875 L 8.039062 3.007812 L 0 3.007812 Z M 0 2.1875 "/>
<path style=" stroke:none;fill-rule:nonzero;fill:rgb(100%,96.078431%,80%);fill-opacity:1;" d="M 6.070312 13.726562 L 1.96875 13.726562 L 1.96875 13.042969 C 1.96875 11.914062 2.890625 10.992188 4.019531 10.992188 C 5.148438 10.992188 6.070312 11.914062 6.070312 13.042969 Z M 6.070312 13.726562 "/>
<path style=" stroke:none;fill-rule:nonzero;fill:rgb(100%,85.490196%,66.666667%);fill-opacity:1;" d="M 4.019531 10.992188 L 4.019531 13.726562 L 6.070312 13.726562 L 6.070312 13.042969 C 6.070312 11.914062 5.148438 10.992188 4.019531 10.992188 Z M 4.019531 10.992188 "/>
<path style=" stroke:none;fill-rule:nonzero;fill:rgb(54.509804%,53.72549%,57.254902%);fill-opacity:1;" d="M 0 13.179688 L 8.039062 13.179688 L 8.039062 14 L 0 14 Z M 0 13.179688 "/>
<path style=" stroke:none;fill-rule:nonzero;fill:rgb(34.117647%,33.333333%,36.078431%);fill-opacity:1;" d="M 4.019531 13.179688 L 8.039062 13.179688 L 8.039062 14 L 4.019531 14 Z M 4.019531 13.179688 "/>
<path style=" stroke:none;fill-rule:nonzero;fill:rgb(34.117647%,33.333333%,36.078431%);fill-opacity:1;" d="M 4.019531 2.1875 L 8.039062 2.1875 L 8.039062 3.007812 L 4.019531 3.007812 Z M 4.019531 2.1875 "/>
<path style=" stroke:none;fill-rule:nonzero;fill:rgb(87.843137%,87.843137%,88.627451%);fill-opacity:1;" d="M 8.941406 3.007812 C 8.113281 3.007812 7.4375 2.332031 7.4375 1.503906 C 7.4375 0.675781 8.113281 0 8.941406 0 C 9.769531 0 10.445312 0.675781 10.445312 1.503906 C 10.445312 2.332031 9.769531 3.007812 8.941406 3.007812 Z M 8.941406 0.820312 C 8.566406 0.820312 8.257812 1.128906 8.257812 1.503906 C 8.257812 1.878906 8.566406 2.1875 8.941406 2.1875 C 9.316406 2.1875 9.625 1.878906 9.625 1.503906 C 9.625 1.128906 9.316406 0.820312 8.941406 0.820312 Z M 8.941406 0.820312 "/>
<path style=" stroke:none;fill-rule:nonzero;fill:rgb(67.45098%,67.058824%,69.411765%);fill-opacity:1;" d="M 9.625 1.503906 C 9.625 1.878906 9.316406 2.1875 8.941406 2.1875 L 8.941406 3.007812 C 9.769531 3.007812 10.445312 2.332031 10.445312 1.503906 C 10.445312 0.675781 9.769531 0 8.941406 0 L 8.941406 0.820312 C 9.316406 0.820312 9.625 1.128906 9.625 1.503906 Z M 9.625 1.503906 "/>
<path style=" stroke:none;fill-rule:nonzero;fill:rgb(72.156863%,49.803922%,85.098039%);fill-opacity:1;" d="M 8.941406 12.304688 C 6.152344 12.304688 3.882812 10.035156 3.882812 7.246094 C 3.882812 4.457031 6.152344 2.1875 8.941406 2.1875 C 11.730469 2.1875 14 4.457031 14 7.246094 C 14 10.035156 11.730469 12.304688 8.941406 12.304688 Z M 8.941406 12.304688 "/>
<path style=" stroke:none;fill-rule:nonzero;fill:rgb(50.196078%,20.392157%,67.843137%);fill-opacity:1;" d="M 8.941406 2.1875 L 8.941406 12.304688 C 11.730469 12.304688 14 10.035156 14 7.246094 C 14 4.457031 11.730469 2.1875 8.941406 2.1875 Z M 8.941406 2.1875 "/>
<path style=" stroke:none;fill-rule:nonzero;fill:rgb(89.019608%,80.784314%,94.117647%);fill-opacity:1;" d="M 8.941406 10.664062 C 7.058594 10.664062 5.523438 9.128906 5.523438 7.246094 C 5.523438 5.363281 7.058594 3.828125 8.941406 3.828125 C 10.824219 3.828125 12.359375 5.363281 12.359375 7.246094 C 12.359375 9.128906 10.824219 10.664062 8.941406 10.664062 Z M 8.941406 10.664062 "/>
<path style=" stroke:none;fill-rule:nonzero;fill:rgb(83.529412%,70.588235%,90.980392%);fill-opacity:1;" d="M 12.359375 7.246094 C 12.359375 5.363281 10.824219 3.828125 8.941406 3.828125 L 8.941406 10.664062 C 10.824219 10.664062 12.359375 9.128906 12.359375 7.246094 Z M 12.359375 7.246094 "/>
<path style=" stroke:none;fill-rule:nonzero;fill:rgb(54.509804%,53.72549%,57.254902%);fill-opacity:1;" d="M 10.308594 7.65625 L 8.53125 7.65625 L 8.53125 5.332031 L 9.351562 5.332031 L 9.351562 6.835938 L 10.308594 6.835938 Z M 10.308594 7.65625 "/>
<path style=" stroke:none;fill-rule:nonzero;fill:rgb(34.117647%,33.333333%,36.078431%);fill-opacity:1;" d="M 9.351562 5.332031 L 8.941406 5.332031 L 8.941406 7.65625 L 10.308594 7.65625 L 10.308594 6.835938 L 9.351562 6.835938 Z M 9.351562 5.332031 "/>
</g>
</svg>
