<?xml version="1.0" encoding="UTF-8"?>
<svg xmlns="http://www.w3.org/2000/svg" xmlns:xlink="http://www.w3.org/1999/xlink" width="14px" height="14px" viewBox="0 0 14 14" version="1.1">
<g id="surface1">
<path style=" stroke:none;fill-rule:nonzero;fill:rgb(100%,100%,100%);fill-opacity:1;" d="M 13.84375 4.410156 L 7.136719 0.910156 C 7.050781 0.863281 6.949219 0.863281 6.867188 0.910156 L 0.15625 4.410156 C 0.0625 4.457031 0 4.558594 0 4.667969 C 0 4.777344 0.0625 4.875 0.15625 4.925781 L 6.867188 8.425781 C 6.90625 8.449219 6.953125 8.457031 7 8.457031 C 7.046875 8.457031 7.09375 8.449219 7.132812 8.425781 L 13.84375 4.925781 C 13.9375 4.875 14 4.777344 14 4.667969 C 14 4.558594 13.9375 4.457031 13.84375 4.410156 Z M 7 7.839844 L 0.921875 4.667969 L 7 1.496094 L 13.078125 4.667969 Z M 7 7.839844 "/>
<path style=" stroke:none;fill-rule:nonzero;fill:rgb(100%,100%,100%);fill-opacity:1;" d="M 13.84375 6.742188 L 12.867188 6.230469 C 12.726562 6.160156 12.550781 6.214844 12.472656 6.355469 C 12.398438 6.5 12.457031 6.675781 12.597656 6.75 L 13.078125 7 L 7 10.171875 L 0.921875 7 L 1.402344 6.75 C 1.546875 6.675781 1.601562 6.5 1.527344 6.355469 C 1.453125 6.214844 1.273438 6.160156 1.132812 6.234375 L 0.15625 6.742188 C 0.0625 6.792969 0 6.890625 0 7 C 0 7.109375 0.0625 7.207031 0.15625 7.257812 L 6.867188 10.757812 C 6.90625 10.78125 6.953125 10.792969 7 10.792969 C 7.046875 10.792969 7.09375 10.78125 7.132812 10.757812 L 13.84375 7.257812 C 13.9375 7.207031 14 7.109375 14 7 C 14 6.890625 13.9375 6.792969 13.84375 6.742188 Z M 13.84375 6.742188 "/>
<path style=" stroke:none;fill-rule:nonzero;fill:rgb(100%,100%,100%);fill-opacity:1;" d="M 13.84375 9.074219 L 12.867188 8.566406 C 12.726562 8.492188 12.550781 8.546875 12.472656 8.6875 C 12.398438 8.832031 12.457031 9.007812 12.597656 9.082031 L 13.078125 9.332031 L 7 12.503906 L 0.921875 9.332031 L 1.402344 9.082031 C 1.546875 9.007812 1.601562 8.832031 1.527344 8.691406 C 1.453125 8.546875 1.273438 8.492188 1.132812 8.566406 L 0.15625 9.074219 C 0.0625 9.125 0 9.222656 0 9.332031 C 0 9.441406 0.0625 9.542969 0.15625 9.589844 L 6.867188 13.089844 C 6.90625 13.113281 6.953125 13.125 7 13.125 C 7.046875 13.125 7.09375 13.113281 7.132812 13.089844 L 13.84375 9.589844 C 13.9375 9.542969 14 9.441406 14 9.332031 C 14 9.222656 13.9375 9.125 13.84375 9.074219 Z M 13.84375 9.074219 "/>
</g>
</svg>
