<?xml version="1.0" encoding="UTF-8"?>
<svg xmlns="http://www.w3.org/2000/svg" xmlns:xlink="http://www.w3.org/1999/xlink" width="14px" height="14px" viewBox="0 0 14 14" version="1.1">
<g id="surface1">
<path style=" stroke:none;fill-rule:nonzero;fill:rgb(11.372549%,90.980392%,94.509804%);fill-opacity:1;" d="M 14 6.972656 C 14 10.820312 10.847656 14 7 14 C 3.152344 14 0 10.820312 0 6.972656 C 0 5.117188 0.753906 3.347656 2.050781 2.050781 L 1.4375 2.050781 C 1.207031 2.050781 1.023438 1.871094 1.023438 1.640625 C 1.023438 1.410156 1.207031 1.230469 1.4375 1.230469 L 3.078125 1.230469 C 3.304688 1.230469 3.484375 1.410156 3.484375 1.640625 L 3.484375 3.28125 C 3.484375 3.511719 3.304688 3.691406 3.078125 3.691406 C 2.847656 3.691406 2.664062 3.511719 2.664062 3.28125 L 2.664062 2.59375 C 1.5 3.742188 0.820312 5.324219 0.820312 6.972656 C 0.820312 10.367188 3.605469 13.179688 7 13.179688 C 10.394531 13.179688 13.179688 10.367188 13.179688 6.972656 C 13.179688 3.578125 10.394531 0.820312 7 0.820312 C 6.769531 0.820312 6.589844 0.640625 6.589844 0.410156 C 6.589844 0.179688 6.769531 0 7 0 C 10.847656 0 14 3.125 14 6.972656 Z M 14 6.972656 "/>
<path style=" stroke:none;fill-rule:nonzero;fill:rgb(9.019608%,67.45098%,90.980392%);fill-opacity:1;" d="M 10.691406 6.972656 C 10.691406 7.988281 10.28125 8.917969 9.609375 9.582031 C 8.945312 10.253906 8.015625 10.664062 7 10.664062 C 4.957031 10.664062 3.28125 9.015625 3.28125 6.972656 C 3.28125 5.957031 3.691406 5.027344 4.363281 4.363281 C 5.027344 3.691406 5.984375 3.28125 7 3.28125 C 8.015625 3.28125 8.945312 3.691406 9.609375 4.363281 C 10.28125 5.027344 10.691406 5.957031 10.691406 6.972656 Z M 10.691406 6.972656 "/>
<path style=" stroke:none;fill-rule:nonzero;fill:rgb(8.627451%,53.72549%,98.823529%);fill-opacity:1;" d="M 10.691406 6.972656 C 10.691406 7.988281 10.28125 8.917969 9.609375 9.582031 C 8.945312 10.253906 8.015625 10.664062 7 10.664062 L 7 3.28125 C 8.015625 3.28125 8.945312 3.691406 9.609375 4.363281 C 10.28125 5.027344 10.691406 5.957031 10.691406 6.972656 Z M 10.691406 6.972656 "/>
<path style=" stroke:none;fill-rule:nonzero;fill:rgb(11.372549%,90.980392%,94.509804%);fill-opacity:1;" d="M 7.410156 2.871094 L 7.410156 3.691406 C 7.410156 3.921875 7.230469 4.101562 7 4.101562 C 6.769531 4.101562 6.589844 3.921875 6.589844 3.691406 L 6.589844 2.871094 C 6.589844 2.640625 6.769531 2.460938 7 2.460938 C 7.230469 2.460938 7.410156 2.640625 7.410156 2.871094 Z M 7.410156 2.871094 "/>
<path style=" stroke:none;fill-rule:nonzero;fill:rgb(11.372549%,90.980392%,94.509804%);fill-opacity:1;" d="M 7.410156 10.253906 L 7.410156 11.074219 C 7.410156 11.304688 7.230469 11.484375 7 11.484375 C 6.769531 11.484375 6.589844 11.304688 6.589844 11.074219 L 6.589844 10.253906 C 6.589844 10.023438 6.769531 9.84375 7 9.84375 C 7.230469 9.84375 7.410156 10.023438 7.410156 10.253906 Z M 7.410156 10.253906 "/>
<path style=" stroke:none;fill-rule:nonzero;fill:rgb(11.372549%,90.980392%,94.509804%);fill-opacity:1;" d="M 3.691406 7.382812 L 2.871094 7.382812 C 2.644531 7.382812 2.460938 7.199219 2.460938 6.972656 C 2.460938 6.746094 2.644531 6.5625 2.871094 6.5625 L 3.691406 6.5625 C 3.917969 6.5625 4.101562 6.746094 4.101562 6.972656 C 4.101562 7.199219 3.917969 7.382812 3.691406 7.382812 Z M 3.691406 7.382812 "/>
<path style=" stroke:none;fill-rule:nonzero;fill:rgb(10.588235%,85.098039%,87.058824%);fill-opacity:1;" d="M 11.101562 7.382812 L 10.28125 7.382812 C 10.054688 7.382812 9.871094 7.199219 9.871094 6.972656 C 9.871094 6.746094 10.054688 6.5625 10.28125 6.5625 L 11.101562 6.5625 C 11.328125 6.5625 11.511719 6.746094 11.511719 6.972656 C 11.511719 7.199219 11.328125 7.382812 11.101562 7.382812 Z M 11.101562 7.382812 "/>
<path style=" stroke:none;fill-rule:nonzero;fill:rgb(11.372549%,90.980392%,94.509804%);fill-opacity:1;" d="M 3.78125 10.164062 C 3.621094 10.003906 3.621094 9.742188 3.78125 9.582031 L 4.363281 9.003906 C 4.523438 8.84375 4.78125 8.84375 4.941406 9.003906 C 5.101562 9.164062 5.101562 9.421875 4.941406 9.582031 L 4.363281 10.164062 C 4.203125 10.324219 3.941406 10.324219 3.78125 10.164062 Z M 3.78125 10.164062 "/>
<path style=" stroke:none;fill-rule:nonzero;fill:rgb(10.588235%,85.098039%,87.058824%);fill-opacity:1;" d="M 9.03125 4.941406 C 8.871094 4.78125 8.871094 4.523438 9.03125 4.363281 L 9.609375 3.78125 C 9.769531 3.621094 10.03125 3.621094 10.191406 3.78125 C 10.351562 3.941406 10.351562 4.203125 10.191406 4.363281 L 9.609375 4.941406 C 9.449219 5.101562 9.191406 5.101562 9.03125 4.941406 Z M 9.03125 4.941406 "/>
<path style=" stroke:none;fill-rule:nonzero;fill:rgb(10.588235%,85.098039%,87.058824%);fill-opacity:1;" d="M 9.609375 10.164062 L 9.03125 9.582031 C 8.871094 9.421875 8.871094 9.164062 9.03125 9.003906 C 9.191406 8.84375 9.449219 8.84375 9.609375 9.003906 L 10.191406 9.582031 C 10.351562 9.742188 10.351562 10.003906 10.191406 10.164062 C 10.03125 10.324219 9.769531 10.324219 9.609375 10.164062 Z M 9.609375 10.164062 "/>
<path style=" stroke:none;fill-rule:nonzero;fill:rgb(11.372549%,90.980392%,94.509804%);fill-opacity:1;" d="M 4.363281 4.941406 L 3.78125 4.363281 C 3.621094 4.203125 3.621094 3.941406 3.78125 3.78125 C 3.941406 3.621094 4.203125 3.621094 4.363281 3.78125 L 4.941406 4.363281 C 5.101562 4.523438 5.101562 4.78125 4.941406 4.941406 C 4.78125 5.101562 4.523438 5.101562 4.363281 4.941406 Z M 4.363281 4.941406 "/>
<path style=" stroke:none;fill-rule:nonzero;fill:rgb(10.588235%,85.098039%,87.058824%);fill-opacity:1;" d="M 7.410156 10.253906 L 7.410156 11.074219 C 7.410156 11.304688 7.230469 11.484375 7 11.484375 L 7 9.84375 C 7.230469 9.84375 7.410156 10.023438 7.410156 10.253906 Z M 7.410156 10.253906 "/>
<path style=" stroke:none;fill-rule:nonzero;fill:rgb(10.588235%,85.098039%,87.058824%);fill-opacity:1;" d="M 7.410156 2.871094 L 7.410156 3.691406 C 7.410156 3.921875 7.230469 4.101562 7 4.101562 L 7 2.460938 C 7.230469 2.460938 7.410156 2.640625 7.410156 2.871094 Z M 7.410156 2.871094 "/>
<path style=" stroke:none;fill-rule:nonzero;fill:rgb(88.235294%,89.411765%,98.431373%);fill-opacity:1;" d="M 8.105469 8.078125 C 7.960938 8.246094 7.679688 8.246094 7.53125 8.078125 L 7 7.546875 L 6.714844 7.257812 C 6.632812 7.1875 6.589844 7.078125 6.589844 6.972656 L 6.589844 5.332031 C 6.589844 5.101562 6.769531 4.921875 7 4.921875 C 7.230469 4.921875 7.410156 5.101562 7.410156 5.332031 L 7.410156 6.800781 L 8.105469 7.503906 C 8.273438 7.660156 8.273438 7.925781 8.105469 8.078125 Z M 8.105469 8.078125 "/>
<path style=" stroke:none;fill-rule:nonzero;fill:rgb(77.254902%,78.823529%,96.862745%);fill-opacity:1;" d="M 8.105469 8.078125 C 7.960938 8.246094 7.679688 8.246094 7.53125 8.078125 L 7 7.546875 L 7 4.921875 C 7.230469 4.921875 7.410156 5.101562 7.410156 5.332031 L 7.410156 6.800781 L 8.105469 7.503906 C 8.273438 7.660156 8.273438 7.925781 8.105469 8.078125 Z M 8.105469 8.078125 "/>
<path style=" stroke:none;fill-rule:nonzero;fill:rgb(10.588235%,85.098039%,87.058824%);fill-opacity:1;" d="M 14 6.972656 C 14 10.820312 10.847656 14 7 14 L 7 13.179688 C 10.394531 13.179688 13.179688 10.367188 13.179688 6.972656 C 13.179688 3.578125 10.394531 0.820312 7 0.820312 L 7 0 C 10.847656 0 14 3.125 14 6.972656 Z M 14 6.972656 "/>
<path style=" stroke:none;fill-rule:nonzero;fill:rgb(11.372549%,90.980392%,94.509804%);fill-opacity:1;" d="M 7 2.460938 C 4.515625 2.460938 2.460938 4.488281 2.460938 6.972656 C 2.460938 9.457031 4.515625 11.484375 7 11.484375 C 9.484375 11.484375 11.511719 9.457031 11.511719 6.972656 C 11.511719 4.488281 9.484375 2.460938 7 2.460938 Z M 7 10.664062 C 4.964844 10.664062 3.28125 9.007812 3.28125 6.972656 C 3.28125 4.9375 4.964844 3.28125 7 3.28125 C 9.035156 3.28125 10.691406 4.9375 10.691406 6.972656 C 10.691406 9.007812 9.035156 10.664062 7 10.664062 Z M 7 10.664062 "/>
<path style=" stroke:none;fill-rule:nonzero;fill:rgb(10.588235%,85.098039%,87.058824%);fill-opacity:1;" d="M 7 2.460938 L 7 3.28125 C 9.035156 3.28125 10.691406 4.9375 10.691406 6.972656 C 10.691406 9.007812 9.035156 10.664062 7 10.664062 L 7 11.484375 C 9.484375 11.484375 11.511719 9.457031 11.511719 6.972656 C 11.511719 4.488281 9.484375 2.460938 7 2.460938 Z M 7 2.460938 "/>
</g>
</svg>
