<svg id="SvgjsSvg1018" width="288" height="288" xmlns="http://www.w3.org/2000/svg" version="1.1" xmlns:xlink="http://www.w3.org/1999/xlink" xmlns:svgjs="http://svgjs.com/svgjs"><defs id="SvgjsDefs1019"></defs><g id="SvgjsG1020"><svg xmlns="http://www.w3.org/2000/svg" width="288" height="288" enable-background="new 0 0 512 512" viewBox="0 0 512 512"><path fill="#1f1e1e" d="M458.667,85.333H53.333C23.936,85.333,0,109.269,0,138.667v234.667c0,29.397,23.936,53.333,53.333,53.333
			h405.333c29.397,0,53.333-23.936,53.333-53.333V138.667C512,109.269,488.064,85.333,458.667,85.333z M490.667,373.333
			c0,17.644-14.357,32-32,32H53.333c-17.643,0-32-14.356-32-32V138.667c0-17.643,14.357-32,32-32h405.333c17.643,0,32,14.357,32,32
			L490.667,373.333L490.667,373.333z" class="colorFFF svgShape"></path><path fill="#1f1e1e" d="M501.333 149.333H10.667C4.779 149.333 0 154.112 0 160v64c0 5.888 4.779 10.667 10.667 10.667h490.667c5.888 0 10.667-4.779 10.667-10.667v-64C512 154.112 507.221 149.333 501.333 149.333zM490.667 213.333H21.333v-42.667h469.333L490.667 213.333 490.667 213.333zM202.667 298.667h-128c-5.888 0-10.667 4.778-10.667 10.667S68.779 320 74.667 320h128c5.888 0 10.667-4.779 10.667-10.667S208.555 298.667 202.667 298.667zM202.667 341.333h-128C68.779 341.333 64 346.111 64 352s4.779 10.667 10.667 10.667h128c5.888 0 10.667-4.778 10.667-10.667C213.333 346.111 208.555 341.333 202.667 341.333zM416 277.333h-21.333c-17.643 0-32 14.356-32 32v21.333c0 17.643 14.357 32 32 32H416c17.643 0 32-14.357 32-32v-21.333C448 291.691 433.643 277.333 416 277.333zM426.667 330.667c0 5.888-4.779 10.667-10.667 10.667h-21.333c-5.888 0-10.667-4.779-10.667-10.667v-21.333c0-5.889 4.779-10.667 10.667-10.667H416c5.888 0 10.667 4.778 10.667 10.667V330.667z" class="colorFFF svgShape"></path></svg></g></svg>