<svg height="462pt" viewBox="0 -35 462.80415 462" width="462pt" xmlns="http://www.w3.org/2000/svg"><path d="m426.503906 187.902344h36.300782v113.601562h-102.902344c-22.09375.003906-40.003906-17.90625-40-40v-33.601562c-.003906-22.09375 17.90625-40.007813 40-40zm0 0" fill="#00acea"/><path d="m427.003906 301.402344v90h-377c-27.609375-.011719-49.988281-22.390625-49.99999975-50v-287.800782h.10156275c1.445312 26.511719 23.347656 47.273438 49.898437 47.300782h376.5v87h-66.601562c-22.09375-.007813-40.003906 17.90625-40 40v33.601562c-.003906 22.09375 17.90625 40.003906 40 40h67.101562zm-148.601562-55.5c0-59.09375-47.902344-107-107-107-59.09375 0-107 47.90625-107 107s47.90625 107 107 107c59.097656.003906 107.003906-47.902344 107-107zm0 0" fill="#00efd1"/><path d="m375.804688 100.402344v.5h-325.800782c-26.5625.011718-48.488281-20.773438-49.898437-47.300782-.0859378-.898437-.1171878-1.796874-.10156275-2.699218v-.5c.01171875-27.609375 22.39062475-49.992188 49.99999975-50h300.800782c13.804687.003906 24.996093 11.195312 25 25zm0 0" fill="#00acea"/><g fill="#fedb41"><path d="m278.402344 245.902344c0 59.09375-47.902344 107-107 107-59.09375 0-107-47.90625-107-107s47.90625-107 107-107c59.097656 0 107 47.90625 107 107zm0 0"/><path d="m315.804688 60.703125h-255.800782c-5.523437 0-10-4.476563-10-10s4.476563-10 10-10h255.800782c5.523437 0 10 4.476563 10 10s-4.476563 10-10 10zm0 0"/><path d="m369.902344 217.902344c-5.515625.015625-9.980469 4.484375-10 10v33.601562c0 5.519532 4.480468 10 10 10 5.523437 0 10-4.480468 10-10v-33.601562c.011718-2.65625-1.039063-5.203125-2.917969-7.082032-1.875-1.878906-4.425781-2.925781-7.082031-2.917968zm0 0"/></g><path d="m171.402344 201.503906c9.21875.015625 16.683594 7.480469 16.703125 16.699219 0 5.523437 4.476562 10 10 10 5.523437 0 10-4.476563 10-10-.023438-16.410156-10.917969-30.816406-26.703125-35.300781v-6c0-5.523438-4.476563-10-10-10-5.519532 0-10 4.476562-10 10v6c-17.621094 4.988281-28.867188 22.210937-26.347656 40.355468 2.519531 18.140626 18.035156 31.644532 36.347656 31.644532 9.226562 0 16.703125 7.476562 16.703125 16.699218 0 9.222657-7.476563 16.699219-16.703125 16.699219-9.222656 0-16.699219-7.476562-16.699219-16.699219 0-5.523437-4.476563-10-10-10s-10 4.476563-10 10c.019531 16.410157 10.917969 30.816407 26.699219 35.300782v8.101562c0 5.519532 4.480468 10 10 10 5.523437 0 10-4.480468 10-10v-8.101562c17.625-4.992188 28.871094-22.210938 26.351562-40.355469-2.519531-18.140625-18.035156-31.644531-36.351562-31.644531-9.222656 0-16.699219-7.476563-16.699219-16.699219s7.476563-16.699219 16.699219-16.699219zm0 0" fill="#00acea"/></svg>