<?xml version="1.0" encoding="UTF-8"?>
<svg xmlns="http://www.w3.org/2000/svg" xmlns:xlink="http://www.w3.org/1999/xlink" width="14px" height="14px" viewBox="0 0 14 14" version="1.1">
<g id="surface1">
<path style=" stroke:none;fill-rule:nonzero;fill:rgb(0%,0%,0%);fill-opacity:1;" d="M 1.632812 13.066406 L 2.101562 13.066406 C 2.230469 13.066406 2.332031 12.960938 2.332031 12.832031 C 2.332031 12.703125 2.230469 12.597656 2.101562 12.597656 L 1.632812 12.597656 C 1.503906 12.597656 1.398438 12.703125 1.398438 12.832031 C 1.398438 12.960938 1.503906 13.066406 1.632812 13.066406 Z M 1.632812 13.066406 "/>
<path style=" stroke:none;fill-rule:nonzero;fill:rgb(0%,0%,0%);fill-opacity:1;" d="M 4.433594 13.066406 L 4.898438 13.066406 C 5.027344 13.066406 5.132812 12.960938 5.132812 12.832031 C 5.132812 12.703125 5.027344 12.597656 4.898438 12.597656 L 4.433594 12.597656 C 4.304688 12.597656 4.199219 12.703125 4.199219 12.832031 C 4.199219 12.960938 4.304688 13.066406 4.433594 13.066406 Z M 4.433594 13.066406 "/>
<path style=" stroke:none;fill-rule:nonzero;fill:rgb(0%,0%,0%);fill-opacity:1;" d="M 4.433594 4.667969 L 4.898438 4.667969 C 5.027344 4.667969 5.132812 4.5625 5.132812 4.433594 C 5.132812 4.304688 5.027344 4.199219 4.898438 4.199219 L 4.433594 4.199219 C 4.304688 4.199219 4.199219 4.304688 4.199219 4.433594 C 4.199219 4.5625 4.304688 4.667969 4.433594 4.667969 Z M 4.433594 4.667969 "/>
<path style=" stroke:none;fill-rule:nonzero;fill:rgb(0%,0%,0%);fill-opacity:1;" d="M 5.832031 13.066406 L 6.300781 13.066406 C 6.429688 13.066406 6.535156 12.960938 6.535156 12.832031 C 6.535156 12.703125 6.429688 12.597656 6.300781 12.597656 L 5.832031 12.597656 C 5.703125 12.597656 5.601562 12.703125 5.601562 12.832031 C 5.601562 12.960938 5.703125 13.066406 5.832031 13.066406 Z M 5.832031 13.066406 "/>
<path style=" stroke:none;fill-rule:nonzero;fill:rgb(0%,0%,0%);fill-opacity:1;" d="M 3.035156 4.667969 L 3.5 4.667969 C 3.628906 4.667969 3.734375 4.5625 3.734375 4.433594 C 3.734375 4.304688 3.628906 4.199219 3.5 4.199219 L 3.035156 4.199219 C 2.90625 4.199219 2.800781 4.304688 2.800781 4.433594 C 2.800781 4.5625 2.90625 4.667969 3.035156 4.667969 Z M 3.035156 4.667969 "/>
<path style=" stroke:none;fill-rule:nonzero;fill:rgb(0%,0%,0%);fill-opacity:1;" d="M 1.632812 4.667969 L 2.101562 4.667969 C 2.230469 4.667969 2.332031 4.5625 2.332031 4.433594 C 2.332031 4.304688 2.230469 4.199219 2.101562 4.199219 L 1.632812 4.199219 C 1.503906 4.199219 1.398438 4.304688 1.398438 4.433594 C 1.398438 4.5625 1.503906 4.667969 1.632812 4.667969 Z M 1.632812 4.667969 "/>
<path style=" stroke:none;fill-rule:nonzero;fill:rgb(0%,0%,0%);fill-opacity:1;" d="M 13.300781 10.265625 C 13.171875 10.265625 13.066406 10.371094 13.066406 10.5 L 13.066406 12.832031 C 13.066406 13.21875 12.753906 13.53125 12.367188 13.53125 L 1.167969 13.53125 C 0.78125 13.53125 0.464844 13.21875 0.464844 12.832031 L 0.464844 3.5 C 0.464844 3.074219 0.859375 2.773438 1.234375 2.671875 L 8.253906 0.566406 C 8.394531 0.507812 8.855469 0.386719 9.109375 0.558594 C 9.257812 0.65625 9.332031 0.863281 9.332031 1.167969 C 9.332031 1.292969 9.4375 1.398438 9.566406 1.398438 C 9.695312 1.398438 9.800781 1.292969 9.800781 1.167969 C 9.800781 0.699219 9.65625 0.363281 9.371094 0.171875 C 8.867188 -0.167969 8.160156 0.101562 8.101562 0.125 L 1.105469 2.222656 C 0.554688 2.375 0 2.828125 0 3.5 L 0 12.832031 C 0 13.476562 0.523438 14 1.167969 14 L 12.367188 14 C 13.011719 14 13.535156 13.476562 13.535156 12.832031 L 13.535156 10.5 C 13.535156 10.371094 13.429688 10.265625 13.300781 10.265625 Z M 13.300781 10.265625 "/>
<path style=" stroke:none;fill-rule:nonzero;fill:rgb(0%,0%,0%);fill-opacity:1;" d="M 5.832031 4.667969 L 6.300781 4.667969 C 6.429688 4.667969 6.535156 4.5625 6.535156 4.433594 C 6.535156 4.304688 6.429688 4.199219 6.300781 4.199219 L 5.832031 4.199219 C 5.703125 4.199219 5.601562 4.304688 5.601562 4.433594 C 5.601562 4.5625 5.703125 4.667969 5.832031 4.667969 Z M 5.832031 4.667969 "/>
<path style=" stroke:none;fill-rule:nonzero;fill:rgb(0%,0%,0%);fill-opacity:1;" d="M 3.035156 13.066406 L 3.5 13.066406 C 3.628906 13.066406 3.734375 12.960938 3.734375 12.832031 C 3.734375 12.703125 3.628906 12.597656 3.5 12.597656 L 3.035156 12.597656 C 2.90625 12.597656 2.800781 12.703125 2.800781 12.832031 C 2.800781 12.960938 2.90625 13.066406 3.035156 13.066406 Z M 3.035156 13.066406 "/>
<path style=" stroke:none;fill-rule:nonzero;fill:rgb(0%,0%,0%);fill-opacity:1;" d="M 13.535156 7.464844 L 13.535156 4.433594 C 13.535156 3.789062 13.011719 3.265625 12.367188 3.265625 L 3.636719 3.265625 L 11.015625 1.859375 C 11.015625 1.859375 11.28125 1.808594 11.464844 1.957031 C 11.597656 2.066406 11.667969 2.273438 11.667969 2.566406 C 11.667969 2.695312 11.769531 2.800781 11.898438 2.800781 C 12.027344 2.800781 12.132812 2.695312 12.132812 2.566406 C 12.132812 2.121094 12.003906 1.792969 11.753906 1.589844 C 11.398438 1.304688 10.9375 1.402344 10.921875 1.402344 L 1.121094 3.269531 C 1.003906 3.292969 0.921875 3.402344 0.933594 3.519531 C 0.945312 3.640625 1.046875 3.734375 1.167969 3.734375 L 12.367188 3.734375 C 12.753906 3.734375 13.066406 4.046875 13.066406 4.433594 L 13.066406 7.464844 L 8.398438 7.464844 C 8.144531 7.464844 7.933594 7.675781 7.933594 7.933594 L 7.933594 9.332031 C 7.933594 9.589844 8.144531 9.800781 8.398438 9.800781 L 13.535156 9.800781 C 13.789062 9.800781 14 9.589844 14 9.332031 L 14 7.933594 C 14 7.675781 13.789062 7.464844 13.535156 7.464844 Z M 8.398438 9.332031 L 8.398438 7.933594 L 13.535156 7.933594 L 13.535156 9.332031 Z M 8.398438 9.332031 "/>
<path style=" stroke:none;fill-rule:nonzero;fill:rgb(0%,0%,0%);fill-opacity:1;" d="M 10.5 4.667969 C 10.628906 4.667969 10.734375 4.5625 10.734375 4.433594 C 10.734375 4.304688 10.628906 4.199219 10.5 4.199219 L 10.035156 4.199219 C 9.90625 4.199219 9.800781 4.304688 9.800781 4.433594 C 9.800781 4.5625 9.90625 4.667969 10.035156 4.667969 Z M 10.5 4.667969 "/>
<path style=" stroke:none;fill-rule:nonzero;fill:rgb(0%,0%,0%);fill-opacity:1;" d="M 9.101562 4.667969 C 9.230469 4.667969 9.332031 4.5625 9.332031 4.433594 C 9.332031 4.304688 9.230469 4.199219 9.101562 4.199219 L 8.632812 4.199219 C 8.503906 4.199219 8.398438 4.304688 8.398438 4.433594 C 8.398438 4.5625 8.503906 4.667969 8.632812 4.667969 Z M 9.101562 4.667969 "/>
<path style=" stroke:none;fill-rule:nonzero;fill:rgb(0%,0%,0%);fill-opacity:1;" d="M 11.898438 4.667969 C 12.027344 4.667969 12.132812 4.5625 12.132812 4.433594 C 12.132812 4.304688 12.027344 4.199219 11.898438 4.199219 L 11.433594 4.199219 C 11.304688 4.199219 11.199219 4.304688 11.199219 4.433594 C 11.199219 4.5625 11.304688 4.667969 11.433594 4.667969 Z M 11.898438 4.667969 "/>
<path style=" stroke:none;fill-rule:nonzero;fill:rgb(0%,0%,0%);fill-opacity:1;" d="M 9.105469 8.398438 C 8.976562 8.398438 8.871094 8.503906 8.871094 8.632812 C 8.871094 8.761719 8.976562 8.867188 9.105469 8.867188 C 9.234375 8.867188 9.339844 8.761719 9.339844 8.632812 C 9.339844 8.503906 9.234375 8.398438 9.105469 8.398438 Z M 9.105469 8.398438 "/>
<path style=" stroke:none;fill-rule:nonzero;fill:rgb(0%,0%,0%);fill-opacity:1;" d="M 9.101562 13.066406 C 9.230469 13.066406 9.332031 12.960938 9.332031 12.832031 C 9.332031 12.703125 9.230469 12.597656 9.101562 12.597656 L 8.632812 12.597656 C 8.503906 12.597656 8.398438 12.703125 8.398438 12.832031 C 8.398438 12.960938 8.503906 13.066406 8.632812 13.066406 Z M 9.101562 13.066406 "/>
<path style=" stroke:none;fill-rule:nonzero;fill:rgb(0%,0%,0%);fill-opacity:1;" d="M 11.898438 13.066406 C 12.027344 13.066406 12.132812 12.960938 12.132812 12.832031 C 12.132812 12.703125 12.027344 12.597656 11.898438 12.597656 L 11.433594 12.597656 C 11.304688 12.597656 11.199219 12.703125 11.199219 12.832031 C 11.199219 12.960938 11.304688 13.066406 11.433594 13.066406 Z M 11.898438 13.066406 "/>
<path style=" stroke:none;fill-rule:nonzero;fill:rgb(0%,0%,0%);fill-opacity:1;" d="M 7.234375 4.667969 L 7.699219 4.667969 C 7.828125 4.667969 7.933594 4.5625 7.933594 4.433594 C 7.933594 4.304688 7.828125 4.199219 7.699219 4.199219 L 7.234375 4.199219 C 7.105469 4.199219 7 4.304688 7 4.433594 C 7 4.5625 7.105469 4.667969 7.234375 4.667969 Z M 7.234375 4.667969 "/>
<path style=" stroke:none;fill-rule:nonzero;fill:rgb(0%,0%,0%);fill-opacity:1;" d="M 7.234375 13.066406 L 7.699219 13.066406 C 7.828125 13.066406 7.933594 12.960938 7.933594 12.832031 C 7.933594 12.703125 7.828125 12.597656 7.699219 12.597656 L 7.234375 12.597656 C 7.105469 12.597656 7 12.703125 7 12.832031 C 7 12.960938 7.105469 13.066406 7.234375 13.066406 Z M 7.234375 13.066406 "/>
<path style=" stroke:none;fill-rule:nonzero;fill:rgb(0%,0%,0%);fill-opacity:1;" d="M 10.5 13.066406 C 10.628906 13.066406 10.734375 12.960938 10.734375 12.832031 C 10.734375 12.703125 10.628906 12.597656 10.5 12.597656 L 10.035156 12.597656 C 9.90625 12.597656 9.800781 12.703125 9.800781 12.832031 C 9.800781 12.960938 9.90625 13.066406 10.035156 13.066406 Z M 10.5 13.066406 "/>
</g>
</svg>
