<?xml version="1.0" encoding="UTF-8"?>
<svg xmlns="http://www.w3.org/2000/svg" xmlns:xlink="http://www.w3.org/1999/xlink" width="14px" height="14px" viewBox="0 0 14 14" version="1.1">
<g id="surface1">
<path style=" stroke:none;fill-rule:nonzero;fill:rgb(0%,67.45098%,91.764706%);fill-opacity:1;" d="M 12.890625 6.75 L 13.988281 6.75 L 13.988281 10.183594 L 10.878906 10.183594 C 10.210938 10.183594 9.667969 9.640625 9.667969 8.972656 L 9.667969 7.957031 C 9.667969 7.289062 10.210938 6.75 10.878906 6.75 Z M 12.890625 6.75 "/>
<path style=" stroke:none;fill-rule:nonzero;fill:rgb(0%,93.72549%,81.960784%);fill-opacity:1;" d="M 12.90625 10.179688 L 12.90625 12.898438 L 1.511719 12.898438 C 0.675781 12.898438 0 12.222656 0 11.386719 L 0 2.691406 L 0.00390625 2.691406 C 0.046875 3.492188 0.707031 4.117188 1.511719 4.121094 L 12.890625 4.121094 L 12.890625 6.75 L 10.878906 6.75 C 10.210938 6.75 9.667969 7.289062 9.667969 7.957031 L 9.667969 8.972656 C 9.667969 9.640625 10.210938 10.183594 10.878906 10.183594 L 12.90625 10.183594 Z M 8.414062 8.503906 C 8.414062 6.714844 6.964844 5.269531 5.179688 5.269531 C 3.394531 5.269531 1.945312 6.714844 1.945312 8.503906 C 1.945312 10.289062 3.394531 11.734375 5.179688 11.734375 C 6.964844 11.734375 8.414062 10.289062 8.414062 8.503906 Z M 8.414062 8.503906 "/>
<path style=" stroke:none;fill-rule:nonzero;fill:rgb(0%,67.45098%,91.764706%);fill-opacity:1;" d="M 11.359375 4.105469 L 11.359375 4.121094 L 1.511719 4.121094 C 0.707031 4.121094 0.046875 3.492188 0.00390625 2.691406 C 0 2.664062 0 2.636719 0 2.609375 L 0 2.59375 C 0 1.757812 0.675781 1.082031 1.511719 1.082031 L 10.601562 1.082031 C 11.019531 1.082031 11.359375 1.421875 11.359375 1.835938 Z M 11.359375 4.105469 "/>
<path style=" stroke:none;fill-rule:nonzero;fill:rgb(99.607843%,85.882353%,25.490196%);fill-opacity:1;" d="M 8.414062 8.503906 C 8.414062 10.289062 6.964844 11.734375 5.179688 11.734375 C 3.394531 11.734375 1.945312 10.289062 1.945312 8.503906 C 1.945312 6.714844 3.394531 5.269531 5.179688 5.269531 C 6.964844 5.269531 8.414062 6.714844 8.414062 8.503906 Z M 8.414062 8.503906 "/>
<path style=" stroke:none;fill-rule:nonzero;fill:rgb(99.607843%,85.882353%,25.490196%);fill-opacity:1;" d="M 9.546875 2.90625 L 1.8125 2.90625 C 1.648438 2.90625 1.511719 2.769531 1.511719 2.601562 C 1.511719 2.433594 1.648438 2.300781 1.8125 2.300781 L 9.546875 2.300781 C 9.710938 2.300781 9.847656 2.433594 9.847656 2.601562 C 9.847656 2.769531 9.710938 2.90625 9.546875 2.90625 Z M 9.546875 2.90625 "/>
<path style=" stroke:none;fill-rule:nonzero;fill:rgb(99.607843%,85.882353%,25.490196%);fill-opacity:1;" d="M 11.179688 7.65625 C 11.011719 7.65625 10.878906 7.792969 10.878906 7.957031 L 10.878906 8.972656 C 10.878906 9.140625 11.011719 9.277344 11.179688 9.277344 C 11.347656 9.277344 11.480469 9.140625 11.480469 8.972656 L 11.480469 7.957031 C 11.484375 7.878906 11.449219 7.800781 11.394531 7.742188 C 11.335938 7.6875 11.261719 7.65625 11.179688 7.65625 Z M 11.179688 7.65625 "/>
<path style=" stroke:none;fill-rule:nonzero;fill:rgb(0%,67.45098%,91.764706%);fill-opacity:1;" d="M 5.179688 7.160156 C 5.460938 7.160156 5.683594 7.386719 5.683594 7.664062 C 5.683594 7.832031 5.820312 7.96875 5.988281 7.96875 C 6.15625 7.96875 6.289062 7.832031 6.289062 7.664062 C 6.289062 7.167969 5.960938 6.734375 5.484375 6.597656 L 5.484375 6.417969 C 5.484375 6.25 5.347656 6.113281 5.179688 6.113281 C 5.015625 6.113281 4.878906 6.25 4.878906 6.417969 L 4.878906 6.597656 C 4.34375 6.75 4.003906 7.269531 4.082031 7.816406 C 4.15625 8.367188 4.628906 8.773438 5.179688 8.773438 C 5.460938 8.773438 5.683594 9 5.683594 9.277344 C 5.683594 9.558594 5.460938 9.785156 5.179688 9.785156 C 4.902344 9.785156 4.675781 9.558594 4.675781 9.277344 C 4.675781 9.113281 4.539062 8.976562 4.375 8.976562 C 4.207031 8.976562 4.070312 9.113281 4.070312 9.277344 C 4.070312 9.773438 4.402344 10.210938 4.878906 10.347656 L 4.878906 10.589844 C 4.878906 10.757812 5.015625 10.894531 5.179688 10.894531 C 5.347656 10.894531 5.484375 10.757812 5.484375 10.589844 L 5.484375 10.347656 C 6.015625 10.195312 6.355469 9.675781 6.277344 9.125 C 6.203125 8.578125 5.734375 8.167969 5.179688 8.167969 C 4.902344 8.167969 4.675781 7.945312 4.675781 7.664062 C 4.675781 7.386719 4.902344 7.160156 5.179688 7.160156 Z M 5.179688 7.160156 "/>
</g>
</svg>
