<?xml version="1.0" encoding="UTF-8"?>
<svg xmlns="http://www.w3.org/2000/svg" xmlns:xlink="http://www.w3.org/1999/xlink" width="20px" height="14px" viewBox="0 0 14 14" version="1.1">
<g id="surface1">
<path style=" stroke:none;fill-rule:nonzero;fill:rgb(31.372549%,71.372549%,81.176471%);fill-opacity:1;" d="M 1.96875 12.03125 L 2.84375 12.03125 L 2.84375 13.34375 L 1.96875 13.34375 Z M 1.96875 12.03125 "/>
<path style=" stroke:none;fill-rule:nonzero;fill:rgb(23.529412%,67.843137%,78.823529%);fill-opacity:1;" d="M 2.84375 10.71875 L 3.71875 10.71875 L 3.71875 13.34375 L 2.84375 13.34375 Z M 2.84375 10.71875 "/>
<path style=" stroke:none;fill-rule:nonzero;fill:rgb(31.372549%,71.372549%,81.176471%);fill-opacity:1;" d="M 3.71875 11.375 L 4.59375 11.375 L 4.59375 13.34375 L 3.71875 13.34375 Z M 3.71875 11.375 "/>
<path style=" stroke:none;fill-rule:nonzero;fill:rgb(23.529412%,67.843137%,78.823529%);fill-opacity:1;" d="M 8.09375 10.9375 L 8.96875 10.9375 L 8.96875 13.34375 L 8.09375 13.34375 Z M 8.09375 10.9375 "/>
<path style=" stroke:none;fill-rule:nonzero;fill:rgb(23.529412%,67.843137%,78.823529%);fill-opacity:1;" d="M 4.59375 9.625 L 5.46875 9.625 L 5.46875 13.34375 L 4.59375 13.34375 Z M 4.59375 9.625 "/>
<path style=" stroke:none;fill-rule:nonzero;fill:rgb(31.372549%,71.372549%,81.176471%);fill-opacity:1;" d="M 7.21875 9.625 L 8.09375 9.625 L 8.09375 13.34375 L 7.21875 13.34375 Z M 7.21875 9.625 "/>
<path style=" stroke:none;fill-rule:nonzero;fill:rgb(31.372549%,71.372549%,81.176471%);fill-opacity:1;" d="M 5.46875 10.0625 L 6.34375 10.0625 L 6.34375 13.34375 L 5.46875 13.34375 Z M 5.46875 10.0625 "/>
<path style=" stroke:none;fill-rule:nonzero;fill:rgb(23.529412%,67.843137%,78.823529%);fill-opacity:1;" d="M 6.34375 7.65625 L 7.21875 7.65625 L 7.21875 13.34375 L 6.34375 13.34375 Z M 6.34375 7.65625 "/>
<path style=" stroke:none;fill-rule:nonzero;fill:rgb(94.117647%,61.568627%,22.745098%);fill-opacity:1;" d="M 9.625 9.1875 L 12.90625 9.1875 L 12.90625 10.0625 L 9.625 10.0625 Z M 9.625 9.1875 "/>
<path style=" stroke:none;fill-rule:nonzero;fill:rgb(96.078431%,66.27451%,27.843137%);fill-opacity:1;" d="M 12.46875 5.46875 C 12.46875 5.347656 12.515625 5.238281 12.597656 5.160156 C 12.675781 5.078125 12.785156 5.03125 12.90625 5.03125 C 13.148438 5.03125 13.34375 5.226562 13.34375 5.46875 L 13.34375 8.75 L 12.90625 9.1875 L 9.625 9.1875 L 8.96875 8.53125 L 8.96875 7.21875 L 9.84375 6.125 L 9.84375 3.28125 C 9.84375 3.039062 10.039062 2.84375 10.28125 2.84375 C 10.402344 2.84375 10.511719 2.890625 10.589844 2.972656 C 10.671875 3.050781 10.71875 3.160156 10.71875 3.28125 L 10.71875 5.46875 C 10.71875 5.226562 10.914062 5.03125 11.15625 5.03125 C 11.277344 5.03125 11.386719 5.078125 11.464844 5.160156 C 11.546875 5.238281 11.59375 5.347656 11.59375 5.46875 C 11.59375 5.226562 11.789062 5.03125 12.03125 5.03125 C 12.152344 5.03125 12.261719 5.078125 12.339844 5.160156 C 12.421875 5.238281 12.46875 5.347656 12.46875 5.46875 Z M 12.46875 5.46875 "/>
<path style=" stroke:none;fill-rule:nonzero;fill:rgb(94.117647%,61.568627%,22.745098%);fill-opacity:1;" d="M 9.152344 8.714844 L 9.625 9.1875 L 12.90625 9.1875 L 13.34375 8.75 L 13.34375 7 C 12.515625 7.90625 10.976562 8.558594 9.152344 8.714844 Z M 9.152344 8.714844 "/>
<path style=" stroke:none;fill-rule:nonzero;fill:rgb(89.019608%,30.588235%,29.411765%);fill-opacity:1;" d="M 1.085938 11.214844 L 0.664062 11.097656 L 2.101562 6.070312 L 3.863281 8.496094 L 5.648438 3.148438 L 6.808594 5.472656 L 10.097656 0.535156 L 10.464844 0.777344 L 6.753906 6.339844 L 5.726562 4.289062 L 4.011719 9.441406 L 2.273438 7.054688 Z M 1.085938 11.214844 "/>
<path style=" stroke:none;fill-rule:nonzero;fill:rgb(89.019608%,30.588235%,29.411765%);fill-opacity:1;" d="M 10.5 2.1875 L 10.0625 2.1875 L 10.0625 0.945312 L 8.808594 1.304688 L 8.691406 0.882812 L 10.5 0.367188 Z M 10.5 2.1875 "/>
<path style=" stroke:none;fill-rule:nonzero;fill:rgb(13.333333%,23.137255%,35.294118%);fill-opacity:1;" d="M 11.15625 8.621094 L 10.5625 8.03125 L 10.875 7.71875 L 11.15625 8.003906 L 12.09375 7.0625 L 12.40625 7.375 Z M 11.15625 8.621094 "/>
<path style=" stroke:none;fill-rule:nonzero;fill:rgb(13.333333%,23.137255%,35.294118%);fill-opacity:1;" d="M 1.3125 13.125 L 9.625 13.125 L 9.625 13.5625 L 1.3125 13.5625 Z M 1.3125 13.125 "/>
<path style=" stroke:none;fill-rule:nonzero;fill:rgb(94.117647%,61.568627%,22.745098%);fill-opacity:1;" d="M 9.84375 6.125 L 9.625 6.398438 L 9.625 7.21875 C 9.625 7.339844 9.722656 7.4375 9.84375 7.4375 C 9.964844 7.4375 10.0625 7.339844 10.0625 7.21875 L 10.0625 6.125 Z M 9.84375 6.125 "/>
<path style=" stroke:none;fill-rule:nonzero;fill:rgb(94.117647%,61.568627%,22.745098%);fill-opacity:1;" d="M 10.71875 6.78125 C 10.597656 6.78125 10.5 6.683594 10.5 6.5625 L 10.5 5.6875 C 10.5 5.566406 10.597656 5.46875 10.71875 5.46875 C 10.839844 5.46875 10.9375 5.566406 10.9375 5.6875 L 10.9375 6.5625 C 10.9375 6.683594 10.839844 6.78125 10.71875 6.78125 Z M 10.71875 6.78125 "/>
<path style=" stroke:none;fill-rule:nonzero;fill:rgb(94.117647%,61.568627%,22.745098%);fill-opacity:1;" d="M 11.59375 6.78125 C 11.472656 6.78125 11.375 6.683594 11.375 6.5625 L 11.375 5.6875 C 11.375 5.566406 11.472656 5.46875 11.59375 5.46875 C 11.714844 5.46875 11.8125 5.566406 11.8125 5.6875 L 11.8125 6.5625 C 11.8125 6.683594 11.714844 6.78125 11.59375 6.78125 Z M 11.59375 6.78125 "/>
<path style=" stroke:none;fill-rule:nonzero;fill:rgb(94.117647%,61.568627%,22.745098%);fill-opacity:1;" d="M 12.46875 6.78125 C 12.347656 6.78125 12.25 6.683594 12.25 6.5625 L 12.25 5.6875 C 12.25 5.566406 12.347656 5.46875 12.46875 5.46875 C 12.589844 5.46875 12.6875 5.566406 12.6875 5.6875 L 12.6875 6.5625 C 12.6875 6.683594 12.589844 6.78125 12.46875 6.78125 Z M 12.46875 6.78125 "/>
</g>
</svg>
