<?xml version="1.0" encoding="utf-8"?>
<!-- Generator: Adobe Illustrator 16.0.0, SVG Export Plug-In . SVG Version: 6.00 Build 0)  -->
<!DOCTYPE svg PUBLIC "-//W3C//DTD SVG 1.1//EN" "http://www.w3.org/Graphics/SVG/1.1/DTD/svg11.dtd">
<svg version="1.1" id="Capa_1" xmlns="http://www.w3.org/2000/svg" xmlns:xlink="http://www.w3.org/1999/xlink" x="0px" y="0px"
	 width="512px" height="512px" viewBox="0 0 512 512" enable-background="new 0 0 512 512" xml:space="preserve">
<g>
	<g>
		<path fill="#FFFFFF" d="M508.88,152.472l-27.583-27.583c-4.16-4.16-10.923-4.16-15.083,0c-6.208,6.187-18.219,1.173-18.219-7.552
			c0-2.859,1.109-5.525,3.137-7.531c4.159-4.16,4.159-10.923,0-15.083l-33.835-33.834c-4.159-4.16-10.923-4.16-15.082,0
			c-6.188,6.187-18.219,1.173-18.219-7.552c0-2.859,1.108-5.525,3.136-7.552c4.16-4.16,4.16-10.923,0-15.083L359.55,3.121
			c-2.005-1.984-4.715-3.115-7.552-3.115h-0.021c-2.858,0-5.567,1.152-7.595,3.157C215.639,133.422,20.785,329.641,5.19,342.846
			c-1.237,0.747-2.325,1.729-3.2,2.965c-3.029,4.268-2.56,10.048,1.131,13.739L152.45,508.879c2.091,2.069,4.821,3.115,7.552,3.115
			s5.46-1.045,7.552-3.115l341.325-341.325C513.04,163.394,513.04,156.631,508.88,152.472z M160.002,486.245L25.669,351.891
			c27.732-24.106,102.61-99.709,326.372-326.093l13.738,13.739c-2.026,4.267-3.115,8.938-3.115,13.803
			c0,17.643,14.357,31.999,32,31.999c4.863,0,9.535-1.088,13.823-3.093l21.291,21.291c-2.027,4.267-3.115,8.939-3.115,13.803
			c0,17.643,14.356,31.999,31.999,31.999c4.864,0,9.536-1.088,13.803-3.115l13.781,13.781L160.002,486.245z"/>
	</g>
</g>
<g>
	<g>
		<path fill="#FFFFFF" d="M210.199,237.803c-4.16-4.16-10.923-4.16-15.083,0L88.452,344.467c-4.16,4.16-4.16,10.923,0,15.083
			c2.091,2.069,4.821,3.114,7.552,3.114s5.461-1.045,7.531-3.114l106.665-106.665C214.359,248.725,214.359,241.962,210.199,237.803z
			"/>
	</g>
</g>
<g>
	<g>
		<path fill="#FFFFFF" d="M338.196,195.137c-4.16-4.16-10.923-4.16-15.083,0L131.118,387.133c-4.16,4.16-4.16,10.923,0,15.083
			c2.091,2.068,4.821,3.114,7.552,3.114s5.461-1.045,7.531-3.114L338.196,210.22C342.356,206.059,342.356,199.297,338.196,195.137z"
			/>
	</g>
</g>
</svg>
