<?xml version="1.0" encoding="UTF-8"?>
<svg xmlns="http://www.w3.org/2000/svg" xmlns:xlink="http://www.w3.org/1999/xlink" width="14px" height="14px" viewBox="0 0 14 14" version="1.1">
<g id="surface1">
<path style=" stroke:none;fill-rule:nonzero;fill:rgb(12.156863%,11.764706%,11.764706%);fill-opacity:1;" d="M 13.914062 4.167969 L 13.160156 3.414062 C 13.046875 3.300781 12.863281 3.300781 12.746094 3.414062 C 12.578125 3.585938 12.25 3.445312 12.25 3.207031 C 12.25 3.128906 12.28125 3.058594 12.335938 3.003906 C 12.449219 2.890625 12.449219 2.703125 12.335938 2.589844 L 11.410156 1.664062 C 11.296875 1.550781 11.113281 1.550781 11 1.664062 C 10.828125 1.835938 10.5 1.695312 10.5 1.457031 C 10.5 1.378906 10.53125 1.308594 10.585938 1.25 C 10.699219 1.136719 10.699219 0.953125 10.585938 0.839844 L 9.832031 0.0859375 C 9.777344 0.03125 9.703125 0 9.625 0 C 9.546875 0 9.472656 0.03125 9.417969 0.0859375 C 5.894531 3.648438 0.566406 9.011719 0.140625 9.375 C 0.109375 9.394531 0.078125 9.421875 0.0546875 9.457031 C -0.0273438 9.574219 -0.015625 9.730469 0.0859375 9.832031 L 4.167969 13.914062 C 4.226562 13.972656 4.300781 14 4.375 14 C 4.449219 14 4.523438 13.972656 4.582031 13.914062 L 13.914062 4.582031 C 14.027344 4.46875 14.027344 4.28125 13.914062 4.167969 Z M 4.375 13.296875 L 0.703125 9.621094 C 1.460938 8.960938 3.507812 6.894531 9.625 0.707031 L 10 1.082031 C 9.945312 1.199219 9.917969 1.324219 9.917969 1.457031 C 9.917969 1.941406 10.308594 2.332031 10.792969 2.332031 C 10.925781 2.332031 11.050781 2.304688 11.167969 2.25 L 11.75 2.832031 C 11.695312 2.949219 11.667969 3.074219 11.667969 3.207031 C 11.667969 3.691406 12.058594 4.082031 12.542969 4.082031 C 12.675781 4.082031 12.800781 4.054688 12.917969 4 L 13.296875 4.375 Z M 4.375 13.296875 "/>
<path style=" stroke:none;fill-rule:nonzero;fill:rgb(12.156863%,11.764706%,11.764706%);fill-opacity:1;" d="M 5.746094 6.503906 C 5.632812 6.390625 5.449219 6.390625 5.335938 6.503906 L 2.417969 9.417969 C 2.304688 9.53125 2.304688 9.71875 2.417969 9.832031 C 2.476562 9.886719 2.550781 9.917969 2.625 9.917969 C 2.699219 9.917969 2.773438 9.886719 2.832031 9.832031 L 5.746094 6.914062 C 5.863281 6.800781 5.863281 6.617188 5.746094 6.503906 Z M 9.246094 5.335938 C 9.132812 5.222656 8.949219 5.222656 8.835938 5.335938 L 3.585938 10.585938 C 3.472656 10.699219 3.472656 10.882812 3.585938 11 C 3.640625 11.054688 3.71875 11.082031 3.792969 11.082031 C 3.867188 11.082031 3.941406 11.054688 3.996094 11 L 9.246094 5.75 C 9.359375 5.632812 9.359375 5.449219 9.246094 5.335938 Z M 9.246094 5.335938 "/>
</g>
</svg>
