<svg height="512" viewBox="0 0 64 64" width="512" xmlns="http://www.w3.org/2000/svg"><g id="Laptop-Computer-Light-Report-Online"><path d="m61 55v4a2.006 2.006 0 0 1 -2 2h-54a2.006 2.006 0 0 1 -2-2v-4z" fill="#bddbff"/><path d="m56 43 5 12h-58l5-12z" fill="#bddbff"/><path d="m53 24v3a1 1 0 0 1 -1 1h-4a1 1 0 0 1 -1-1v-3z" fill="#bddbff"/><g fill="#3d9ae2"><path d="m57 42.8v-11.8h-2v11h-46v-29a1 1 0 0 1 1-1h26v-2h-26a3 3 0 0 0 -3 3v29.8l-4.923 11.815a1 1 0 0 0 -.077.385v4a3 3 0 0 0 3 3h54a3 3 0 0 0 3-3v-4a1 1 0 0 0 -.077-.385zm-1.667 1.2 4.167 10h-55l4.167-10zm3.667 16h-54a1 1 0 0 1 -1-1v-3h56v3a1 1 0 0 1 -1 1z"/><path d="m10 50h2v2h-2z"/><path d="m14 50h2v2h-2z"/><path d="m48 50h2v2h-2z"/><path d="m52 50h2v2h-2z"/><path d="m15 46h2v2h-2z"/><path d="m11 46h2v2h-2z"/><path d="m19 46h2v2h-2z"/><path d="m23 46h2v2h-2z"/><path d="m27 46h2v2h-2z"/><path d="m31 46h2v2h-2z"/><path d="m35 46h2v2h-2z"/><path d="m39 46h2v2h-2z"/><path d="m43 46h2v2h-2z"/><path d="m47 46h2v2h-2z"/><path d="m51 46h2v2h-2z"/><path d="m18 50h4v2h-4z"/><path d="m42 50h4v2h-4z"/><path d="m24 50h16v2h-16z"/><path d="m45.961 23h-1.961v2h2v2a2 2 0 0 0 2 2h1v8h-23v2h24a1 1 0 0 0 1-1v-9h1a2 2 0 0 0 2-2v-2h2v-2h-1.963a4.979 4.979 0 0 1 1.5-3.231 8 8 0 0 0 -5.673-13.769 8.09 8.09 0 0 0 -7.858 7.7 8.006 8.006 0 0 0 2.386 5.99 5.17 5.17 0 0 1 1.569 3.31zm2.039 4v-2h4v2zm1.9-19a5.993 5.993 0 0 1 4.25 10.324 7.009 7.009 0 0 0 -2.14 4.676h-4.02a7.166 7.166 0 0 0 -2.2-4.731 5.923 5.923 0 0 1 -1.79-4.491 6.067 6.067 0 0 1 5.9-5.778z"/><path d="m49 16.816v4.184h2v-4.184a3 3 0 0 0 2-2.816h-2a1 1 0 0 1 -2 0h-2a3 3 0 0 0 2 2.816z"/><path d="m49 2h2v2h-2z"/><path d="m43.5 3.474h2v2h-2z" transform="matrix(.866 -.5 .5 .866 3.725 22.851)"/><path d="m39.473 7.5h2v2h-2z" transform="matrix(.5 -.866 .866 .5 12.878 39.304)"/><path d="m38 13h2v2h-2z"/><path d="m39.473 18.5h2v2h-2z" transform="matrix(.866 -.5 .5 .866 -4.328 22.845)"/><path d="m58.526 18.5h2v2h-2z" transform="matrix(.5 -.866 .866 .5 12.88 61.306)"/><path d="m60 13h2v2h-2z"/><path d="m58.526 7.5h2v2h-2z" transform="matrix(.866 -.5 .5 .866 3.723 30.897)"/><path d="m54.5 3.474h2v2h-2z" transform="matrix(.5 -.866 .866 .5 23.88 50.304)"/><path d="m22 37h2v2h-2z"/><path d="m18 37h2v2h-2z"/><path d="m31 24h6v2h-6z"/><path d="m31 28h6v2h-6z"/><path d="m31 32h6v2h-6z"/><path d="m29 32h-2v-7h-2v7h-2v-13h-2v13h-2v-9h-2v9h-2v-5h-2v5h-2v2h18z"/></g></g></svg>