<?xml version="1.0" encoding="UTF-8"?>
<svg xmlns="http://www.w3.org/2000/svg" xmlns:xlink="http://www.w3.org/1999/xlink" width="14px" height="14px" viewBox="0 0 14 14" version="1.1">
<g id="surface1">
<path style=" stroke:none;fill-rule:nonzero;fill:rgb(74.117647%,85.882353%,100%);fill-opacity:1;" d="M 13.34375 12.03125 L 13.34375 12.90625 C 13.34375 13.148438 13.148438 13.34375 12.90625 13.34375 L 1.09375 13.34375 C 0.851562 13.34375 0.65625 13.148438 0.65625 12.90625 L 0.65625 12.03125 Z M 13.34375 12.03125 "/>
<path style=" stroke:none;fill-rule:nonzero;fill:rgb(74.117647%,85.882353%,100%);fill-opacity:1;" d="M 12.25 9.40625 L 13.34375 12.03125 L 0.65625 12.03125 L 1.75 9.40625 Z M 12.25 9.40625 "/>
<path style=" stroke:none;fill-rule:nonzero;fill:rgb(74.117647%,85.882353%,100%);fill-opacity:1;" d="M 11.59375 5.25 L 11.59375 5.90625 C 11.59375 6.027344 11.496094 6.125 11.375 6.125 L 10.5 6.125 C 10.378906 6.125 10.28125 6.027344 10.28125 5.90625 L 10.28125 5.25 Z M 11.59375 5.25 "/>
<path style=" stroke:none;fill-rule:nonzero;fill:rgb(23.921569%,60.392157%,88.627451%);fill-opacity:1;" d="M 12.46875 9.363281 L 12.46875 6.78125 L 12.03125 6.78125 L 12.03125 9.1875 L 1.96875 9.1875 L 1.96875 2.84375 C 1.96875 2.722656 2.066406 2.625 2.1875 2.625 L 7.875 2.625 L 7.875 2.1875 L 2.1875 2.1875 C 1.824219 2.1875 1.53125 2.480469 1.53125 2.84375 L 1.53125 9.363281 L 0.453125 11.945312 C 0.441406 11.972656 0.4375 12.003906 0.4375 12.03125 L 0.4375 12.90625 C 0.4375 13.269531 0.730469 13.5625 1.09375 13.5625 L 12.90625 13.5625 C 13.269531 13.5625 13.5625 13.269531 13.5625 12.90625 L 13.5625 12.03125 C 13.5625 12.003906 13.558594 11.972656 13.546875 11.945312 Z M 12.105469 9.625 L 13.015625 11.8125 L 0.984375 11.8125 L 1.894531 9.625 Z M 12.90625 13.125 L 1.09375 13.125 C 0.972656 13.125 0.875 13.027344 0.875 12.90625 L 0.875 12.25 L 13.125 12.25 L 13.125 12.90625 C 13.125 13.027344 13.027344 13.125 12.90625 13.125 Z M 12.90625 13.125 "/>
<path style=" stroke:none;fill-rule:nonzero;fill:rgb(23.921569%,60.392157%,88.627451%);fill-opacity:1;" d="M 2.1875 10.9375 L 2.625 10.9375 L 2.625 11.375 L 2.1875 11.375 Z M 2.1875 10.9375 "/>
<path style=" stroke:none;fill-rule:nonzero;fill:rgb(23.921569%,60.392157%,88.627451%);fill-opacity:1;" d="M 3.0625 10.9375 L 3.5 10.9375 L 3.5 11.375 L 3.0625 11.375 Z M 3.0625 10.9375 "/>
<path style=" stroke:none;fill-rule:nonzero;fill:rgb(23.921569%,60.392157%,88.627451%);fill-opacity:1;" d="M 10.5 10.9375 L 10.9375 10.9375 L 10.9375 11.375 L 10.5 11.375 Z M 10.5 10.9375 "/>
<path style=" stroke:none;fill-rule:nonzero;fill:rgb(23.921569%,60.392157%,88.627451%);fill-opacity:1;" d="M 11.375 10.9375 L 11.8125 10.9375 L 11.8125 11.375 L 11.375 11.375 Z M 11.375 10.9375 "/>
<path style=" stroke:none;fill-rule:nonzero;fill:rgb(23.921569%,60.392157%,88.627451%);fill-opacity:1;" d="M 3.28125 10.0625 L 3.71875 10.0625 L 3.71875 10.5 L 3.28125 10.5 Z M 3.28125 10.0625 "/>
<path style=" stroke:none;fill-rule:nonzero;fill:rgb(23.921569%,60.392157%,88.627451%);fill-opacity:1;" d="M 2.40625 10.0625 L 2.84375 10.0625 L 2.84375 10.5 L 2.40625 10.5 Z M 2.40625 10.0625 "/>
<path style=" stroke:none;fill-rule:nonzero;fill:rgb(23.921569%,60.392157%,88.627451%);fill-opacity:1;" d="M 4.15625 10.0625 L 4.59375 10.0625 L 4.59375 10.5 L 4.15625 10.5 Z M 4.15625 10.0625 "/>
<path style=" stroke:none;fill-rule:nonzero;fill:rgb(23.921569%,60.392157%,88.627451%);fill-opacity:1;" d="M 5.03125 10.0625 L 5.46875 10.0625 L 5.46875 10.5 L 5.03125 10.5 Z M 5.03125 10.0625 "/>
<path style=" stroke:none;fill-rule:nonzero;fill:rgb(23.921569%,60.392157%,88.627451%);fill-opacity:1;" d="M 5.90625 10.0625 L 6.34375 10.0625 L 6.34375 10.5 L 5.90625 10.5 Z M 5.90625 10.0625 "/>
<path style=" stroke:none;fill-rule:nonzero;fill:rgb(23.921569%,60.392157%,88.627451%);fill-opacity:1;" d="M 6.78125 10.0625 L 7.21875 10.0625 L 7.21875 10.5 L 6.78125 10.5 Z M 6.78125 10.0625 "/>
<path style=" stroke:none;fill-rule:nonzero;fill:rgb(23.921569%,60.392157%,88.627451%);fill-opacity:1;" d="M 7.65625 10.0625 L 8.09375 10.0625 L 8.09375 10.5 L 7.65625 10.5 Z M 7.65625 10.0625 "/>
<path style=" stroke:none;fill-rule:nonzero;fill:rgb(23.921569%,60.392157%,88.627451%);fill-opacity:1;" d="M 8.53125 10.0625 L 8.96875 10.0625 L 8.96875 10.5 L 8.53125 10.5 Z M 8.53125 10.0625 "/>
<path style=" stroke:none;fill-rule:nonzero;fill:rgb(23.921569%,60.392157%,88.627451%);fill-opacity:1;" d="M 9.40625 10.0625 L 9.84375 10.0625 L 9.84375 10.5 L 9.40625 10.5 Z M 9.40625 10.0625 "/>
<path style=" stroke:none;fill-rule:nonzero;fill:rgb(23.921569%,60.392157%,88.627451%);fill-opacity:1;" d="M 10.28125 10.0625 L 10.71875 10.0625 L 10.71875 10.5 L 10.28125 10.5 Z M 10.28125 10.0625 "/>
<path style=" stroke:none;fill-rule:nonzero;fill:rgb(23.921569%,60.392157%,88.627451%);fill-opacity:1;" d="M 11.15625 10.0625 L 11.59375 10.0625 L 11.59375 10.5 L 11.15625 10.5 Z M 11.15625 10.0625 "/>
<path style=" stroke:none;fill-rule:nonzero;fill:rgb(23.921569%,60.392157%,88.627451%);fill-opacity:1;" d="M 3.9375 10.9375 L 4.8125 10.9375 L 4.8125 11.375 L 3.9375 11.375 Z M 3.9375 10.9375 "/>
<path style=" stroke:none;fill-rule:nonzero;fill:rgb(23.921569%,60.392157%,88.627451%);fill-opacity:1;" d="M 9.1875 10.9375 L 10.0625 10.9375 L 10.0625 11.375 L 9.1875 11.375 Z M 9.1875 10.9375 "/>
<path style=" stroke:none;fill-rule:nonzero;fill:rgb(23.921569%,60.392157%,88.627451%);fill-opacity:1;" d="M 5.25 10.9375 L 8.75 10.9375 L 8.75 11.375 L 5.25 11.375 Z M 5.25 10.9375 "/>
<path style=" stroke:none;fill-rule:nonzero;fill:rgb(23.921569%,60.392157%,88.627451%);fill-opacity:1;" d="M 10.054688 5.03125 L 9.625 5.03125 L 9.625 5.46875 L 10.0625 5.46875 L 10.0625 5.90625 C 10.0625 6.148438 10.257812 6.34375 10.5 6.34375 L 10.71875 6.34375 L 10.71875 8.09375 L 5.6875 8.09375 L 5.6875 8.53125 L 10.9375 8.53125 C 11.058594 8.53125 11.15625 8.433594 11.15625 8.3125 L 11.15625 6.34375 L 11.375 6.34375 C 11.617188 6.34375 11.8125 6.148438 11.8125 5.90625 L 11.8125 5.46875 L 12.25 5.46875 L 12.25 5.03125 L 11.820312 5.03125 C 11.839844 4.761719 11.957031 4.511719 12.148438 4.324219 C 12.667969 3.824219 12.828125 3.0625 12.554688 2.394531 C 12.28125 1.730469 11.628906 1.300781 10.90625 1.3125 C 9.984375 1.339844 9.234375 2.070312 9.1875 2.996094 C 9.171875 3.488281 9.359375 3.960938 9.710938 4.308594 C 9.910156 4.5 10.03125 4.757812 10.054688 5.03125 Z M 10.5 5.90625 L 10.5 5.46875 L 11.375 5.46875 L 11.375 5.90625 Z M 10.914062 1.75 C 11.457031 1.738281 11.945312 2.0625 12.152344 2.5625 C 12.355469 3.0625 12.234375 3.636719 11.84375 4.007812 C 11.566406 4.277344 11.398438 4.644531 11.378906 5.03125 L 10.496094 5.03125 C 10.472656 4.636719 10.300781 4.269531 10.015625 3.996094 C 9.753906 3.738281 9.609375 3.382812 9.625 3.015625 C 9.65625 2.320312 10.222656 1.769531 10.914062 1.75 Z M 10.914062 1.75 "/>
<path style=" stroke:none;fill-rule:nonzero;fill:rgb(23.921569%,60.392157%,88.627451%);fill-opacity:1;" d="M 10.71875 3.679688 L 10.71875 4.59375 L 11.15625 4.59375 L 11.15625 3.679688 C 11.417969 3.585938 11.59375 3.339844 11.59375 3.0625 L 11.15625 3.0625 C 11.15625 3.183594 11.058594 3.28125 10.9375 3.28125 C 10.816406 3.28125 10.71875 3.183594 10.71875 3.0625 L 10.28125 3.0625 C 10.28125 3.339844 10.457031 3.585938 10.71875 3.679688 Z M 10.71875 3.679688 "/>
<path style=" stroke:none;fill-rule:nonzero;fill:rgb(23.921569%,60.392157%,88.627451%);fill-opacity:1;" d="M 10.71875 0.4375 L 11.15625 0.4375 L 11.15625 0.875 L 10.71875 0.875 Z M 10.71875 0.4375 "/>
<path style=" stroke:none;fill-rule:nonzero;fill:rgb(23.921569%,60.392157%,88.627451%);fill-opacity:1;" d="M 9.433594 0.898438 L 9.8125 0.679688 L 10.03125 1.058594 L 9.652344 1.277344 Z M 9.433594 0.898438 "/>
<path style=" stroke:none;fill-rule:nonzero;fill:rgb(23.921569%,60.392157%,88.627451%);fill-opacity:1;" d="M 8.554688 1.941406 L 8.773438 1.5625 L 9.152344 1.78125 L 8.933594 2.160156 Z M 8.554688 1.941406 "/>
<path style=" stroke:none;fill-rule:nonzero;fill:rgb(23.921569%,60.392157%,88.627451%);fill-opacity:1;" d="M 8.3125 2.84375 L 8.75 2.84375 L 8.75 3.28125 L 8.3125 3.28125 Z M 8.3125 2.84375 "/>
<path style=" stroke:none;fill-rule:nonzero;fill:rgb(23.921569%,60.392157%,88.627451%);fill-opacity:1;" d="M 8.554688 4.183594 L 8.933594 3.964844 L 9.152344 4.34375 L 8.773438 4.5625 Z M 8.554688 4.183594 "/>
<path style=" stroke:none;fill-rule:nonzero;fill:rgb(23.921569%,60.392157%,88.627451%);fill-opacity:1;" d="M 12.722656 4.347656 L 12.941406 3.96875 L 13.320312 4.1875 L 13.101562 4.566406 Z M 12.722656 4.347656 "/>
<path style=" stroke:none;fill-rule:nonzero;fill:rgb(23.921569%,60.392157%,88.627451%);fill-opacity:1;" d="M 13.125 2.84375 L 13.5625 2.84375 L 13.5625 3.28125 L 13.125 3.28125 Z M 13.125 2.84375 "/>
<path style=" stroke:none;fill-rule:nonzero;fill:rgb(23.921569%,60.392157%,88.627451%);fill-opacity:1;" d="M 12.722656 1.777344 L 13.101562 1.558594 L 13.320312 1.9375 L 12.941406 2.15625 Z M 12.722656 1.777344 "/>
<path style=" stroke:none;fill-rule:nonzero;fill:rgb(23.921569%,60.392157%,88.627451%);fill-opacity:1;" d="M 11.84375 1.058594 L 12.0625 0.679688 L 12.441406 0.898438 L 12.222656 1.277344 Z M 11.84375 1.058594 "/>
<path style=" stroke:none;fill-rule:nonzero;fill:rgb(23.921569%,60.392157%,88.627451%);fill-opacity:1;" d="M 4.8125 8.09375 L 5.25 8.09375 L 5.25 8.53125 L 4.8125 8.53125 Z M 4.8125 8.09375 "/>
<path style=" stroke:none;fill-rule:nonzero;fill:rgb(23.921569%,60.392157%,88.627451%);fill-opacity:1;" d="M 3.9375 8.09375 L 4.375 8.09375 L 4.375 8.53125 L 3.9375 8.53125 Z M 3.9375 8.09375 "/>
<path style=" stroke:none;fill-rule:nonzero;fill:rgb(23.921569%,60.392157%,88.627451%);fill-opacity:1;" d="M 6.78125 5.25 L 8.09375 5.25 L 8.09375 5.6875 L 6.78125 5.6875 Z M 6.78125 5.25 "/>
<path style=" stroke:none;fill-rule:nonzero;fill:rgb(23.921569%,60.392157%,88.627451%);fill-opacity:1;" d="M 6.78125 6.125 L 8.09375 6.125 L 8.09375 6.5625 L 6.78125 6.5625 Z M 6.78125 6.125 "/>
<path style=" stroke:none;fill-rule:nonzero;fill:rgb(23.921569%,60.392157%,88.627451%);fill-opacity:1;" d="M 6.78125 7 L 8.09375 7 L 8.09375 7.4375 L 6.78125 7.4375 Z M 6.78125 7 "/>
<path style=" stroke:none;fill-rule:nonzero;fill:rgb(23.921569%,60.392157%,88.627451%);fill-opacity:1;" d="M 6.34375 7 L 5.90625 7 L 5.90625 5.46875 L 5.46875 5.46875 L 5.46875 7 L 5.03125 7 L 5.03125 4.15625 L 4.59375 4.15625 L 4.59375 7 L 4.15625 7 L 4.15625 5.03125 L 3.71875 5.03125 L 3.71875 7 L 3.28125 7 L 3.28125 5.90625 L 2.84375 5.90625 L 2.84375 7 L 2.40625 7 L 2.40625 7.4375 L 6.34375 7.4375 Z M 6.34375 7 "/>
</g>
</svg>
