<?xml version="1.0" encoding="UTF-8"?>
<svg xmlns="http://www.w3.org/2000/svg" xmlns:xlink="http://www.w3.org/1999/xlink" width="14px" height="14px" viewBox="0 0 14 14" version="1.1">
<g id="surface1">
<path style=" stroke:none;fill-rule:nonzero;fill:rgb(100%,100%,100%);fill-opacity:1;" d="M 13.945312 6.125 C 13.898438 5.769531 13.695312 5.460938 13.390625 5.277344 C 13.09375 5.097656 12.734375 5.0625 12.398438 5.1875 C 12.132812 5.285156 11.835938 5.148438 11.714844 4.878906 C 11.574219 4.5625 11.398438 4.257812 11.195312 3.976562 C 11.019531 3.730469 11.050781 3.410156 11.269531 3.230469 C 11.542969 3.007812 11.691406 2.679688 11.6875 2.328125 C 11.679688 1.972656 11.511719 1.644531 11.226562 1.425781 C 10.761719 1.074219 10.253906 0.78125 9.71875 0.554688 C 9.386719 0.414062 9.015625 0.433594 8.703125 0.605469 C 8.394531 0.773438 8.1875 1.070312 8.128906 1.414062 C 8.082031 1.695312 7.820312 1.882812 7.519531 1.855469 C 7.179688 1.816406 6.824219 1.816406 6.480469 1.855469 C 6.179688 1.882812 5.917969 1.695312 5.871094 1.414062 C 5.8125 1.070312 5.605469 0.773438 5.296875 0.605469 C 4.984375 0.433594 4.613281 0.414062 4.285156 0.554688 C 3.746094 0.78125 3.238281 1.074219 2.773438 1.425781 C 2.488281 1.644531 2.320312 1.972656 2.3125 2.328125 C 2.308594 2.679688 2.457031 3.007812 2.730469 3.230469 C 2.949219 3.410156 2.980469 3.730469 2.804688 3.976562 C 2.601562 4.257812 2.425781 4.5625 2.285156 4.878906 C 2.164062 5.148438 1.863281 5.285156 1.59375 5.183594 C 1.269531 5.0625 0.90625 5.09375 0.609375 5.277344 C 0.304688 5.460938 0.101562 5.769531 0.0585938 6.121094 C 0.0195312 6.410156 0 6.707031 0 7 C 0 7.292969 0.0195312 7.589844 0.0546875 7.875 C 0.101562 8.230469 0.304688 8.539062 0.609375 8.722656 C 0.90625 8.90625 1.269531 8.9375 1.601562 8.8125 C 1.867188 8.714844 2.164062 8.851562 2.285156 9.121094 C 2.425781 9.4375 2.601562 9.742188 2.804688 10.023438 C 2.980469 10.269531 2.949219 10.589844 2.730469 10.769531 C 2.457031 10.992188 2.308594 11.320312 2.3125 11.671875 C 2.320312 12.027344 2.488281 12.355469 2.773438 12.574219 C 3.238281 12.925781 3.746094 13.21875 4.28125 13.445312 C 4.429688 13.507812 4.585938 13.539062 4.738281 13.539062 C 4.933594 13.539062 5.125 13.488281 5.296875 13.394531 C 5.605469 13.226562 5.8125 12.929688 5.871094 12.585938 C 5.917969 12.304688 6.179688 12.113281 6.480469 12.144531 C 6.820312 12.183594 7.175781 12.183594 7.519531 12.144531 C 7.820312 12.113281 8.082031 12.304688 8.128906 12.585938 C 8.1875 12.929688 8.394531 13.226562 8.703125 13.394531 C 9.015625 13.566406 9.386719 13.585938 9.714844 13.445312 C 10.253906 13.21875 10.761719 12.925781 11.226562 12.574219 C 11.511719 12.355469 11.679688 12.027344 11.6875 11.671875 C 11.691406 11.320312 11.539062 10.992188 11.269531 10.769531 C 11.050781 10.589844 11.019531 10.269531 11.195312 10.023438 C 11.398438 9.742188 11.574219 9.4375 11.714844 9.121094 C 11.835938 8.851562 12.132812 8.714844 12.398438 8.8125 L 12.503906 8.527344 L 12.40625 8.816406 C 12.734375 8.9375 13.09375 8.90625 13.390625 8.722656 C 13.695312 8.539062 13.898438 8.230469 13.945312 7.878906 C 13.980469 7.589844 14 7.292969 14 7 C 14 6.707031 13.980469 6.410156 13.945312 6.125 Z M 13.339844 7.800781 C 13.320312 7.96875 13.222656 8.117188 13.078125 8.203125 C 12.941406 8.285156 12.773438 8.300781 12.617188 8.246094 L 12.609375 8.242188 C 12.050781 8.035156 11.414062 8.308594 11.160156 8.871094 C 11.035156 9.152344 10.878906 9.417969 10.699219 9.667969 C 10.335938 10.179688 10.414062 10.851562 10.882812 11.242188 C 11.011719 11.34375 11.082031 11.496094 11.078125 11.660156 C 11.074219 11.828125 10.996094 11.984375 10.859375 12.089844 C 10.433594 12.410156 9.96875 12.679688 9.480469 12.882812 C 9.320312 12.949219 9.144531 12.941406 8.996094 12.859375 C 8.851562 12.78125 8.757812 12.648438 8.730469 12.484375 C 8.628906 11.882812 8.085938 11.476562 7.453125 11.542969 C 7.15625 11.570312 6.84375 11.570312 6.546875 11.542969 C 5.914062 11.472656 5.371094 11.878906 5.269531 12.484375 C 5.242188 12.648438 5.148438 12.78125 5.003906 12.859375 C 4.855469 12.945312 4.679688 12.953125 4.519531 12.882812 C 4.03125 12.679688 3.566406 12.410156 3.140625 12.089844 C 3.003906 11.984375 2.925781 11.828125 2.921875 11.660156 C 2.917969 11.496094 2.988281 11.34375 3.117188 11.242188 C 3.585938 10.851562 3.664062 10.179688 3.300781 9.667969 C 3.121094 9.417969 2.964844 9.152344 2.839844 8.871094 C 2.644531 8.4375 2.222656 8.171875 1.777344 8.171875 C 1.644531 8.171875 1.511719 8.195312 1.382812 8.246094 C 1.230469 8.304688 1.0625 8.285156 0.921875 8.203125 C 0.777344 8.117188 0.683594 7.96875 0.660156 7.800781 C 0.625 7.535156 0.609375 7.265625 0.609375 7 C 0.609375 6.734375 0.625 6.464844 0.660156 6.199219 C 0.683594 6.03125 0.777344 5.882812 0.921875 5.796875 C 1.058594 5.714844 1.226562 5.695312 1.386719 5.757812 C 1.949219 5.96875 2.589844 5.691406 2.839844 5.128906 C 2.964844 4.847656 3.121094 4.582031 3.300781 4.332031 C 3.664062 3.820312 3.585938 3.144531 3.117188 2.761719 C 2.988281 2.65625 2.917969 2.503906 2.921875 2.339844 C 2.925781 2.171875 3.003906 2.015625 3.140625 1.910156 C 3.566406 1.589844 4.03125 1.320312 4.519531 1.117188 C 4.679688 1.050781 4.855469 1.058594 5.003906 1.140625 C 5.148438 1.21875 5.242188 1.351562 5.269531 1.515625 C 5.371094 2.117188 5.917969 2.523438 6.546875 2.460938 C 6.84375 2.429688 7.15625 2.429688 7.453125 2.460938 C 8.082031 2.523438 8.628906 2.121094 8.730469 1.515625 C 8.757812 1.355469 8.851562 1.21875 8.996094 1.140625 C 9.144531 1.058594 9.320312 1.050781 9.480469 1.117188 C 9.96875 1.320312 10.433594 1.589844 10.859375 1.910156 C 10.996094 2.015625 11.074219 2.171875 11.078125 2.339844 C 11.082031 2.503906 11.011719 2.65625 10.882812 2.761719 C 10.414062 3.148438 10.335938 3.824219 10.699219 4.332031 C 10.878906 4.582031 11.035156 4.847656 11.160156 5.128906 C 11.410156 5.691406 12.050781 5.96875 12.617188 5.753906 C 12.769531 5.695312 12.9375 5.714844 13.078125 5.796875 C 13.222656 5.882812 13.316406 6.03125 13.339844 6.199219 C 13.375 6.464844 13.390625 6.734375 13.390625 7 C 13.390625 7.265625 13.375 7.535156 13.339844 7.800781 Z M 13.339844 7.800781 "/>
<path style=" stroke:none;fill-rule:nonzero;fill:rgb(100%,100%,100%);fill-opacity:1;" d="M 7 4.261719 C 5.488281 4.261719 4.261719 5.488281 4.261719 7 C 4.261719 8.511719 5.488281 9.738281 7 9.738281 C 8.511719 9.738281 9.738281 8.511719 9.738281 7 C 9.738281 5.488281 8.511719 4.261719 7 4.261719 Z M 7 9.128906 C 5.824219 9.128906 4.871094 8.175781 4.871094 7 C 4.871094 5.824219 5.824219 4.871094 7 4.871094 C 8.175781 4.871094 9.128906 5.824219 9.128906 7 C 9.128906 8.175781 8.175781 9.128906 7 9.128906 Z M 7 9.128906 "/>
</g>
</svg>
