<?xml version="1.0" encoding="utf-8"?>
<!-- Generator: Adobe Illustrator 16.0.0, SVG Export Plug-In . SVG Version: 6.00 Build 0)  -->
<!DOCTYPE svg PUBLIC "-//W3C//DTD SVG 1.1//EN" "http://www.w3.org/Graphics/SVG/1.1/DTD/svg11.dtd">
<svg version="1.1" id="Capa_1" xmlns="http://www.w3.org/2000/svg" xmlns:xlink="http://www.w3.org/1999/xlink" x="0px" y="0px"
	 width="512px" height="512px" viewBox="0 0 512 512" enable-background="new 0 0 512 512" xml:space="preserve">
<g>
	<g>
		<path fill="#FFFFFF" d="M509.93,223.948c-1.67-12.978-9.016-24.287-20.146-30.987c-10.952-6.59-24.13-7.835-36.352-3.25
			c-9.684,3.606-20.569-1.38-24.977-11.219c-5.188-11.642-11.575-22.773-19.011-33.08c-6.434-8.971-5.231-20.703,2.76-27.292
			c9.905-8.147,15.427-20.168,15.204-33.013c-0.267-13-6.389-25.021-16.851-32.946c-17.008-12.889-35.573-23.619-55.185-31.877
			c-12.133-5.098-25.666-4.43-37.086,1.87c-11.22,6.188-18.855,16.984-20.971,29.606c-1.714,10.284-11.308,17.074-22.371,16.028
			c-12.422-1.314-25.4-1.314-37.888,0c-11.108,1.023-20.636-5.744-22.35-16.028c-2.092-12.644-9.75-23.441-20.97-29.606
			c-11.42-6.278-24.955-6.968-37.086-1.87c-19.612,8.259-38.178,18.988-55.184,31.877c-10.463,7.925-16.584,19.923-16.851,32.946
			c-0.245,12.844,5.298,24.865,15.227,33.058c7.992,6.566,9.171,18.298,2.738,27.247c-7.435,10.33-13.846,21.459-19.011,33.058
			c-4.452,9.884-15.449,14.826-25.222,11.152c-11.976-4.496-25.155-3.294-36.129,3.317c-11.131,6.723-18.477,18.009-20.146,30.965
			C0.69,234.478,0,245.274,0,256.004c0,10.73,0.69,21.525,2.07,32.055c1.669,12.979,9.016,24.287,20.146,30.988
			c10.952,6.611,24.153,7.857,36.352,3.25c9.706-3.629,20.591,1.381,24.977,11.219c5.187,11.643,11.575,22.773,19.011,33.08
			c6.433,8.971,5.231,20.703-2.76,27.292c-9.905,8.147-15.427,20.168-15.204,33.013c0.267,13,6.389,25.021,16.851,32.945
			c17.007,12.89,35.573,23.619,55.184,31.877c5.388,2.249,11.041,3.385,16.674,3.385c7.057,0,14.069-1.759,20.414-5.276
			c11.219-6.188,18.854-16.984,20.97-29.606c1.714-10.284,11.264-17.163,22.372-16.027c12.421,1.313,25.399,1.313,37.887,0
			c11.041-1.157,20.637,5.743,22.351,16.027c2.093,12.644,9.75,23.44,20.97,29.606c11.42,6.277,24.955,6.968,37.086,1.87
			c19.612-8.259,38.178-18.988,55.185-31.877c10.463-7.926,16.584-19.923,16.852-32.946c0.222-12.844-5.321-24.864-15.227-33.035
			c-7.992-6.566-9.171-18.298-2.738-27.247c7.435-10.33,13.846-21.459,19.011-33.058c4.43-9.862,15.294-14.87,24.999-11.241
			l3.896-10.418l-3.673,10.507c12.021,4.541,25.154,3.317,36.129-3.317c11.131-6.723,18.477-18.01,20.146-30.965
			c1.381-10.574,2.07-21.371,2.07-32.101C512,245.274,511.31,234.478,509.93,223.948z M487.868,285.254
			c-0.779,6.189-4.296,11.554-9.571,14.737c-5.076,3.072-11.197,3.628-16.918,1.515l-0.2-0.067
			c-20.436-7.635-43.81,2.449-53.07,23.019c-4.563,10.239-10.196,20.035-16.763,29.162c-13.334,18.61-10.463,43.297,6.724,57.455
			c4.607,3.784,7.167,9.394,7.057,15.359c-0.134,6.189-3.027,11.909-8.014,15.672c-15.561,11.776-32.479,21.571-50.399,29.096
			c-5.788,2.426-12.266,2.137-17.697-0.868c-5.298-2.917-8.748-7.813-9.75-13.779c-3.673-22.038-23.596-36.775-46.637-34.481
			c-10.951,1.135-22.327,1.135-33.235,0c-23.04-2.538-42.986,12.399-46.659,34.481c-0.979,5.966-4.453,10.863-9.75,13.779
			c-5.432,3.027-11.909,3.317-17.698,0.868c-17.919-7.524-34.86-17.318-50.399-29.096c-4.963-3.762-7.88-9.482-8.014-15.648
			c-0.112-5.966,2.471-11.575,7.079-15.382c17.185-14.158,20.057-38.846,6.7-57.456c-6.567-9.127-12.2-18.921-16.785-29.184
			c-7.101-15.872-22.639-25.511-38.889-25.511c-4.83,0-9.706,0.847-14.447,2.604c-5.588,2.115-11.709,1.536-16.808-1.535
			c-5.298-3.184-8.793-8.549-9.572-14.76c-1.269-9.617-1.892-19.455-1.892-29.229c0-9.772,0.623-19.612,1.892-29.273
			c0.779-6.189,4.296-11.553,9.572-14.737c5.054-3.05,11.175-3.651,17.052-1.447c20.569,7.68,43.876-2.404,53.114-22.995
			c4.563-10.24,10.196-20.035,16.763-29.162c13.356-18.61,10.485-43.32-6.723-57.455c-4.608-3.785-7.168-9.395-7.057-15.36
			c0.133-6.189,3.05-11.887,8.014-15.672c15.539-11.776,32.479-21.571,50.399-29.095c5.788-2.449,12.266-2.159,17.698,0.846
			c5.297,2.917,8.748,7.813,9.75,13.779c3.695,22.061,23.729,36.909,46.636,34.527c10.952-1.135,22.328-1.135,33.236,0
			c23.018,2.359,42.986-12.422,46.659-34.482c0.979-5.965,4.452-10.864,9.75-13.779c5.432-3.027,11.909-3.317,17.697-0.868
			c17.92,7.525,34.86,17.319,50.399,29.096c4.964,3.762,7.88,9.483,8.014,15.649c0.111,5.965-2.471,11.575-7.079,15.382
			c-17.185,14.158-20.057,38.846-6.7,57.455c6.566,9.127,12.199,18.921,16.784,29.184c9.216,20.591,32.523,30.631,53.338,22.885
			c5.564-2.137,11.709-1.536,16.807,1.536c5.298,3.184,8.794,8.548,9.572,14.759c1.269,9.617,1.892,19.456,1.892,29.229
			C489.738,265.777,489.115,275.615,487.868,285.254z"/>
	</g>
</g>
<g>
	<g>
		<path fill="#FFFFFF" d="M256,155.83c-55.229,0-100.174,44.945-100.174,100.174c0,55.229,44.945,100.174,100.174,100.174
			s100.174-44.945,100.174-100.174C356.174,200.774,311.229,155.83,256,155.83z M256,333.917c-42.963,0-77.914-34.949-77.914-77.913
			c0-42.964,34.949-77.914,77.914-77.914c42.963,0,77.914,34.95,77.914,77.914C333.913,298.967,298.963,333.917,256,333.917z"/>
	</g>
</g>
</svg>
