<?xml version="1.0" encoding="UTF-8"?>
<svg xmlns="http://www.w3.org/2000/svg" xmlns:xlink="http://www.w3.org/1999/xlink" width="14px" height="14px" viewBox="0 0 14 14" version="1.1">
<g id="surface1">
<path style=" stroke:none;fill-rule:nonzero;fill:rgb(12.156863%,11.764706%,11.764706%);fill-opacity:1;" d="M 7 3.5 C 6.839844 3.5 6.707031 3.628906 6.707031 3.792969 L 6.707031 13.707031 C 6.707031 13.871094 6.839844 14 7 14 C 7.160156 14 7.292969 13.871094 7.292969 13.707031 L 7.292969 3.792969 C 7.292969 3.628906 7.160156 3.5 7 3.5 Z M 7 3.5 "/>
<path style=" stroke:none;fill-rule:nonzero;fill:rgb(12.156863%,11.764706%,11.764706%);fill-opacity:1;" d="M 7.171875 0.0546875 C 7.070312 -0.0195312 6.929688 -0.0195312 6.828125 0.0546875 C 6.65625 0.183594 2.625 3.164062 2.625 5.542969 C 2.625 7.953125 4.585938 9.917969 7 9.917969 C 9.414062 9.917969 11.375 7.953125 11.375 5.542969 C 11.375 3.164062 7.34375 0.183594 7.171875 0.0546875 Z M 7 9.332031 C 4.910156 9.332031 3.207031 7.632812 3.207031 5.542969 C 3.207031 3.710938 6.238281 1.25 7 0.65625 C 7.761719 1.25 10.792969 3.710938 10.792969 5.542969 C 10.792969 7.632812 9.089844 9.332031 7 9.332031 Z M 7 9.332031 "/>
</g>
</svg>
