<svg xmlns="http://www.w3.org/2000/svg" xmlns:xlink="http://www.w3.org/1999/xlink" width="92.648" height="102.419" viewBox="0 0 92.648 102.419">
  <defs>
    <linearGradient id="linear-gradient" x1="0.5" y1="-0.155" x2="0.5" y2="0.665" gradientUnits="objectBoundingBox">
      <stop offset="0" stop-color="#1039ac"/>
      <stop offset="1" stop-color="#f8d14e"/>
    </linearGradient>
    <linearGradient id="linear-gradient-2" x1="0.5" y1="0.192" x2="0.5" y2="1.021" xlink:href="#linear-gradient"/>
    <linearGradient id="linear-gradient-3" x1="0.5" y1="-1.473" x2="0.5" y2="2.555" xlink:href="#linear-gradient"/>
    <linearGradient id="linear-gradient-4" x1="0.5" y1="-0.453" x2="0.5" y2="3.861" xlink:href="#linear-gradient"/>
  </defs>
  <g id="Group_11614" data-name="Group 11614" transform="translate(-613.573 -384.686)">
    <g id="Group_11608" data-name="Group 11608" transform="translate(614.723 386)">
      <path id="Path_21357" data-name="Path 21357" d="M535.377,731.843l-30.53-17.618a14.655,14.655,0,0,0-14.66,0l-30.5,17.618a14.661,14.661,0,0,0-7.329,12.7v35.233a14.661,14.661,0,0,0,7.329,12.7L490.2,810.087a14.654,14.654,0,0,0,14.66,0l30.516-17.618a14.661,14.661,0,0,0,7.329-12.7V744.54A14.66,14.66,0,0,0,535.377,731.843Z" transform="translate(-452.358 -712.26)" fill="#071691"/>
      <g id="Group_11196" data-name="Group 11196">
        <g id="Group_11195" data-name="Group 11195" transform="translate(18.477 21.415)">
          <g id="Group_11194" data-name="Group 11194" transform="translate(0 0)">
            <g id="Group_11192" data-name="Group 11192">
              <g id="Group_11191" data-name="Group 11191">
                <path id="Path_21354" data-name="Path 21354" d="M697.7,436.61l-.186.4c-.34-.562-.816-1.414-1.349-2.371a89.747,89.747,0,0,0-5.7-9.275l-.043-.056c-2.123-2.627-4.482-3.9-7.211-3.9a9.838,9.838,0,0,0-2.775.422c-3.232.953-3.73,2.994-3.795,3.826-.126,1.6,1.108,4.618,4.408,6.179l0,2.39c1.64-.44,3.65-1.321,3.811-2.635a2.526,2.526,0,0,0-1.417-2.6c-2.943-1.4-3.481-2.622-3.435-3.067.207-1.983,4.371-2.69,7.76,1.492a87.55,87.55,0,0,1,5.446,8.88c.471.844.879,1.574,1.218,2.151l-9.672,20.869a9.789,9.789,0,0,0-2.627-.374c-.525,0-1.006.044-1.473.086-.514.046-1.046.094-1.728.094-.453,0-.926-.021-1.445-.063-3.082-.252-8.024-2.656-10.284-3.934a2,2,0,0,1-1.014-2.442h-3.414c-.188,1.61.091,3.483,2.524,5.236l.073.053.078.045c.724.413,7.2,4.038,11.761,4.411.612.05,1.175.075,1.722.075.834,0,1.47-.057,2.036-.108.426-.039.794-.072,1.165-.072a8.016,8.016,0,0,1,2.928.641l.331.131-.173.373,8.406,3.908,12.482-26.846Z" transform="translate(-651.084 -405.533)" fill="url(#linear-gradient)"/>
                <path id="Path_21355" data-name="Path 21355" d="M667.441,429.78V417l-.907-.638a9.723,9.723,0,0,1-2.444-2.049v11.778H642.4v-28.44H664.09v7.917a7.851,7.851,0,0,1,2.869-1.469c.161-.048.322-.09.483-.131V393.954a4.828,4.828,0,0,0-4.828-4.828H643.879a4.828,4.828,0,0,0-4.828,4.828V429.78a4.829,4.829,0,0,0,4.828,4.829h18.734A4.828,4.828,0,0,0,667.441,429.78Zm-6.535-36.2a1.035,1.035,0,1,1-1.035,1.035A1.036,1.036,0,0,1,660.906,393.58Zm-12.141.194h8.962v1.691h-8.962Zm4.481,37.117a1.8,1.8,0,1,1,1.8-1.8A1.8,1.8,0,0,1,653.246,430.89Z" transform="translate(-639.051 -389.126)" fill="url(#linear-gradient-2)"/>
              </g>
            </g>
            <g id="Group_11193" data-name="Group 11193" transform="translate(7.233 12.698)">
              <path id="Path_21356" data-name="Path 21356" d="M655.984,444.3h9.7a2.3,2.3,0,0,0,2.239-2.825l-.746-3.358a4.348,4.348,0,0,0-2.985-3.145.9.9,0,0,0-.64.053,6.327,6.327,0,0,1-2.665.64,5.617,5.617,0,0,1-2.665-.64.9.9,0,0,0-.64-.053,4.09,4.09,0,0,0-2.985,3.145l-.746,3.358A2.214,2.214,0,0,0,655.984,444.3Z" transform="translate(-653.761 -425.107)" fill="url(#linear-gradient-3)"/>
              <circle id="Ellipse_14" data-name="Ellipse 14" cx="4.371" cy="4.371" r="4.371" transform="translate(2.703)" fill="url(#linear-gradient-4)"/>
            </g>
          </g>
        </g>
        <path id="Path_21288" data-name="Path 21288" d="M535.377,731.843l-30.53-17.618a14.655,14.655,0,0,0-14.66,0l-30.5,17.618a14.661,14.661,0,0,0-7.329,12.7v35.233a14.661,14.661,0,0,0,7.329,12.7L490.2,810.087a14.654,14.654,0,0,0,14.66,0l30.516-17.618a14.661,14.661,0,0,0,7.329-12.7V744.54A14.66,14.66,0,0,0,535.377,731.843Z" transform="translate(-452.358 -712.26)" fill="none" stroke="#fff" stroke-width="2.3"/>
      </g>
    </g>
  </g>
</svg>
