<svg xmlns="http://www.w3.org/2000/svg" xmlns:xlink="http://www.w3.org/1999/xlink" width="75.815" height="83.771" viewBox="0 0 75.815 83.771">
  <defs>
    <linearGradient id="linear-gradient" x1="0.5" x2="0.5" y2="1" gradientUnits="objectBoundingBox">
      <stop offset="0" stop-color="#1039ac"/>
      <stop offset="1" stop-color="#f8d14e"/>
    </linearGradient>
  </defs>
  <g id="Component_51_3" data-name="Component 51 – 3" transform="translate(1.15 1.286)">
    <g id="Group_11151" data-name="Group 11151" transform="translate(0 0)">
      <path id="Path_21289" data-name="Path 21289" d="M519.91,728.2l-24.842-14.336a11.924,11.924,0,0,0-11.929,0L458.321,728.2a11.93,11.93,0,0,0-5.963,10.331V767.2a11.93,11.93,0,0,0,5.963,10.331l24.829,14.336a11.925,11.925,0,0,0,11.929,0l24.831-14.336a11.929,11.929,0,0,0,5.963-10.331V738.526A11.929,11.929,0,0,0,519.91,728.2Z" transform="translate(-452.358 -712.26)" fill="#071691"/>
      <path id="Path_21290" data-name="Path 21290" d="M519.91,728.2l-24.842-14.336a11.924,11.924,0,0,0-11.929,0L458.321,728.2a11.93,11.93,0,0,0-5.963,10.331V767.2a11.93,11.93,0,0,0,5.963,10.331l24.829,14.336a11.925,11.925,0,0,0,11.929,0l24.831-14.336a11.929,11.929,0,0,0,5.963-10.331V738.526A11.929,11.929,0,0,0,519.91,728.2Z" transform="translate(-452.358 -712.26)" fill="none" stroke="#fff" stroke-width="2.3"/>
    </g>
    <g id="Group_12638" data-name="Group 12638" transform="translate(-54.511 24.387)">
      <path id="Path_21362" data-name="Path 21362" d="M109.346,2.93a1.811,1.811,0,0,0-1.787-1.787,23.855,23.855,0,0,1-3.023-.2A23.918,23.918,0,0,1,98.949-.576,23.562,23.562,0,0,1,95-2.729c-.321-.213-.633-.44-.936-.667l-.576-.449c-.186-.147-.372-.294-.558-.437L92.149-4.9A1.854,1.854,0,0,0,90.9-5.385a2,2,0,0,0-1.2.486L87.729-3.365l-.056.041v0l-.015.013c-.188.14-.377.28-.568.415-.608.422-1.267.834-1.956,1.223A23.541,23.541,0,0,1,82.923-.587,23.925,23.925,0,0,1,77.328.942a23.807,23.807,0,0,1-3.029.2,1.812,1.812,0,0,0-1.788,1.787V19.1a19.893,19.893,0,0,0,.206,2.82,16.94,16.94,0,0,0,8.241,12.1L87.445,37.8l2.072,1.205c.1.062.209.125.317.182a1.905,1.905,0,0,0,.9.23,1.884,1.884,0,0,0,.883-.223c.032-.016.063-.033.094-.051l-.238-.411h0l.3.38,8.763-4.977.248-.139a16.847,16.847,0,0,0,4.323-3.522,17.649,17.649,0,0,0,3-4.851,16.851,16.851,0,0,0,1.221-5.363c.032-.489.032-.981.031-1.457l0-13.254C109.354,4.7,109.358,3.839,109.346,2.93Zm-8.794,26.956c-.065.049-.129.1-.205.151-.142.1-.289.2-.437.3-.305.2-.611.391-.925.569L90.739,35.59q-2.161-1.256-4.322-2.518l-3.654-2.125c-.28-.166-.56-.335-.833-.521-.211-.139-.414-.287-.61-.434l-.092-.073-.006,0h0l-.006,0h0l-.043-.034c-.1-.079-.191-.156-.282-.233a14.363,14.363,0,0,1-1.223-1.167c-.2-.213-.391-.435-.579-.657-.051-.061-.1-.124-.151-.187l-.013-.02h0l-.011-.013c-.012-.016-.025-.034-.039-.051-.053-.066-.125-.158-.152-.2a14.782,14.782,0,0,1-1.616-2.837,14.805,14.805,0,0,1-.9-3.307,22.957,22.957,0,0,1-.117-2.857V5.167c0-.168,0-.337,0-.506a25.431,25.431,0,0,0,7-1.481,26.691,26.691,0,0,0,4.2-1.952A27.172,27.172,0,0,0,90.5-.984l.434-.341A33.586,33.586,0,0,0,94.1.942a25.9,25.9,0,0,0,8.342,3.268,27.129,27.129,0,0,0,3.337.451V18.381c0,.634,0,1.291-.04,1.923h0c-.018.264-.046.525-.076.771a15.062,15.062,0,0,1-.9,3.325,14.712,14.712,0,0,1-1.771,3.05l-.432.525c-.205.234-.417.463-.631.683A15.591,15.591,0,0,1,100.552,29.886Zm-.012,3.7Z" fill="url(#linear-gradient)"/>
      <path id="Path_21363" data-name="Path 21363" d="M103.051,18.326,92.407,28.967l-4.625-4.625a1.756,1.756,0,0,0-1.326-.516,1.676,1.676,0,0,0-1.214.529,1.813,1.813,0,0,0,.013,2.513l5.889,5.89a1.81,1.81,0,0,0,2.527,0l10.923-10.918c.326-.321.653-.644.983-.988a1.819,1.819,0,0,0,.517-1.325,1.677,1.677,0,0,0-.531-1.216A1.808,1.808,0,0,0,103.051,18.326Z" transform="translate(-4.487 -8.511)" fill="url(#linear-gradient)"/>
    </g>
  </g>
</svg>
