<svg xmlns="http://www.w3.org/2000/svg" xmlns:xlink="http://www.w3.org/1999/xlink" width="75.815" height="83.771" viewBox="0 0 75.815 83.771">
  <defs>
    <linearGradient id="linear-gradient" x1="0.5" x2="0.5" y2="1" gradientUnits="objectBoundingBox">
      <stop offset="0" stop-color="#1039ac"/>
      <stop offset="1" stop-color="#f8d14e"/>
    </linearGradient>
  </defs>
  <g id="Group_12729" data-name="Group 12729" transform="translate(-609.85 -652.714)">
    <g id="Group_12636" data-name="Group 12636" transform="translate(611 654)">
      <path id="Path_21289" data-name="Path 21289" d="M519.91,728.2l-24.842-14.336a11.924,11.924,0,0,0-11.929,0L458.321,728.2a11.93,11.93,0,0,0-5.963,10.331V767.2a11.93,11.93,0,0,0,5.963,10.331l24.829,14.336a11.925,11.925,0,0,0,11.929,0l24.831-14.336a11.929,11.929,0,0,0,5.963-10.331V738.526A11.929,11.929,0,0,0,519.91,728.2Z" transform="translate(-452.358 -712.26)" fill="#071691"/>
      <path id="Path_21290" data-name="Path 21290" d="M519.91,728.2l-24.842-14.336a11.924,11.924,0,0,0-11.929,0L458.321,728.2a11.93,11.93,0,0,0-5.963,10.331V767.2a11.93,11.93,0,0,0,5.963,10.331l24.829,14.336a11.925,11.925,0,0,0,11.929,0l24.831-14.336a11.929,11.929,0,0,0,5.963-10.331V738.526A11.929,11.929,0,0,0,519.91,728.2Z" transform="translate(-452.358 -712.26)" fill="none" stroke="#fff" stroke-width="2.3"/>
    </g>
    <g id="Group_12728" data-name="Group 12728" transform="translate(-481.156 -476.924)">
      <path id="Path_21431" data-name="Path 21431" d="M1130.936,1156.7h3.552l-3.552-3.552Z" transform="translate(10.326 1.529)" fill="none"/>
      <path id="Path_21432" data-name="Path 21432" d="M1129.913,1162.356a1.383,1.383,0,0,0-1.384-1.384h-3.317a16.636,16.636,0,0,1,2.838,2.768h.479A1.429,1.429,0,0,0,1129.913,1162.356Z" transform="translate(7.613 5.238)" fill="url(#linear-gradient)"/>
      <path id="Path_21433" data-name="Path 21433" d="M1133.849,1166.393a1.384,1.384,0,0,0-1.384-1.384h-3.976a16.278,16.278,0,0,1,1.033,2.768h2.943A1.429,1.429,0,0,0,1133.849,1166.393Z" transform="translate(9.166 7.152)" fill="url(#linear-gradient)"/>
      <g id="Group_12727" data-name="Group 12727" transform="translate(1109.156 1165.532)">
        <g id="Group_12726" data-name="Group 12726">
          <path id="Path_21434" data-name="Path 21434" d="M1122.852,1160.512a13.7,13.7,0,1,0,13.7,13.7A13.711,13.711,0,0,0,1122.852,1160.512Zm10.5,13.7a10.5,10.5,0,1,1-10.5-10.5A10.532,10.532,0,0,1,1133.354,1174.208Z" transform="translate(-1109.156 -1160.512)" fill="url(#linear-gradient)"/>
        </g>
        <path id="Path_21435" data-name="Path 21435" d="M1124.325,1173.028a3.585,3.585,0,0,0-1.4-.9,2.911,2.911,0,0,0,1.7-2.83,2.942,2.942,0,0,0-1.144-2.462,3.556,3.556,0,0,0-1.375-.628v-1.776h-1.748v1.614h-.263v-1.614h-1.747v1.619l-3.284.087v1.408l1.5.339v9.082l-1.5.339v1.5h2.888v1.471h1.748V1178.8h.233v1.414h1.748v-1.533a3.531,3.531,0,0,0,3.368-3.672A2.8,2.8,0,0,0,1124.325,1173.028Zm-2.746-2.2a3.075,3.075,0,0,1-1.822.512h-1.051v-3.346h1.673a1.994,1.994,0,0,1,1.309.392,1.5,1.5,0,0,1,.478,1.223A1.436,1.436,0,0,1,1121.578,1170.824Zm-2.817,2.288h1.051a4.027,4.027,0,0,1,2.19.473,1.742,1.742,0,0,1,.643,1.54c0,.753-.237,1.757-2.3,1.757h-1.589Z" transform="translate(-1106.357 -1158.655)" fill="url(#linear-gradient)"/>
      </g>
      <path id="Path_21436" data-name="Path 21436" d="M1145.1,1158.643h-.047l-8.258-8.3a1.523,1.523,0,0,0-.969-.416h-14.44a3.69,3.69,0,0,0-3.69,3.691v9.235c.366-.024.731-.054,1.1-.054a16.338,16.338,0,0,1,1.663.085v-9.266a.923.923,0,0,1,.923-.923h13.056v6.921a1.339,1.339,0,0,0,1.29,1.384h6.968v19.376a.922.922,0,0,1-.923.923h-6.691a16.275,16.275,0,0,1-.584,2.768h7.275a3.691,3.691,0,0,0,3.691-3.691v-20.76A1.479,1.479,0,0,0,1145.1,1158.643Zm-7.889-.414v-3.553l3.552,3.553Z" transform="translate(4.05 0)" fill="url(#linear-gradient)"/>
    </g>
  </g>
</svg>
